SplineFontDB: 3.0
FontName: AlmendraSC-Bold
FullName: Almendra SC Bold
FamilyName: Almendra SC
Weight: Bold
Copyright: Copyright (c) 2011-2012, Ana Sanfelippo (anasanfe@gmail.com), with Reserved Font Name 'Almendra'
Version: 1.003
ItalicAngle: 0
UnderlinePosition: -50
UnderlineWidth: 50
Ascent: 800
Descent: 200
sfntRevision: 0x000100c5
LayerCount: 2
Layer: 0 1 "Back"  1
Layer: 1 1 "Fore"  0
XUID: [1021 448 332988833 12061650]
FSType: 0
OS2Version: 3
OS2_WeightWidthSlopeOnly: 0
OS2_UseTypoMetrics: 1
CreationTime: 1334733840
ModificationTime: 1352734880
PfmFamily: 17
TTFWeight: 700
TTFWidth: 5
LineGap: 0
VLineGap: 0
Panose: 2 0 0 0 0 0 0 0 0 0
OS2TypoAscent: 951
OS2TypoAOffset: 0
OS2TypoDescent: -345
OS2TypoDOffset: 0
OS2TypoLinegap: 0
OS2WinAscent: 951
OS2WinAOffset: 0
OS2WinDescent: 345
OS2WinDOffset: 0
HheadAscent: 951
HheadAOffset: 0
HheadDescent: -345
HheadDOffset: 0
OS2SubXSize: 650
OS2SubYSize: 600
OS2SubXOff: 0
OS2SubYOff: 75
OS2SupXSize: 650
OS2SupYSize: 600
OS2SupXOff: 0
OS2SupYOff: 350
OS2StrikeYSize: 50
OS2StrikeYPos: 330
OS2Vendor: 'pyrs'
OS2CodePages: 20000001.00000000
OS2UnicodeRanges: 8000006f.00000002.00000000.00000000
Lookup: 258 0 0 "'kern' Horizontal Kerning in Latin lookup 0"  {"'kern' Horizontal Kerning in Latin lookup 0 subtable"  } ['kern' ('latn' <'dflt' > ) ]
DEI: 91125
TtTable: prep
PUSHW_1
 511
SCANCTRL
PUSHB_1
 4
SCANTYPE
EndTTInstrs
ShortTable: maxp 16
  1
  0
  250
  93
  4
  0
  0
  2
  0
  1
  1
  0
  64
  0
  0
  0
EndShort
LangName: 1033 "" "" "" "AnaSanfelippo: Almendra SC Bold: 2011" "" "Version 1.003" "" "Almendra is a trademark of Ana Sanfelippo." "Ana Sanfelippo" "Ana Sanfelippo" "" "" "www.anasanfelippo.com.ar" "This Font Software is licensed under the SIL Open Font License, Version 1.1. This license is available with a FAQ at: http://scripts.sil.org/OFL" "http://scripts.sil.org/OFL" 
GaspTable: 1 65535 15 1
Encoding: UnicodeBmp
UnicodeInterp: none
NameList: AGL For New Fonts
DisplaySize: -24
AntiAlias: 1
FitToEm: 1

StartChar: exclam
Encoding: 33 33 5
Width: 260
GlyphClass: 2
Flags: W
LayerCount: 2
Fore
SplineSet
223 85 m 1,0,1
 212 63 212 63 182 32 c 128,-1,2
 152 1 152 1 129 -15 c 1,3,4
 106 0 106 0 76 31.5 c 128,-1,5
 46 63 46 63 34 85 c 1,6,7
 47 106 47 106 74.5 130 c 128,-1,8
 102 154 102 154 129 166 c 1,9,10
 153 153 153 153 181 129.5 c 128,-1,11
 209 106 209 106 223 85 c 1,0,1
186 711 m 0,12,13
 190 711 190 711 194 711 c 1,14,15
 233 688 233 688 253 651 c 1,16,17
 184 463 184 463 148 246 c 1,18,-1
 102 241 l 1,19,-1
 64 678 l 1,20,21
 120 711 120 711 186 711 c 0,12,13
EndSplineSet
EndChar

StartChar: quotedbl
Encoding: 34 34 6
Width: 419
GlyphClass: 2
Flags: W
LayerCount: 2
Fore
SplineSet
102 378 m 1,0,-1
 80 651 l 1,1,2
 127 681 127 681 194 681 c 1,3,-1
 209 661 l 1,4,5
 168 541 168 541 145 383 c 1,6,-1
 102 378 l 1,0,-1
268 378 m 1,7,-1
 246 651 l 1,8,9
 293 681 293 681 360 681 c 1,10,-1
 375 661 l 1,11,12
 334 541 334 541 311 383 c 1,13,-1
 268 378 l 1,7,-1
EndSplineSet
EndChar

StartChar: numbersign
Encoding: 35 35 7
Width: 550
GlyphClass: 2
Flags: W
LayerCount: 2
Fore
SplineSet
391 381 m 1,0,1
 452 380 452 380 474 380 c 128,-1,2
 496 380 496 380 503 380 c 1,3,-1
 510 374 l 1,4,-1
 500 311 l 1,5,-1
 383 314 l 1,6,-1
 369 193 l 1,7,8
 427 192 427 192 448 192 c 128,-1,9
 469 192 469 192 476 192 c 1,10,-1
 483 187 l 1,11,-1
 473 123 l 1,12,-1
 361 126 l 1,13,-1
 335 -92 l 1,14,-1
 330 -92 l 1,15,16
 287 -82 287 -82 275 -71 c 1,17,18
 292 26 292 26 305 128 c 1,19,-1
 205 130 l 1,20,-1
 179 -92 l 1,21,-1
 174 -92 l 1,22,23
 131 -82 131 -82 119 -71 c 1,24,25
 140 50 140 50 149 131 c 1,26,-1
 48 134 l 1,27,-1
 40 141 l 1,28,-1
 50 208 l 1,29,-1
 96 204 l 2,30,31
 146 200 146 200 157 200 c 1,32,-1
 172 319 l 1,33,-1
 75 322 l 1,34,-1
 67 328 l 1,35,-1
 77 396 l 1,36,-1
 122 392 l 2,37,38
 167 389 167 389 180 388 c 1,39,-1
 205 587 l 1,40,41
 238 587 238 587 263 592 c 1,42,-1
 267 589 l 1,43,44
 246 472 246 472 235 386 c 1,45,-1
 336 382 l 1,46,-1
 361 587 l 1,47,48
 394 587 394 587 419 592 c 1,49,-1
 423 589 l 1,50,51
 402 477 402 477 391 381 c 1,0,1
213 197 m 1,52,-1
 313 194 l 1,53,-1
 328 316 l 1,54,-1
 227 318 l 1,55,-1
 213 197 l 1,52,-1
EndSplineSet
EndChar

StartChar: dollar
Encoding: 36 36 8
Width: 540
GlyphClass: 2
Flags: W
LayerCount: 2
Fore
SplineSet
108 334 m 0,0,1
 108 393 108 393 165.5 456.5 c 128,-1,2
 223 520 223 520 290 547 c 1,3,4
 289 565 289 565 289 603 c 1,5,6
 312 613 312 613 328 626 c 1,7,-1
 334 623 l 1,8,9
 330 594 330 594 327 555 c 1,10,11
 398 553 398 553 466 536 c 1,12,-1
 466 520 l 1,13,14
 422 480 422 480 415 376 c 1,15,-1
 389 376 l 1,16,17
 389 423 389 423 384 444 c 1,18,19
 358 464 358 464 323 472 c 1,20,-1
 317 347 l 1,21,22
 409 292 409 292 433.5 268 c 128,-1,23
 458 244 458 244 458 222 c 0,24,25
 458 171 458 171 396 99 c 128,-1,26
 334 27 334 27 272 -6 c 1,27,-1
 267 -111 l 1,28,-1
 261 -112 l 1,29,30
 241 -110 241 -110 226 -95 c 1,31,-1
 235 -15 l 1,32,33
 174 -12 174 -12 114 4 c 1,34,35
 98 -5 98 -5 79 -27 c 1,36,-1
 61 -10 l 1,37,38
 121 57 121 57 121 171 c 1,39,-1
 146 171 l 1,40,-1
 150 114 l 1,41,42
 189 77 189 77 240 70 c 1,43,-1
 248 204 l 1,44,45
 156 260 156 260 132 285.5 c 128,-1,46
 108 311 108 311 108 334 c 0,0,1
217 432 m 0,47,48
 217 406 217 406 285 366 c 1,49,-1
 289 476 l 1,50,51
 261 476 261 476 239 465 c 128,-1,52
 217 454 217 454 217 432 c 0,47,48
339 120 m 0,53,54
 339 143 339 143 282 182 c 1,55,-1
 276 70 l 1,56,-1
 276 69 l 1,57,58
 339 73 339 73 339 120 c 0,53,54
EndSplineSet
EndChar

StartChar: percent
Encoding: 37 37 9
Width: 744
GlyphClass: 2
Flags: W
LayerCount: 2
Fore
SplineSet
178 570 m 0,0,1
 200 570 200 570 288 555 c 128,-1,2
 376 540 376 540 442.5 540 c 128,-1,3
 509 540 509 540 532 578 c 2,4,-1
 538 588 l 1,5,6
 593 591 593 591 617 598 c 1,7,-1
 620 595 l 1,8,9
 552 498 552 498 475 378 c 2,10,-1
 170 -100 l 1,11,-1
 165 -100 l 1,12,13
 119 -79 119 -79 112 -68 c 1,14,15
 213 69 213 69 234 102 c 2,16,-1
 409 376 l 1,17,18
 457 448 457 448 503 527 c 1,19,-1
 499 528 l 1,20,21
 469 496 469 496 418.5 496 c 128,-1,22
 368 496 368 496 274 539 c 1,23,-1
 271 536 l 1,24,25
 330 489 330 489 353 408 c 1,26,27
 335 327 335 327 281.5 277 c 128,-1,28
 228 227 228 227 174 227 c 128,-1,29
 120 227 120 227 70.5 272.5 c 128,-1,30
 21 318 21 318 1 389 c 1,31,32
 19 470 19 470 74 520 c 128,-1,33
 129 570 129 570 178 570 c 0,0,1
465 278 m 128,-1,35
 520 328 520 328 573.5 328 c 128,-1,36
 627 328 627 328 675.5 282.5 c 128,-1,37
 724 237 724 237 744 166 c 1,38,39
 726 85 726 85 672.5 35 c 128,-1,40
 619 -15 619 -15 565 -15 c 128,-1,41
 511 -15 511 -15 461.5 30.5 c 128,-1,42
 412 76 412 76 392 147 c 1,43,34
 410 228 410 228 465 278 c 128,-1,35
538.5 241 m 128,-1,45
 527 202 527 202 527 156.5 c 128,-1,46
 527 111 527 111 538.5 72 c 128,-1,47
 550 33 550 33 569 22 c 1,48,49
 588 33 588 33 599.5 72 c 128,-1,50
 611 111 611 111 611 156.5 c 128,-1,51
 611 202 611 202 599.5 241 c 128,-1,52
 588 280 588 280 569 291 c 1,53,44
 550 280 550 280 538.5 241 c 128,-1,45
147.5 483 m 128,-1,55
 136 444 136 444 136 398.5 c 128,-1,56
 136 353 136 353 147.5 314 c 128,-1,57
 159 275 159 275 178 264 c 1,58,59
 197 275 197 275 208.5 314 c 128,-1,60
 220 353 220 353 220 398.5 c 128,-1,61
 220 444 220 444 208.5 483 c 128,-1,62
 197 522 197 522 178 533 c 1,63,54
 159 522 159 522 147.5 483 c 128,-1,55
EndSplineSet
EndChar

StartChar: ampersand
Encoding: 38 38 10
Width: 603
GlyphClass: 2
Flags: W
LayerCount: 2
Fore
SplineSet
26 177 m 0,0,1
 26 250 26 250 83.5 297 c 128,-1,2
 141 344 141 344 219 344 c 1,3,-1
 219 353 l 1,4,5
 148 360 148 360 104.5 394.5 c 128,-1,6
 61 429 61 429 60 492 c 1,7,8
 152 607 152 607 323 666 c 1,9,10
 404 666 404 666 464 646 c 1,11,12
 470 650 470 650 505 682 c 1,13,-1
 528 667 l 1,14,15
 493 617 493 617 475 568.5 c 128,-1,16
 457 520 457 520 448 453 c 1,17,-1
 420 453 l 1,18,19
 420 506 420 506 414 540 c 1,20,21
 369 582 369 582 299 582 c 0,22,23
 255 582 255 582 229 562 c 1,24,25
 228 547 228 547 228 533 c 0,26,27
 228 464 228 464 265 420.5 c 128,-1,28
 302 377 302 377 388 377 c 0,29,30
 498 377 498 377 612 408 c 1,31,-1
 617 403 l 1,32,33
 607 371 607 371 604 329 c 1,34,-1
 601 325 l 1,35,36
 582 327 582 327 523 332 c 1,37,-1
 511 200 l 2,38,39
 504 131 504 131 446.5 69 c 128,-1,40
 389 7 389 7 318 -15 c 1,41,42
 201 -15 201 -15 118 26 c 1,43,44
 76 48 76 48 51 86.5 c 128,-1,45
 26 125 26 125 26 177 c 0,0,1
206 215 m 0,47,48
 206 153 206 153 240 118 c 128,-1,49
 274 83 274 83 335 83 c 0,50,51
 375 83 375 83 399 94 c 1,52,-1
 399 206 l 1,53,54
 397 305 397 305 385 333 c 1,55,-1
 371 333 l 1,56,46
 206 327 206 327 206 215 c 0,47,48
EndSplineSet
EndChar

StartChar: quotesingle
Encoding: 39 39 11
Width: 260
GlyphClass: 2
Flags: W
LayerCount: 2
Fore
SplineSet
102 378 m 1,0,-1
 80 651 l 1,1,2
 127 681 127 681 194 681 c 1,3,-1
 209 661 l 1,4,5
 168 541 168 541 145 383 c 1,6,-1
 102 378 l 1,0,-1
EndSplineSet
EndChar

StartChar: parenleft
Encoding: 40 40 12
Width: 297
GlyphClass: 2
Flags: W
LayerCount: 2
Fore
SplineSet
92.5 -1 m 128,-1,1
 31 132 31 132 31 259.5 c 128,-1,2
 31 387 31 387 91.5 507.5 c 128,-1,3
 152 628 152 628 250 711 c 1,4,-1
 265 697 l 1,5,6
 123 503 123 503 123 262 c 0,7,8
 123 136 123 136 159 13.5 c 128,-1,9
 195 -109 195 -109 263 -202 c 1,10,-1
 250 -215 l 1,11,0
 154 -134 154 -134 92.5 -1 c 128,-1,1
EndSplineSet
EndChar

StartChar: parenright
Encoding: 41 41 13
Width: 297
GlyphClass: 2
Flags: W
LayerCount: 2
Fore
SplineSet
205.5 507.5 m 128,-1,1
 266 387 266 387 266 259.5 c 128,-1,2
 266 132 266 132 204.5 -1 c 128,-1,3
 143 -134 143 -134 47 -215 c 1,4,-1
 34 -202 l 1,5,6
 102 -109 102 -109 138 13.5 c 128,-1,7
 174 136 174 136 174 262 c 0,8,9
 174 503 174 503 32 697 c 1,10,-1
 47 711 l 1,11,0
 145 628 145 628 205.5 507.5 c 128,-1,1
EndSplineSet
EndChar

StartChar: asterisk
Encoding: 42 42 14
Width: 371
GlyphClass: 2
Flags: W
LayerCount: 2
Fore
SplineSet
283 630 m 1,0,1
 299 632 299 632 310.5 632 c 128,-1,2
 322 632 322 632 326 629 c 1,3,4
 327 623 327 623 305 591 c 1,5,6
 325 571 325 571 327 568 c 1,7,-1
 326 565 l 1,8,9
 321 565 321 565 317 565 c 0,10,11
 271 565 271 565 217 547 c 1,12,13
 271 529 271 529 317 529 c 0,14,15
 321 529 321 529 326 529 c 1,16,-1
 327 526 l 1,17,18
 325 523 325 523 305 503 c 1,19,20
 327 471 327 471 326 465 c 1,21,22
 322 462 322 462 310.5 462 c 128,-1,23
 299 462 299 462 283 464 c 1,24,25
 275 436 275 436 274 434 c 1,26,-1
 270 433 l 1,27,28
 245 477 245 477 201 516 c 1,29,30
 212 457 212 457 240 415 c 1,31,-1
 237 413 l 1,32,33
 231 413 231 413 206 420 c 1,34,35
 191 386 191 386 184 383 c 1,36,37
 174 388 174 388 162 420 c 1,38,39
 137 413 137 413 131 413 c 1,40,-1
 128 415 l 1,41,42
 151 453 151 453 165 516 c 1,43,44
 119 473 119 473 98 433 c 1,45,-1
 94 434 l 1,46,47
 93 436 93 436 85 464 c 1,48,49
 69 463 69 463 57 463 c 128,-1,50
 45 463 45 463 42 465 c 1,51,52
 41 476 41 476 63 503 c 1,53,54
 43 523 43 523 41 526 c 1,55,-1
 42 529 l 1,56,57
 88 529 88 529 147 547 c 1,58,59
 88 565 88 565 42 565 c 1,60,-1
 41 568 l 1,61,62
 43 571 43 571 63 591 c 1,63,64
 41 618 41 618 42 629 c 1,65,66
 45 631 45 631 57 631 c 128,-1,67
 69 631 69 631 85 630 c 1,68,69
 93 658 93 658 94 660 c 1,70,-1
 98 661 l 1,71,72
 119 621 119 621 165 578 c 1,73,74
 151 640 151 640 128 679 c 1,75,-1
 131 681 l 1,76,77
 138 681 138 681 162 674 c 1,78,79
 174 706 174 706 184 711 c 1,80,81
 191 708 191 708 206 674 c 1,82,83
 231 681 231 681 237 681 c 1,84,-1
 240 679 l 1,85,86
 212 635 212 635 201 578 c 1,87,88
 246 619 246 619 270 661 c 1,89,-1
 274 660 l 1,90,91
 275 658 275 658 283 630 c 1,0,1
EndSplineSet
EndChar

StartChar: plus
Encoding: 43 43 15
Width: 576
GlyphClass: 2
Flags: W
LayerCount: 2
Fore
SplineSet
320 212 m 1,0,1
 320 85 320 85 329 -10 c 1,2,-1
 259 -19 l 1,3,-1
 249 -12 l 1,4,-1
 249 212 l 1,5,-1
 65 212 l 1,6,-1
 57 219 l 1,7,-1
 66 290 l 1,8,9
 188 284 188 284 249 283 c 1,10,-1
 249 486 l 1,11,-1
 320 495 l 1,12,-1
 325 489 l 1,13,14
 320 356 320 356 320 283 c 2,15,-1
 320 282 l 1,16,17
 357 281 357 281 416 281 c 128,-1,18
 475 281 475 281 514 284 c 1,19,-1
 520 278 l 1,20,-1
 511 212 l 1,21,-1
 320 212 l 1,0,1
EndSplineSet
EndChar

StartChar: comma
Encoding: 44 44 16
Width: 257
GlyphClass: 2
Flags: W
LayerCount: 2
Fore
SplineSet
223 85 m 1,0,1
 223 21 223 21 165.5 -55.5 c 128,-1,2
 108 -132 108 -132 45 -169 c 1,3,-1
 29 -149 l 1,4,5
 96 -86 96 -86 105 4 c 1,6,7
 86 20 86 20 64.5 44.5 c 128,-1,8
 43 69 43 69 34 85 c 1,9,10
 47 106 47 106 74.5 130 c 128,-1,11
 102 154 102 154 129 166 c 1,12,13
 153 153 153 153 181 129.5 c 128,-1,14
 209 106 209 106 223 85 c 1,0,1
EndSplineSet
EndChar

StartChar: hyphen
Encoding: 45 45 17
Width: 300
GlyphClass: 2
Flags: W
LayerCount: 2
Fore
SplineSet
76 298 m 2,0,1
 184 298 184 298 268 308 c 1,2,-1
 276 303 l 1,3,-1
 270 241 l 1,4,-1
 33 226 l 1,5,-1
 24 232 l 1,6,-1
 30 298 l 1,7,-1
 76 298 l 2,0,1
EndSplineSet
EndChar

StartChar: period
Encoding: 46 46 18
Width: 257
GlyphClass: 2
Flags: W
LayerCount: 2
Fore
SplineSet
223 85 m 1,0,1
 212 63 212 63 182 32 c 128,-1,2
 152 1 152 1 129 -15 c 1,3,4
 106 0 106 0 76 31.5 c 128,-1,5
 46 63 46 63 34 85 c 1,6,7
 47 106 47 106 74.5 130 c 128,-1,8
 102 154 102 154 129 166 c 1,9,10
 153 153 153 153 181 129.5 c 128,-1,11
 209 106 209 106 223 85 c 1,0,1
EndSplineSet
EndChar

StartChar: slash
Encoding: 47 47 19
Width: 354
GlyphClass: 2
Flags: W
LayerCount: 2
Fore
SplineSet
68 -41 m 1,0,-1
 63 -41 l 1,1,2
 18 -22 18 -22 9 -11 c 1,3,4
 32 39 32 39 85 178 c 1,5,-1
 202 477 l 2,6,7
 242 581 242 581 280 698 c 1,8,9
 327 701 327 701 349 706 c 1,10,-1
 353 703 l 1,11,12
 327 644 327 644 270 491 c 1,13,-1
 68 -41 l 1,0,-1
EndSplineSet
EndChar

StartChar: zero
Encoding: 48 48 20
Width: 540
GlyphClass: 2
Flags: W
LayerCount: 2
Fore
SplineSet
118.5 472 m 128,-1,1
 201 555 201 555 279 555 c 128,-1,2
 357 555 357 555 429.5 479.5 c 128,-1,3
 502 404 502 404 534 285 c 1,4,5
 505 151 505 151 425 68 c 128,-1,6
 345 -15 345 -15 273 -15 c 0,7,8
 188 -15 188 -15 113.5 61 c 128,-1,9
 39 137 39 137 7 255 c 1,10,0
 36 389 36 389 118.5 472 c 128,-1,1
212.5 420.5 m 128,-1,12
 190 350 190 350 190 270.5 c 128,-1,13
 190 191 190 191 212.5 120 c 128,-1,14
 235 49 235 49 273 30 c 1,15,16
 309 49 309 49 331.5 120 c 128,-1,17
 354 191 354 191 354 270.5 c 128,-1,18
 354 350 354 350 332 420.5 c 128,-1,19
 310 491 310 491 273 510 c 1,20,11
 235 491 235 491 212.5 420.5 c 128,-1,12
EndSplineSet
EndChar

StartChar: one
Encoding: 49 49 21
Width: 540
GlyphClass: 2
Flags: W
LayerCount: 2
Fore
SplineSet
376 552 m 1,0,1
 359 437 359 437 359 268.5 c 128,-1,2
 359 100 359 100 370 31 c 1,3,4
 394 23 394 23 407 16 c 1,5,-1
 403 -8 l 1,6,7
 350 0 350 0 275 0 c 128,-1,8
 200 0 200 0 150 -7 c 1,9,-1
 148 16 l 1,10,11
 173 24 173 24 196 29 c 1,12,13
 208 113 208 113 208 233.5 c 128,-1,14
 208 354 208 354 205 414 c 1,15,-1
 128 414 l 1,16,-1
 125 417 l 1,17,18
 125 431 125 431 129 447 c 1,19,20
 241 471 241 471 328 551 c 1,21,22
 356 555 356 555 373 555 c 1,23,-1
 376 552 l 1,0,1
EndSplineSet
EndChar

StartChar: two
Encoding: 50 50 22
Width: 540
GlyphClass: 2
Flags: W
LayerCount: 2
Fore
SplineSet
479 177 m 1,0,1
 466 137 466 137 466 83 c 128,-1,2
 466 29 466 29 477 -9 c 1,3,-1
 463 -17 l 1,4,5
 273 23 273 23 91 23 c 1,6,7
 66 7 66 7 48 -25 c 1,8,-1
 25 -14 l 1,9,10
 48 49 48 49 136 150 c 0,11,12
 170 189 170 189 202 230 c 0,13,14
 275 322 275 322 275 401 c 0,15,16
 275 439 275 439 261 456.5 c 128,-1,17
 247 474 247 474 217 474 c 128,-1,18
 187 474 187 474 166 465 c 1,19,20
 157 438 157 438 157 410 c 128,-1,21
 157 382 157 382 169 370 c 1,22,-1
 168 362 l 1,23,24
 121 346 121 346 82 312 c 1,25,26
 53 314 53 314 53 343 c 0,27,28
 53 412 53 412 117 475 c 128,-1,29
 181 538 181 538 255 555 c 1,30,31
 457 555 457 555 457 374 c 1,32,33
 357 251 357 251 194 134 c 1,34,-1
 194 123 l 1,35,36
 217 138 217 138 230 141 c 1,37,38
 325 141 325 141 428 122 c 1,39,40
 443 150 443 150 455 185 c 1,41,-1
 479 177 l 1,0,1
EndSplineSet
EndChar

StartChar: three
Encoding: 51 51 23
Width: 540
GlyphClass: 2
Flags: W
LayerCount: 2
Fore
SplineSet
146 218 m 1,0,1
 146 178 146 178 148 155 c 1,2,3
 211 63 211 63 284 63 c 0,4,5
 307 63 307 63 318 68 c 1,6,7
 331 99 331 99 331 155.5 c 128,-1,8
 331 212 331 212 302.5 239.5 c 128,-1,9
 274 267 274 267 214 267 c 1,10,-1
 201 275 l 1,11,-1
 320 424 l 1,12,-1
 318 428 l 1,13,14
 302 421 302 421 290 418 c 1,15,16
 237 418 237 418 170 425 c 1,17,18
 155 392 155 392 147 362 c 1,19,-1
 125 368 l 1,20,21
 133 416 133 416 133 467 c 128,-1,22
 133 518 133 518 122 551 c 1,23,-1
 134 560 l 1,24,25
 265 533 265 533 432 533 c 1,26,27
 477 553 477 553 495 572 c 1,28,-1
 516 556 l 1,29,-1
 333 367 l 1,30,31
 425 355 425 355 463.5 302.5 c 128,-1,32
 502 250 502 250 502 152 c 1,33,34
 463 100 463 100 398.5 52.5 c 128,-1,35
 334 5 334 5 274 -15 c 1,36,37
 194 -15 194 -15 77 39 c 1,38,-1
 77 53 l 1,39,40
 112 93 112 93 121 218 c 1,41,-1
 146 218 l 1,0,1
EndSplineSet
EndChar

StartChar: four
Encoding: 52 52 24
Width: 540
GlyphClass: 2
Flags: W
LayerCount: 2
Fore
SplineSet
257 123 m 1,0,-1
 27 123 l 1,1,-1
 19 145 l 1,2,3
 143 299 143 299 242 531 c 1,4,5
 280 532 280 532 336 539 c 128,-1,6
 392 546 392 546 413 555 c 1,7,-1
 422 551 l 1,8,9
 407 478 407 478 407 381.5 c 128,-1,10
 407 285 407 285 409 217 c 1,11,12
 445 217 445 217 459.5 224.5 c 128,-1,13
 474 232 474 232 485 260 c 1,14,-1
 503 256 l 1,15,16
 493 204 493 204 493 122 c 1,17,-1
 488 120 l 1,18,19
 456 123 456 123 410 123 c 1,20,21
 410 65 410 65 417 31 c 1,22,23
 442 18 442 18 461 15 c 1,24,-1
 457 -9 l 1,25,26
 397 0 397 0 319 0 c 128,-1,27
 241 0 241 0 194 -8 c 1,28,-1
 190 15 l 1,29,30
 223 28 223 28 251 32 c 1,31,32
 257 77 257 77 257 123 c 1,0,-1
253 454 m 1,33,34
 204 308 204 308 152 227 c 1,35,36
 210 221 210 221 257 220 c 1,37,-1
 260 454 l 1,38,-1
 253 454 l 1,33,34
EndSplineSet
EndChar

StartChar: five
Encoding: 53 53 25
Width: 540
GlyphClass: 2
Flags: W
LayerCount: 2
Fore
SplineSet
131 208 m 1,0,1
 131 168 131 168 133 145 c 1,2,3
 186 63 186 63 263 63 c 0,4,5
 286 63 286 63 293 68 c 1,6,7
 306 99 306 99 306 151 c 128,-1,8
 306 203 306 203 278 232.5 c 128,-1,9
 250 262 250 262 204 262 c 128,-1,10
 158 262 158 262 127 254 c 1,11,-1
 115 264 l 1,12,-1
 125 451 l 2,13,14
 127 478 127 478 127 507 c 128,-1,15
 127 536 127 536 123 561 c 1,16,-1
 145 565 l 1,17,-1
 155 537 l 1,18,19
 310 540 310 540 416 564 c 1,20,-1
 427 555 l 1,21,22
 414 516 414 516 414 471.5 c 128,-1,23
 414 427 414 427 420 391 c 1,24,-1
 396 386 l 1,25,26
 388 412 388 412 376 428 c 1,27,28
 307 420 307 420 213 420 c 1,29,-1
 190 430 l 1,30,-1
 186 427 l 1,31,-1
 164 314 l 1,32,33
 218 335 218 335 280 347 c 1,34,35
 374 342 374 342 425.5 292.5 c 128,-1,36
 477 243 477 243 477 152 c 1,37,38
 438 100 438 100 373.5 52.5 c 128,-1,39
 309 5 309 5 249 -15 c 1,40,41
 157 -15 157 -15 62 29 c 1,42,-1
 62 43 l 1,43,44
 97 83 97 83 106 208 c 1,45,-1
 131 208 l 1,0,1
EndSplineSet
EndChar

StartChar: six
Encoding: 54 54 26
Width: 540
GlyphClass: 2
Flags: W
LayerCount: 2
Fore
SplineSet
221 212 m 0,0,1
 221 54 221 54 286 54 c 0,2,3
 314 54 314 54 328 67 c 1,4,5
 339 100 339 100 339 155 c 128,-1,6
 339 210 339 210 323 240.5 c 128,-1,7
 307 271 307 271 254 271 c 1,8,-1
 254 279 l 1,9,10
 296 321 296 321 316 368 c 1,11,12
 403 368 403 368 453 314.5 c 128,-1,13
 503 261 503 261 503 154 c 1,14,15
 461 97 461 97 398 51 c 128,-1,16
 335 5 335 5 268 -15 c 1,17,18
 56 -15 56 -15 56 179 c 0,19,20
 56 314 56 314 160 423 c 128,-1,21
 264 532 264 532 409 575 c 1,22,-1
 422 557 l 1,23,24
 317 492 317 492 269 411 c 128,-1,25
 221 330 221 330 221 212 c 0,0,1
EndSplineSet
EndChar

StartChar: seven
Encoding: 55 55 27
Width: 540
GlyphClass: 2
Flags: W
LayerCount: 2
Fore
SplineSet
332 410 m 1,0,1
 310 409 310 409 269.5 409 c 128,-1,2
 229 409 229 409 161 416 c 1,3,4
 149 387 149 387 141 353 c 1,5,-1
 117 358 l 1,6,7
 123 394 123 394 123 453 c 128,-1,8
 123 512 123 512 110 551 c 1,9,-1
 121 560 l 1,10,11
 250 533 250 533 447 533 c 1,12,13
 458 544 458 544 467 559 c 1,14,-1
 491 547 l 1,15,16
 427 436 427 436 386 335 c 0,17,18
 309 145 309 145 309 34 c 1,19,20
 340 29 340 29 371 19 c 1,21,-1
 368 -4 l 1,22,23
 333 0 333 0 259.5 0 c 128,-1,24
 186 0 186 0 109 -15 c 1,25,-1
 104 9 l 1,26,27
 130 16 130 16 147 27 c 1,28,29
 155 69 155 69 185.5 127 c 128,-1,30
 216 185 216 185 298 314 c 2,31,-1
 363 417 l 1,32,-1
 359 421 l 1,33,34
 345 414 345 414 332 410 c 1,0,1
EndSplineSet
EndChar

StartChar: eight
Encoding: 56 56 28
Width: 540
GlyphClass: 2
Flags: W
LayerCount: 2
Fore
SplineSet
126.5 18.5 m 128,-1,1
 66 53 66 53 66 121.5 c 128,-1,2
 66 190 66 190 176 267 c 1,3,4
 89 327 89 327 89 434 c 1,5,6
 117 476 117 476 175.5 512.5 c 128,-1,7
 234 549 234 549 286 560 c 1,8,9
 353 560 353 560 392.5 536 c 128,-1,10
 432 512 432 512 432 464 c 0,11,12
 432 433 432 433 406.5 399.5 c 128,-1,13
 381 366 381 366 344 340 c 1,14,15
 444 288 444 288 466 226 c 0,16,17
 476 196 476 196 476 158 c 1,18,19
 446 99 446 99 390.5 50 c 128,-1,20
 335 1 335 1 271 -16 c 1,21,0
 187 -16 187 -16 126.5 18.5 c 128,-1,1
323 52 m 1,22,23
 331 82 331 82 331 112.5 c 128,-1,24
 331 143 331 143 323.5 159.5 c 128,-1,25
 316 176 316 176 299 190 c 0,26,27
 271 215 271 215 216 242 c 1,28,29
 187 190 187 190 187 144.5 c 128,-1,30
 187 99 187 99 215.5 71.5 c 128,-1,31
 244 44 244 44 279.5 44 c 128,-1,32
 315 44 315 44 323 52 c 1,22,23
234 493 m 1,33,34
 228 478 228 478 228 451 c 128,-1,35
 228 424 228 424 246.5 403 c 128,-1,36
 265 382 265 382 301 362 c 1,37,38
 325 400 325 400 325 448 c 0,39,40
 325 473 325 473 308.5 486.5 c 128,-1,41
 292 500 292 500 266.5 500 c 128,-1,42
 241 500 241 500 234 493 c 1,33,34
EndSplineSet
EndChar

StartChar: nine
Encoding: 57 57 29
Width: 540
GlyphClass: 2
Flags: W
LayerCount: 2
Fore
SplineSet
319 335 m 0,0,1
 319 493 319 493 254 493 c 0,2,3
 226 493 226 493 212 480 c 1,4,5
 201 447 201 447 201 392 c 128,-1,6
 201 337 201 337 217 306.5 c 128,-1,7
 233 276 233 276 286 276 c 1,8,-1
 286 268 l 1,9,10
 244 226 244 226 224 179 c 1,11,12
 137 179 137 179 87 232.5 c 128,-1,13
 37 286 37 286 37 393 c 1,14,15
 79 450 79 450 142 496 c 128,-1,16
 205 542 205 542 272 562 c 1,17,18
 484 562 484 562 484 368 c 0,19,20
 484 233 484 233 380 124 c 128,-1,21
 276 15 276 15 131 -28 c 1,22,-1
 118 -10 l 1,23,24
 223 55 223 55 271 136 c 128,-1,25
 319 217 319 217 319 335 c 0,0,1
EndSplineSet
EndChar

StartChar: colon
Encoding: 58 58 30
Width: 257
GlyphClass: 2
Flags: W
LayerCount: 2
Fore
SplineSet
223 85 m 1,0,1
 212 63 212 63 182 32 c 128,-1,2
 152 1 152 1 129 -15 c 1,3,4
 106 0 106 0 76 31.5 c 128,-1,5
 46 63 46 63 34 85 c 1,6,7
 47 106 47 106 74.5 130 c 128,-1,8
 102 154 102 154 129 166 c 1,9,10
 153 153 153 153 181 129.5 c 128,-1,11
 209 106 209 106 223 85 c 1,0,1
223 424 m 1,12,13
 212 402 212 402 182 371 c 128,-1,14
 152 340 152 340 129 324 c 1,15,16
 106 339 106 339 76 370.5 c 128,-1,17
 46 402 46 402 34 424 c 1,18,19
 47 445 47 445 74.5 469 c 128,-1,20
 102 493 102 493 129 505 c 1,21,22
 153 492 153 492 181 468.5 c 128,-1,23
 209 445 209 445 223 424 c 1,12,13
EndSplineSet
EndChar

StartChar: semicolon
Encoding: 59 59 31
Width: 257
GlyphClass: 2
Flags: W
LayerCount: 2
Fore
SplineSet
223 85 m 1,0,1
 223 21 223 21 165.5 -55.5 c 128,-1,2
 108 -132 108 -132 45 -169 c 1,3,-1
 29 -149 l 1,4,5
 96 -86 96 -86 105 4 c 1,6,7
 86 20 86 20 64.5 44.5 c 128,-1,8
 43 69 43 69 34 85 c 1,9,10
 47 106 47 106 74.5 130 c 128,-1,11
 102 154 102 154 129 166 c 1,12,13
 153 153 153 153 181 129.5 c 128,-1,14
 209 106 209 106 223 85 c 1,0,1
223 424 m 1,15,16
 212 402 212 402 182 371 c 128,-1,17
 152 340 152 340 129 324 c 1,18,19
 106 339 106 339 76 370.5 c 128,-1,20
 46 402 46 402 34 424 c 1,21,22
 47 445 47 445 74.5 469 c 128,-1,23
 102 493 102 493 129 505 c 1,24,25
 153 492 153 492 181 468.5 c 128,-1,26
 209 445 209 445 223 424 c 1,15,16
EndSplineSet
EndChar

StartChar: less
Encoding: 60 60 32
Width: 576
GlyphClass: 2
Flags: W
LayerCount: 2
Fore
SplineSet
495 45 m 1,0,1
 264 160 264 160 55 222 c 1,2,-1
 69 286 l 1,3,4
 125 303 125 303 253 351.5 c 128,-1,5
 381 400 381 400 497 459 c 1,6,-1
 521 393 l 1,7,-1
 516 383 l 1,8,-1
 167 254 l 1,9,-1
 167 250 l 1,10,-1
 516 122 l 1,11,-1
 521 112 l 1,12,-1
 495 45 l 1,0,1
EndSplineSet
EndChar

StartChar: equal
Encoding: 61 61 33
Width: 576
GlyphClass: 2
Flags: W
LayerCount: 2
Fore
SplineSet
65 208 m 1,0,1
 234 199 234 199 354 199 c 128,-1,2
 474 199 474 199 513 202 c 1,3,-1
 519 196 l 1,4,-1
 510 135 l 1,5,-1
 64 135 l 1,6,-1
 56 142 l 1,7,-1
 65 208 l 1,0,1
65 367 m 1,8,9
 234 358 234 358 354 358 c 128,-1,10
 474 358 474 358 513 361 c 1,11,-1
 519 355 l 1,12,-1
 510 294 l 1,13,-1
 64 294 l 1,14,-1
 56 301 l 1,15,-1
 65 367 l 1,8,9
EndSplineSet
EndChar

StartChar: greater
Encoding: 62 62 34
Width: 576
GlyphClass: 2
Flags: W
LayerCount: 2
Fore
SplineSet
521 222 m 1,0,1
 312 160 312 160 81 45 c 1,2,-1
 55 112 l 1,3,-1
 60 122 l 1,4,-1
 409 250 l 1,5,-1
 409 254 l 1,6,-1
 60 383 l 1,7,-1
 55 393 l 1,8,-1
 79 459 l 1,9,10
 195 400 195 400 323 351.5 c 128,-1,11
 451 303 451 303 507 286 c 1,12,-1
 521 222 l 1,0,1
EndSplineSet
EndChar

StartChar: question
Encoding: 63 63 35
Width: 351
GlyphClass: 2
Flags: W
LayerCount: 2
Fore
SplineSet
261 85 m 1,0,1
 250 63 250 63 220 32 c 128,-1,2
 190 1 190 1 167 -15 c 1,3,4
 144 0 144 0 114 31.5 c 128,-1,5
 84 63 84 63 72 85 c 1,6,7
 85 106 85 106 112.5 130 c 128,-1,8
 140 154 140 154 167 166 c 1,9,10
 191 153 191 153 219 129.5 c 128,-1,11
 247 106 247 106 261 85 c 1,0,1
205 575 m 0,12,13
 205 637 205 637 147 637 c 0,14,15
 126 637 126 637 105 629 c 1,16,17
 97 607 97 607 97 579.5 c 128,-1,18
 97 552 97 552 108 542 c 1,19,-1
 107 535 l 1,20,21
 54 516 54 516 19 485 c 1,22,23
 -7 487 -7 487 -7 514 c 0,24,25
 -7 575 -7 575 55.5 635.5 c 128,-1,26
 118 696 118 696 185 711 c 1,27,28
 271 711 271 711 326 670 c 128,-1,29
 381 629 381 629 381 552 c 1,30,31
 326 478 326 478 210 392 c 1,32,33
 192 282 192 282 188 249 c 1,34,-1
 140 244 l 1,35,-1
 118 374 l 1,36,-1
 118 393 l 1,37,38
 205 465 205 465 205 575 c 0,12,13
EndSplineSet
EndChar

StartChar: at
Encoding: 64 64 36
Width: 860
GlyphClass: 2
Flags: W
LayerCount: 2
Fore
SplineSet
462 169 m 1,0,1
 446 173 446 173 412.5 173 c 128,-1,2
 379 173 379 173 353 169 c 1,3,4
 342 102 342 102 342 76 c 0,5,6
 342 29 342 29 376 13 c 1,7,-1
 372 -6 l 1,8,9
 343 1 343 1 280.5 1 c 128,-1,10
 218 1 218 1 169 -8 c 1,11,-1
 165 18 l 1,12,13
 178 25 178 25 208 34 c 1,14,-1
 329 460 l 1,15,16
 294 474 294 474 283 481 c 1,17,-1
 290 506 l 1,18,19
 340 497 340 497 463.5 497 c 128,-1,20
 587 497 587 497 654 507 c 1,21,-1
 655 482 l 1,22,23
 634 472 634 472 611 469 c 1,24,25
 602 388 602 388 602 252 c 128,-1,26
 602 116 602 116 616 55 c 1,27,28
 675 96 675 96 705 174.5 c 128,-1,29
 735 253 735 253 735 336 c 0,30,31
 735 634 735 634 430 634 c 0,32,33
 323 634 323 634 251 585 c 1,34,35
 176 505 176 505 132.5 396 c 128,-1,36
 89 287 89 287 89 178 c 0,37,38
 89 26 89 26 162 -57 c 128,-1,39
 235 -140 235 -140 381 -140 c 0,40,41
 443 -140 443 -140 500 -118 c 1,42,-1
 507 -131 l 1,43,44
 447 -173 447 -173 373 -190 c 1,45,46
 193 -190 193 -190 98 -102.5 c 128,-1,47
 3 -15 3 -15 3 161 c 0,48,49
 3 363 3 363 126 509.5 c 128,-1,50
 249 656 249 656 446 684 c 1,51,52
 617 684 617 684 718 606 c 128,-1,53
 819 528 819 528 819 377.5 c 128,-1,54
 819 227 819 227 733.5 113.5 c 128,-1,55
 648 0 648 0 514 -15 c 1,56,57
 462 4 462 4 462 169 c 1,0,1
463 255 m 2,58,59
 463 390 463 390 455 443 c 1,60,61
 444 447 444 447 428 447 c 128,-1,62
 412 447 412 447 401 443 c 1,63,-1
 363 234 l 1,64,65
 382 231 382 231 411 231 c 128,-1,66
 440 231 440 231 463 234 c 1,67,-1
 463 255 l 2,58,59
EndSplineSet
EndChar

StartChar: A
Encoding: 65 65 37
Width: 677
GlyphClass: 2
Flags: W
LayerCount: 2
Fore
SplineSet
591 677 m 1,0,1
 567 550 567 550 567 339.5 c 128,-1,2
 567 129 567 129 581 34 c 1,3,4
 620 27 620 27 641 17 c 1,5,-1
 638 -9 l 1,6,7
 566 0 566 0 481.5 0 c 128,-1,8
 397 0 397 0 337 -9 c 1,9,-1
 333 18 l 1,10,11
 355 30 355 30 389 37 c 1,12,13
 397 101 397 101 401 230 c 1,14,15
 374 234 374 234 326.5 234 c 128,-1,16
 279 234 279 234 246 229 c 1,17,18
 231 132 231 132 231 96 c 128,-1,19
 231 60 231 60 239.5 39.5 c 128,-1,20
 248 19 248 19 273 9 c 1,21,-1
 270 -7 l 1,22,23
 216 0 216 0 141.5 0 c 128,-1,24
 67 0 67 0 13 -9 c 1,25,-1
 9 18 l 1,26,27
 29 29 29 29 65 37 c 1,28,-1
 211 582 l 1,29,30
 123 582 123 582 101 560 c 1,31,32
 92 535 92 535 92 508.5 c 128,-1,33
 92 482 92 482 107 473 c 1,34,-1
 106 466 l 1,35,36
 59 447 59 447 25 416 c 1,37,38
 -1 418 -1 418 -1 445 c 0,39,40
 -1 510 -1 510 60.5 576.5 c 128,-1,41
 122 643 122 643 192 666 c 1,42,43
 345 641 345 641 535 625 c 1,44,45
 554 645 554 645 566 684 c 1,46,-1
 591 677 l 1,0,1
402 326 m 2,47,48
 402 460 402 460 395 567 c 1,49,-1
 392 570 l 1,50,51
 357 576 357 576 304 576 c 1,52,-1
 256 301 l 1,53,54
 292 297 292 297 333.5 297 c 128,-1,55
 375 297 375 297 402 301 c 1,56,-1
 402 326 l 2,47,48
EndSplineSet
EndChar

StartChar: B
Encoding: 66 66 38
Width: 638
GlyphClass: 2
Flags: W
LayerCount: 2
Fore
SplineSet
71 658 m 1,0,1
 175 651 175 651 288.5 651 c 128,-1,2
 402 651 402 651 422.5 650.5 c 128,-1,3
 443 650 443 650 475 647 c 128,-1,4
 507 644 507 644 522.5 636.5 c 128,-1,5
 538 629 538 629 556 616 c 0,6,7
 587 593 587 593 587 537.5 c 128,-1,8
 587 482 587 482 551 437.5 c 128,-1,9
 515 393 515 393 462 370 c 1,10,-1
 462 362 l 1,11,12
 531 362 531 362 571.5 330.5 c 128,-1,13
 612 299 612 299 612 237 c 0,14,15
 612 155 612 155 514 78 c 128,-1,16
 416 1 416 1 320 -15 c 1,17,18
 239 -15 239 -15 134 25 c 1,19,20
 120 8 120 8 109 -23 c 1,21,-1
 84 -17 l 1,22,23
 112 110 112 110 112 285 c 128,-1,24
 112 460 112 460 102 583 c 1,25,26
 21 580 21 580 2 561 c 1,27,28
 -7 536 -7 536 -7 509.5 c 128,-1,29
 -7 483 -7 483 8 474 c 1,30,-1
 7 467 l 1,31,32
 -40 448 -40 448 -74 417 c 1,33,34
 -100 419 -100 419 -100 446 c 0,35,36
 -100 506 -100 506 -46.5 568 c 128,-1,37
 7 630 7 630 71 658 c 1,0,1
333 380 m 2,38,39
 372 380 372 380 390 393 c 1,40,41
 412 435 412 435 412 489.5 c 128,-1,42
 412 544 412 544 393 565 c 128,-1,43
 374 586 374 586 327 586 c 0,44,45
 304 586 304 586 285 583 c 1,46,47
 277 502 277 502 277 355.5 c 128,-1,48
 277 209 277 209 284 92 c 1,49,50
 315 69 315 69 358.5 69 c 128,-1,51
 402 69 402 69 420 82 c 1,52,53
 435 129 435 129 435 199 c 128,-1,54
 435 269 435 269 409.5 303.5 c 128,-1,55
 384 338 384 338 314 338 c 1,56,-1
 319 380 l 1,57,-1
 333 380 l 2,38,39
EndSplineSet
EndChar

StartChar: C
Encoding: 67 67 39
Width: 534
GlyphClass: 2
Flags: W
LayerCount: 2
Fore
SplineSet
273 26 m 0,0,1
 303 -1 303 -1 347.5 -1 c 128,-1,2
 392 -1 392 -1 426.5 15.5 c 128,-1,3
 461 32 461 32 501 68 c 1,4,-1
 516 53 l 1,5,6
 447 -64 447 -64 318 -115 c 1,7,8
 180 -115 180 -115 105 -32.5 c 128,-1,9
 30 50 30 50 30 208.5 c 128,-1,10
 30 367 30 367 117 488.5 c 128,-1,11
 204 610 204 610 346 666 c 1,12,13
 450 666 450 666 555 647 c 1,14,-1
 554 623 l 1,15,16
 528 623 528 623 505 614 c 1,17,18
 476 535 476 535 476 456 c 1,19,-1
 449 456 l 1,20,21
 439 494 439 494 437 540 c 1,22,23
 392 582 392 582 321 582 c 0,24,25
 274 582 274 582 252 562 c 1,26,27
 209 451 209 451 209 298 c 0,28,29
 209 82 209 82 273 26 c 0,0,1
EndSplineSet
EndChar

StartChar: D
Encoding: 68 68 40
Width: 681
GlyphClass: 2
Flags: W
LayerCount: 2
Fore
SplineSet
374 651 m 0,0,1
 514 651 514 651 582.5 587 c 128,-1,2
 651 523 651 523 651 380 c 128,-1,3
 651 237 651 237 561 124.5 c 128,-1,4
 471 12 471 12 327 -15 c 1,5,6
 248 -15 248 -15 134 25 c 1,7,8
 120 8 120 8 109 -23 c 1,9,-1
 84 -17 l 1,10,11
 112 116 112 116 112 300.5 c 128,-1,12
 112 485 112 485 102 583 c 1,13,14
 21 580 21 580 2 561 c 1,15,16
 -7 536 -7 536 -7 509.5 c 128,-1,17
 -7 483 -7 483 8 474 c 1,18,-1
 7 467 l 1,19,20
 -40 448 -40 448 -74 417 c 1,21,22
 -100 419 -100 419 -100 446 c 0,23,24
 -100 506 -100 506 -46.5 568 c 128,-1,25
 7 630 7 630 71 658 c 1,26,27
 175 651 175 651 374 651 c 0,0,1
322 586 m 0,28,29
 303 586 303 586 285 583 c 1,30,31
 277 494 277 494 277 353.5 c 128,-1,32
 277 213 277 213 284 96 c 1,33,34
 322 69 322 69 365 69 c 128,-1,35
 408 69 408 69 435 86 c 1,36,37
 472 176 472 176 472 320 c 0,38,39
 472 586 472 586 322 586 c 0,28,29
EndSplineSet
EndChar

StartChar: E
Encoding: 69 69 41
Width: 532
GlyphClass: 2
Flags: W
LayerCount: 2
Fore
SplineSet
26 177 m 0,0,1
 26 250 26 250 83.5 297 c 128,-1,2
 141 344 141 344 219 344 c 1,3,-1
 219 353 l 1,4,5
 148 360 148 360 104.5 394.5 c 128,-1,6
 61 429 61 429 60 492 c 1,7,8
 152 607 152 607 323 666 c 1,9,10
 404 666 404 666 464 646 c 1,11,12
 470 650 470 650 505 682 c 1,13,-1
 528 667 l 1,14,15
 493 617 493 617 475 568.5 c 128,-1,16
 457 520 457 520 448 453 c 1,17,-1
 420 453 l 1,18,19
 420 506 420 506 414 540 c 1,20,21
 369 582 369 582 299 582 c 0,22,23
 255 582 255 582 229 562 c 1,24,25
 228 548 228 548 228 536 c 0,26,27
 228 376 228 376 402 376 c 1,28,-1
 397 333 l 1,29,-1
 385 333 l 2,30,31
 307 333 307 333 256.5 305.5 c 128,-1,32
 206 278 206 278 206 215.5 c 128,-1,33
 206 153 206 153 240 118 c 128,-1,34
 274 83 274 83 335 83 c 0,35,36
 375 83 375 83 399 94 c 1,37,38
 407 116 407 116 407 143.5 c 128,-1,39
 407 171 407 171 396 181 c 1,40,-1
 397 188 l 1,41,42
 450 207 450 207 485 238 c 1,43,44
 511 236 511 236 511 209 c 0,45,46
 511 138 511 138 451.5 73 c 128,-1,47
 392 8 392 8 318 -15 c 1,48,49
 201 -15 201 -15 118 26 c 1,50,51
 76 48 76 48 51 86.5 c 128,-1,52
 26 125 26 125 26 177 c 0,0,1
EndSplineSet
EndChar

StartChar: F
Encoding: 70 70 42
Width: 507
GlyphClass: 2
Flags: W
LayerCount: 2
Fore
SplineSet
250.5 655.5 m 128,-1,1
 355 645 355 645 419 645 c 128,-1,2
 483 645 483 645 509 672 c 1,3,-1
 528 662 l 1,4,5
 485 584 485 584 478 480 c 1,6,-1
 453 480 l 1,7,8
 441 525 441 525 441 576 c 1,9,10
 414 568 414 568 373.5 568 c 128,-1,11
 333 568 333 568 285 576 c 1,12,13
 277 476 277 476 277 362 c 1,14,15
 296 358 296 358 319 358 c 0,16,17
 395 358 395 358 429 393 c 1,18,-1
 451 388 l 1,19,20
 438 349 438 349 438 308 c 128,-1,21
 438 267 438 267 448 219 c 1,22,-1
 423 215 l 1,23,24
 409 251 409 251 402 289 c 1,25,26
 371 294 371 294 332 294 c 128,-1,27
 293 294 293 294 277 292 c 1,28,29
 278 112 278 112 291 34 c 1,30,31
 330 27 330 27 351 17 c 1,32,-1
 348 -9 l 1,33,34
 276 0 276 0 191.5 0 c 128,-1,35
 107 0 107 0 47 -9 c 1,36,-1
 43 18 l 1,37,38
 65 30 65 30 99 37 c 1,39,40
 112 135 112 135 112 291.5 c 128,-1,41
 112 448 112 448 100 582 c 1,42,43
 21 579 21 579 2 560 c 1,44,45
 -7 535 -7 535 -7 508.5 c 128,-1,46
 -7 482 -7 482 8 473 c 1,47,-1
 7 466 l 1,48,49
 -40 447 -40 447 -74 416 c 1,50,51
 -100 418 -100 418 -100 445 c 0,52,53
 -100 510 -100 510 -38.5 576.5 c 128,-1,54
 23 643 23 643 93 666 c 1,55,0
 146 666 146 666 250.5 655.5 c 128,-1,1
EndSplineSet
EndChar

StartChar: G
Encoding: 71 71 43
Width: 576
GlyphClass: 2
Flags: W
LayerCount: 2
Fore
SplineSet
287 92 m 128,-1,1
 310 83 310 83 336.5 83 c 128,-1,2
 363 83 363 83 381 86 c 1,3,-1
 376 194 l 2,4,5
 374 228 374 228 367 261 c 1,6,7
 345 273 345 273 306 280 c 1,8,-1
 309 302 l 1,9,10
 331 299 331 299 366 299 c 128,-1,11
 401 299 401 299 455 312 c 128,-1,12
 509 325 509 325 546 350 c 1,13,-1
 561 333 l 1,14,15
 538 314 538 314 527 294 c 1,16,17
 513 152 513 152 505 -4 c 1,18,19
 473 -75 473 -75 405.5 -137 c 128,-1,20
 338 -199 338 -199 274 -199 c 0,21,22
 247 -199 247 -199 245 -173 c 1,23,24
 276 -139 276 -139 295 -92 c 1,25,-1
 302 -91 l 1,26,27
 311 -106 311 -106 337.5 -106 c 128,-1,28
 364 -106 364 -106 389 -97 c 1,29,30
 399 -73 399 -73 399 -33.5 c 128,-1,31
 399 6 399 6 394 24 c 1,32,-1
 394 25 l 1,33,34
 357 1 357 1 311 -15 c 1,35,36
 174 -15 174 -15 102 57 c 128,-1,37
 30 129 30 129 30 267.5 c 128,-1,38
 30 406 30 406 114 512 c 128,-1,39
 198 618 198 618 339 666 c 1,40,41
 449 666 449 666 562 642 c 1,42,-1
 561 618 l 1,43,44
 534 618 534 618 512 609 c 1,45,46
 483 530 483 530 483 451 c 1,47,-1
 456 451 l 1,48,49
 446 489 446 489 444 535 c 1,50,51
 420 556 420 556 383.5 569 c 128,-1,52
 347 582 347 582 307 582 c 128,-1,53
 267 582 267 582 245 565 c 1,54,55
 228 526 228 526 218.5 458 c 128,-1,56
 209 390 209 390 209 344 c 128,-1,57
 209 298 209 298 210 274 c 128,-1,58
 211 250 211 250 214.5 215.5 c 128,-1,59
 218 181 218 181 227 161 c 128,-1,60
 236 141 236 141 250 121 c 128,-1,0
 264 101 264 101 287 92 c 128,-1,1
EndSplineSet
EndChar

StartChar: H
Encoding: 72 72 44
Width: 744
GlyphClass: 2
Flags: W
LayerCount: 2
Fore
SplineSet
716 -9 m 1,0,1
 652 0 652 0 563.5 0 c 128,-1,2
 475 0 475 0 416 -9 c 1,3,-1
 412 18 l 1,4,5
 431 30 431 30 458 37 c 1,6,7
 468 139 468 139 469 315 c 1,8,9
 425 322 425 322 372 322 c 128,-1,10
 319 322 319 322 275 315 c 1,11,12
 276 113 276 113 288 34 c 1,13,14
 327 27 327 27 348 17 c 1,15,-1
 345 -9 l 1,16,17
 273 0 273 0 189 0 c 128,-1,18
 105 0 105 0 45 -9 c 1,19,-1
 41 18 l 1,20,21
 63 30 63 30 97 37 c 1,22,23
 110 135 110 135 110 305.5 c 128,-1,24
 110 476 110 476 102 582 c 1,25,26
 23 580 23 580 3 560 c 1,27,28
 -6 535 -6 535 -6 508.5 c 128,-1,29
 -6 482 -6 482 9 473 c 1,30,-1
 8 466 l 1,31,32
 -39 447 -39 447 -73 416 c 1,33,34
 -99 418 -99 418 -99 445 c 0,35,36
 -99 509 -99 509 -39.5 574 c 128,-1,37
 20 639 20 639 88 664 c 1,38,39
 101 664 101 664 158.5 657.5 c 128,-1,40
 216 651 216 651 258 651 c 128,-1,41
 300 651 300 651 342 660 c 1,42,-1
 346 633 l 1,43,44
 327 623 327 623 289 611 c 1,45,46
 278 539 278 539 275 394 c 1,47,48
 315 385 315 385 374.5 385 c 128,-1,49
 434 385 434 385 469 393 c 1,50,51
 466 549 466 549 458 633 c 1,52,53
 495 703 495 703 593 780.5 c 128,-1,54
 691 858 691 858 760 858 c 0,55,56
 787 858 787 858 789 832 c 1,57,58
 758 798 758 798 739 751 c 1,59,-1
 732 750 l 1,60,61
 723 765 723 765 696.5 765 c 128,-1,62
 670 765 670 765 645 756 c 1,63,64
 635 730 635 730 635 651 c 2,65,-1
 634 326 l 2,66,67
 634 119 634 119 649 34 c 1,68,69
 693 27 693 27 719 17 c 1,70,-1
 716 -9 l 1,0,1
EndSplineSet
EndChar

StartChar: I
Encoding: 73 73 45
Width: 385
GlyphClass: 2
Flags: W
LayerCount: 2
Fore
SplineSet
287 617 m 1,0,1
 275 540 275 540 275 334.5 c 128,-1,2
 275 129 275 129 289 34 c 1,3,4
 328 27 328 27 349 17 c 1,5,-1
 346 -9 l 1,6,7
 274 0 274 0 189.5 0 c 128,-1,8
 105 0 105 0 45 -9 c 1,9,-1
 41 18 l 1,10,11
 63 30 63 30 97 37 c 1,12,13
 110 135 110 135 110 319 c 128,-1,14
 110 503 110 503 95 614 c 1,15,16
 61 621 61 621 39 633 c 1,17,-1
 43 660 l 1,18,19
 103 651 103 651 187.5 651 c 128,-1,20
 272 651 272 651 344 660 c 1,21,-1
 347 634 l 1,22,23
 326 624 326 624 287 617 c 1,0,1
EndSplineSet
EndChar

StartChar: J
Encoding: 74 74 46
Width: 384
GlyphClass: 2
Flags: W
LayerCount: 2
Fore
SplineSet
157.5 657.5 m 128,-1,1
 215 651 215 651 257 651 c 128,-1,2
 299 651 299 651 341 660 c 1,3,-1
 345 633 l 1,4,5
 326 623 326 623 288 611 c 1,6,7
 274 507 274 507 274 320.5 c 128,-1,8
 274 134 274 134 287 37 c 1,9,10
 186 -92 186 -92 -13 -182 c 1,11,-1
 -30 -161 l 1,12,13
 50 -100 50 -100 79.5 -24.5 c 128,-1,14
 109 51 109 51 109 164 c 2,15,-1
 109 354 l 2,16,17
 109 476 109 476 101 582 c 1,18,19
 22 580 22 580 2 560 c 1,20,21
 -7 535 -7 535 -7 508.5 c 128,-1,22
 -7 482 -7 482 8 473 c 1,23,-1
 7 466 l 1,24,25
 -40 447 -40 447 -74 416 c 1,26,27
 -100 418 -100 418 -100 445 c 0,28,29
 -100 509 -100 509 -40.5 574 c 128,-1,30
 19 639 19 639 87 664 c 1,31,0
 100 664 100 664 157.5 657.5 c 128,-1,1
EndSplineSet
EndChar

StartChar: K
Encoding: 75 75 47
Width: 683
GlyphClass: 2
Flags: W
LayerCount: 2
Fore
SplineSet
417 551.5 m 128,-1,1
 423 573 423 573 423 599 c 128,-1,2
 423 625 423 625 401 642 c 1,3,-1
 404 658 l 1,4,5
 458 651 458 651 544.5 651 c 128,-1,6
 631 651 631 651 674 660 c 1,7,-1
 678 633 l 1,8,9
 658 622 658 622 622 614 c 1,10,-1
 439 427 l 1,11,-1
 647 32 l 2,12,13
 682 -35 682 -35 717 -60 c 1,14,15
 789 -52 789 -52 794 -20 c 1,16,-1
 802 -17 l 1,17,18
 837 -52 837 -52 880 -72 c 1,19,20
 883 -78 883 -78 883 -84 c 0,21,22
 883 -103 883 -103 854.5 -111 c 128,-1,23
 826 -119 826 -119 796 -119 c 0,24,25
 709 -119 709 -119 605.5 -78.5 c 128,-1,26
 502 -38 502 -38 428 20 c 1,27,28
 434 42 434 42 434 69 c 0,29,30
 434 123 434 123 402 201 c 2,31,-1
 347 334 l 1,32,-1
 277 262 l 1,33,34
 280 114 280 114 291 34 c 1,35,36
 330 27 330 27 351 17 c 1,37,-1
 348 -9 l 1,38,39
 276 0 276 0 191.5 0 c 128,-1,40
 107 0 107 0 47 -9 c 1,41,-1
 43 18 l 1,42,43
 65 30 65 30 99 37 c 1,44,45
 112 135 112 135 112 300 c 128,-1,46
 112 465 112 465 101 582 c 1,47,-1
 100 582 l 1,48,49
 21 579 21 579 2 560 c 1,50,51
 -7 535 -7 535 -7 508.5 c 128,-1,52
 -7 482 -7 482 8 473 c 1,53,-1
 7 466 l 1,54,55
 -40 447 -40 447 -74 416 c 1,56,57
 -100 418 -100 418 -100 445 c 0,58,59
 -100 509 -100 509 -40.5 574 c 128,-1,60
 19 639 19 639 87 664 c 1,61,62
 100 664 100 664 157.5 657.5 c 128,-1,63
 215 651 215 651 257 651 c 128,-1,64
 299 651 299 651 341 660 c 1,65,-1
 345 633 l 1,66,67
 326 623 326 623 288 611 c 1,68,69
 277 523 277 523 277 329 c 1,70,71
 343 416 343 416 377 473 c 128,-1,0
 411 530 411 530 417 551.5 c 128,-1,1
EndSplineSet
EndChar

StartChar: L
Encoding: 76 76 48
Width: 521
GlyphClass: 2
Flags: W
LayerCount: 2
Fore
SplineSet
82 -17 m 1,0,1
 110 116 110 116 110 309.5 c 128,-1,2
 110 503 110 503 95 614 c 1,3,4
 61 621 61 621 39 633 c 1,5,-1
 43 660 l 1,6,7
 103 651 103 651 187.5 651 c 128,-1,8
 272 651 272 651 344 660 c 1,9,-1
 347 634 l 1,10,11
 326 624 326 624 287 617 c 1,12,13
 275 540 275 540 275 345 c 128,-1,14
 275 150 275 150 283 70 c 1,15,16
 301 63 301 63 336 63 c 0,17,18
 398 63 398 63 433 88 c 1,19,20
 442 113 442 113 442 140 c 128,-1,21
 442 167 442 167 427 176 c 1,22,-1
 428 183 l 1,23,24
 475 202 475 202 509 233 c 1,25,26
 535 231 535 231 535 204 c 0,27,28
 535 140 535 140 475.5 75 c 128,-1,29
 416 10 416 10 348 -15 c 1,30,31
 246 -15 246 -15 132 25 c 1,32,33
 118 8 118 8 107 -23 c 1,34,-1
 82 -17 l 1,0,1
EndSplineSet
EndChar

StartChar: M
Encoding: 77 77 49
Width: 863
GlyphClass: 2
Flags: W
LayerCount: 2
Fore
SplineSet
216.5 657.5 m 128,-1,1
 274 651 274 651 318.5 651 c 128,-1,2
 363 651 363 651 396 659 c 1,3,-1
 399 641 l 1,4,5
 365 632 365 632 365 607 c 0,6,7
 365 588 365 588 390.5 476 c 128,-1,8
 416 364 416 364 434 283 c 2,9,-1
 440 255 l 1,10,-1
 450 258 l 1,11,12
 453 314 453 314 536 607 c 1,13,14
 536 632 536 632 510 640 c 1,15,-1
 513 657 l 1,16,17
 564 651 564 651 651 651 c 128,-1,18
 738 651 738 651 790 659 c 1,19,-1
 795 634 l 1,20,21
 775 623 775 623 748 616 c 1,22,23
 742 588 742 588 742 524.5 c 128,-1,24
 742 461 742 461 759 287.5 c 128,-1,25
 776 114 776 114 792 34 c 1,26,27
 836 27 836 27 862 17 c 1,28,-1
 859 -9 l 1,29,30
 795 0 795 0 710 0 c 128,-1,31
 625 0 625 0 566 -9 c 1,32,-1
 562 18 l 1,33,34
 581 30 581 30 608 37 c 1,35,36
 606 268 606 268 575 477 c 1,37,-1
 568 478 l 1,38,39
 509 295 509 295 494 226 c 128,-1,40
 479 157 479 157 479 105 c 1,41,42
 393 75 393 75 329 30 c 1,43,-1
 316 37 l 1,44,45
 317 48 317 48 317 70 c 0,46,47
 317 144 317 144 284 264 c 128,-1,48
 251 384 251 384 213 478 c 1,49,-1
 205 477 l 1,50,-1
 193 347 l 2,51,52
 183 236 183 236 183 109 c 0,53,54
 183 33 183 33 225 11 c 1,55,-1
 222 -5 l 1,56,57
 175 0 175 0 122 0 c 128,-1,58
 69 0 69 0 16 -8 c 1,59,-1
 12 19 l 1,60,61
 31 29 31 29 68 37 c 1,62,-1
 157 582 l 1,63,64
 71 579 71 579 52 560 c 1,65,66
 43 535 43 535 43 508.5 c 128,-1,67
 43 482 43 482 58 473 c 1,68,-1
 57 466 l 1,69,70
 10 447 10 447 -24 416 c 1,71,72
 -50 418 -50 418 -50 445 c 0,73,74
 -50 510 -50 510 13 575.5 c 128,-1,75
 76 641 76 641 146 664 c 1,76,0
 159 664 159 664 216.5 657.5 c 128,-1,1
EndSplineSet
EndChar

StartChar: N
Encoding: 78 78 50
Width: 706
GlyphClass: 2
Flags: W
LayerCount: 2
Fore
SplineSet
98 37 m 1,0,1
 111 135 111 135 111 285.5 c 128,-1,2
 111 436 111 436 99 582 c 1,3,4
 18 576 18 576 2 560 c 1,5,6
 -7 535 -7 535 -7 508.5 c 128,-1,7
 -7 482 -7 482 8 473 c 1,8,-1
 7 466 l 1,9,10
 -40 447 -40 447 -74 416 c 1,11,12
 -100 418 -100 418 -100 445 c 0,13,14
 -100 510 -100 510 -37 575.5 c 128,-1,15
 26 641 26 641 96 664 c 1,16,17
 109 664 109 664 166.5 657.5 c 128,-1,18
 224 651 224 651 263.5 651 c 128,-1,19
 303 651 303 651 336 659 c 1,20,-1
 339 641 l 1,21,22
 315 634 315 634 315 611 c 128,-1,23
 315 588 315 588 321 568 c 128,-1,24
 327 548 327 548 373 463 c 128,-1,25
 419 378 419 378 511 227 c 1,26,-1
 515 229 l 1,27,-1
 515 323 l 2,28,29
 515 495 515 495 498.5 559.5 c 128,-1,30
 482 624 482 624 422 639 c 1,31,-1
 425 660 l 1,32,33
 483 651 483 651 550.5 651 c 128,-1,34
 618 651 618 651 678 660 c 1,35,-1
 681 634 l 1,36,37
 655 624 655 624 611 617 c 1,38,39
 606 592 606 592 601 502.5 c 128,-1,40
 596 413 596 413 596 266 c 128,-1,41
 596 119 596 119 611 34 c 1,42,43
 649 28 649 28 681 17 c 1,44,-1
 678 -9 l 1,45,46
 616 0 616 0 551 0 c 128,-1,47
 486 0 486 0 434 -6 c 1,48,49
 434 37 434 37 392 121 c 128,-1,50
 350 205 350 205 196 461 c 1,51,-1
 192 459 l 1,52,-1
 192 382 l 2,53,54
 192 227 192 227 203 146.5 c 128,-1,55
 214 66 214 66 251 34 c 1,56,57
 290 27 290 27 311 17 c 1,58,-1
 308 -9 l 1,59,60
 225 0 225 0 165.5 0 c 128,-1,61
 106 0 106 0 46 -9 c 1,62,-1
 42 18 l 1,63,64
 64 30 64 30 98 37 c 1,0,1
EndSplineSet
EndChar

StartChar: O
Encoding: 79 79 51
Width: 658
GlyphClass: 2
Flags: W
LayerCount: 2
Fore
SplineSet
557 595.5 m 128,-1,1
 628 525 628 525 628 384.5 c 128,-1,2
 628 244 628 244 550 138.5 c 128,-1,3
 472 33 472 33 334 -15 c 1,4,5
 197 -15 197 -15 113.5 63 c 128,-1,6
 30 141 30 141 30 275 c 0,7,8
 30 378 30 378 78.5 461.5 c 128,-1,9
 127 545 127 545 217 598 c 1,10,-1
 236 587 l 1,11,12
 209 487 209 487 209 349 c 0,13,14
 209 247 209 247 237 165 c 0,15,16
 252 121 252 121 282.5 95 c 128,-1,17
 313 69 313 69 350 69 c 128,-1,18
 387 69 387 69 412 86 c 1,19,20
 449 171 449 171 449 310 c 0,21,22
 449 582 449 582 344 582 c 0,23,24
 316 582 316 582 310 561 c 1,25,26
 329 491 329 491 362 491 c 1,27,-1
 364 485 l 1,28,29
 335 446 335 446 322 399 c 1,30,31
 315 395 315 395 308 395 c 0,32,33
 287 395 287 395 274.5 428.5 c 128,-1,34
 262 462 262 462 262 493 c 0,35,36
 262 615 262 615 348 666 c 1,37,0
 486 666 486 666 557 595.5 c 128,-1,1
EndSplineSet
EndChar

StartChar: P
Encoding: 80 80 52
Width: 571
GlyphClass: 2
Flags: W
LayerCount: 2
Fore
SplineSet
287 583 m 1,0,1
 279 466 279 466 279 297.5 c 128,-1,2
 279 129 279 129 293 34 c 1,3,4
 332 27 332 27 353 17 c 1,5,-1
 350 -9 l 1,6,7
 278 0 278 0 193.5 0 c 128,-1,8
 109 0 109 0 49 -9 c 1,9,-1
 45 18 l 1,10,11
 67 30 67 30 101 37 c 1,12,13
 114 135 114 135 114 293 c 128,-1,14
 114 451 114 451 102 583 c 1,15,16
 21 580 21 580 2 561 c 1,17,18
 -7 536 -7 536 -7 509.5 c 128,-1,19
 -7 483 -7 483 8 474 c 1,20,-1
 7 467 l 1,21,22
 -40 448 -40 448 -74 417 c 1,23,24
 -100 419 -100 419 -100 446 c 0,25,26
 -100 506 -100 506 -46.5 568 c 128,-1,27
 7 630 7 630 71 658 c 1,28,29
 177 651 177 651 254 651 c 128,-1,30
 331 651 331 651 369 651 c 128,-1,31
 407 651 407 651 440 648 c 128,-1,32
 473 645 473 645 504 635 c 128,-1,33
 535 625 535 625 554 607 c 0,34,35
 595 568 595 568 595 481 c 128,-1,36
 595 394 595 394 519 334 c 128,-1,37
 443 274 443 274 343 274 c 0,38,39
 325 274 325 274 317 275 c 1,40,-1
 321 321 l 1,41,-1
 333 321 l 2,42,43
 415 321 415 321 415 463 c 0,44,45
 415 522 415 522 395.5 554 c 128,-1,46
 376 586 376 586 326 586 c 0,47,48
 304 586 304 586 287 583 c 1,0,1
EndSplineSet
EndChar

StartChar: Q
Encoding: 81 81 53
Width: 646
GlyphClass: 2
Flags: W
LayerCount: 2
Fore
SplineSet
298 -130 m 128,-1,1
 224 -97 224 -97 160.5 -97 c 128,-1,2
 97 -97 97 -97 54 -133 c 1,3,-1
 36 -117 l 1,4,5
 72 -74 72 -74 130 -38.5 c 128,-1,6
 188 -3 188 -3 246 14 c 1,7,8
 266 11 266 11 290 5 c 1,9,-1
 288 6 l 1,10,11
 329 9 329 9 360 40 c 128,-1,12
 391 71 391 71 408 118 c 0,13,14
 441 211 441 211 441 310 c 0,15,16
 441 422 441 422 418 493 c 0,17,18
 389 582 389 582 297 582 c 0,19,20
 264 582 264 582 241 566 c 1,21,22
 206 481 206 481 206 367 c 0,23,24
 206 290 206 290 222 242 c 0,25,26
 251 150 251 150 311 150 c 0,27,28
 339 150 339 150 345 171 c 1,29,30
 326 241 326 241 293 241 c 1,31,-1
 291 247 l 1,32,33
 320 286 320 286 333 333 c 1,34,35
 340 337 340 337 347 337 c 0,36,37
 368 337 368 337 380.5 303.5 c 128,-1,38
 393 270 393 270 393 239 c 0,39,40
 393 117 393 117 307 66 c 1,41,42
 292 65 292 65 278 65 c 0,43,44
 177 65 177 65 108 116 c 0,45,46
 30 174 30 174 30 294.5 c 128,-1,47
 30 415 30 415 116 518.5 c 128,-1,48
 202 622 202 622 332 666 c 1,49,50
 471 666 471 666 543.5 595.5 c 128,-1,51
 616 525 616 525 616 387 c 0,52,53
 616 308 616 308 593 239 c 128,-1,54
 570 170 570 170 530 120 c 0,55,56
 460 32 460 32 364 -22 c 1,57,58
 384 -31 384 -31 449.5 -65 c 128,-1,59
 515 -99 515 -99 558 -113.5 c 128,-1,60
 601 -128 601 -128 644 -128 c 1,61,62
 681 -91 681 -91 681 -63 c 0,63,64
 681 -54 681 -54 677 -49 c 1,65,-1
 681 -41 l 1,66,67
 695 -42 695 -42 719.5 -42 c 128,-1,68
 744 -42 744 -42 776 -33 c 1,69,70
 790 -41 790 -41 790 -53 c 0,71,72
 790 -102 790 -102 690.5 -159.5 c 128,-1,73
 591 -217 591 -217 471 -241 c 1,74,-1
 430 -208 l 1,75,0
 372 -163 372 -163 298 -130 c 128,-1,1
EndSplineSet
EndChar

StartChar: R
Encoding: 82 82 54
Width: 658
GlyphClass: 2
Flags: W
LayerCount: 2
Fore
SplineSet
283 583 m 1,0,1
 275 466 275 466 275 297.5 c 128,-1,2
 275 129 275 129 289 34 c 1,3,4
 328 27 328 27 349 17 c 1,5,-1
 346 -9 l 1,6,7
 274 0 274 0 189.5 0 c 128,-1,8
 105 0 105 0 45 -9 c 1,9,-1
 41 18 l 1,10,11
 63 30 63 30 97 37 c 1,12,13
 110 135 110 135 110 293 c 128,-1,14
 110 451 110 451 98 583 c 1,15,16
 17 580 17 580 -2 561 c 1,17,18
 -11 536 -11 536 -11 509.5 c 128,-1,19
 -11 483 -11 483 4 474 c 1,20,-1
 3 467 l 1,21,22
 -44 448 -44 448 -78 417 c 1,23,24
 -104 419 -104 419 -104 446 c 0,25,26
 -104 506 -104 506 -50.5 568 c 128,-1,27
 3 630 3 630 67 658 c 1,28,29
 170 651 170 651 286.5 651 c 128,-1,30
 403 651 403 651 435 648 c 128,-1,31
 467 645 467 645 499 636 c 128,-1,32
 531 627 531 627 550 610 c 0,33,34
 592 572 592 572 592 494 c 0,35,36
 592 441 592 441 561.5 398.5 c 128,-1,37
 531 356 531 356 479 329 c 1,38,-1
 623 37 l 1,39,40
 659 29 659 29 679 18 c 1,41,-1
 675 -9 l 1,42,43
 626 0 626 0 545.5 0 c 128,-1,44
 465 0 465 0 408 -5 c 1,45,-1
 405 13 l 1,46,47
 423 31 423 31 423 77 c 0,48,49
 423 145 423 145 363 304 c 1,50,51
 339 308 339 308 313 308 c 1,52,-1
 317 349 l 1,53,-1
 328 349 l 2,54,55
 370 349 370 349 390 385 c 128,-1,56
 410 421 410 421 410 474.5 c 128,-1,57
 410 528 410 528 390.5 557 c 128,-1,58
 371 586 371 586 322 586 c 0,59,60
 300 586 300 586 283 583 c 1,0,1
EndSplineSet
EndChar

StartChar: S
Encoding: 83 83 55
Width: 478
GlyphClass: 2
Flags: W
LayerCount: 2
Fore
SplineSet
7 -45 m 0,0,1
 7 52 7 52 57.5 126.5 c 128,-1,2
 108 201 108 201 156 201 c 0,3,4
 171 201 171 201 179 184 c 1,5,6
 162 142 162 142 160 92 c 1,7,-1
 153 88 l 1,8,9
 147 94 147 94 137 94 c 0,10,11
 101 94 101 94 69 64 c 1,12,13
 66 56 66 56 66 48 c 0,14,15
 66 14 66 14 116.5 -10 c 128,-1,16
 167 -34 167 -34 222 -34 c 0,17,18
 321 -34 321 -34 321 60 c 0,19,20
 321 91 321 91 293.5 126 c 128,-1,21
 266 161 266 161 227 191.5 c 128,-1,22
 188 222 188 222 149 252 c 0,23,24
 55 324 55 324 55 367 c 0,25,26
 55 466 55 466 126 548.5 c 128,-1,27
 197 631 197 631 291 666 c 1,28,29
 385 666 385 666 464 644 c 1,30,-1
 464 624 l 1,31,32
 438 600 438 600 423.5 553.5 c 128,-1,33
 409 507 409 507 406 460 c 1,34,-1
 379 460 l 1,35,36
 379 510 379 510 373 542 c 1,37,38
 328 581 328 581 265 581 c 0,39,40
 231 581 231 581 206.5 562.5 c 128,-1,41
 182 544 182 544 182 511 c 128,-1,42
 182 478 182 478 210.5 443.5 c 128,-1,43
 239 409 239 409 279.5 379 c 128,-1,44
 320 349 320 349 360 320 c 0,45,46
 457 248 457 248 457 205 c 0,47,48
 457 117 457 117 373.5 2.5 c 128,-1,49
 290 -112 290 -112 212 -145 c 1,50,51
 97 -145 97 -145 11 -93 c 1,52,53
 7 -74 7 -74 7 -45 c 0,0,1
EndSplineSet
EndChar

StartChar: T
Encoding: 84 84 56
Width: 485
GlyphClass: 2
Flags: W
LayerCount: 2
Fore
SplineSet
222.5 658.5 m 128,-1,1
 323 651 323 651 376 651 c 128,-1,2
 429 651 429 651 465 660 c 1,3,4
 484 673 484 673 498 695 c 1,5,-1
 523 681 l 1,6,7
 483 626 483 626 460 533 c 1,8,-1
 431 545 l 2,9,10
 382 566 382 566 317 572 c 1,11,12
 310 474 310 474 310 301.5 c 128,-1,13
 310 129 310 129 324 34 c 1,14,15
 363 27 363 27 384 17 c 1,16,-1
 381 -9 l 1,17,18
 309 0 309 0 224.5 0 c 128,-1,19
 140 0 140 0 80 -9 c 1,20,-1
 76 18 l 1,21,22
 98 30 98 30 132 37 c 1,23,24
 145 135 145 135 145 295.5 c 128,-1,25
 145 456 145 456 134 581 c 1,26,27
 115 588 115 588 75.5 588 c 128,-1,28
 36 588 36 588 2 569 c 1,29,30
 -7 544 -7 544 -7 517.5 c 128,-1,31
 -7 491 -7 491 8 482 c 1,32,-1
 7 475 l 1,33,34
 -40 456 -40 456 -74 425 c 1,35,36
 -100 427 -100 427 -100 454 c 0,37,38
 -100 514 -100 514 -46.5 576 c 128,-1,39
 7 638 7 638 71 666 c 1,40,0
 122 666 122 666 222.5 658.5 c 128,-1,1
EndSplineSet
EndChar

StartChar: U
Encoding: 85 85 57
Width: 715
GlyphClass: 2
Flags: W
LayerCount: 2
Fore
SplineSet
2 560 m 1,0,1
 -7 535 -7 535 -7 508.5 c 128,-1,2
 -7 482 -7 482 8 473 c 1,3,-1
 7 466 l 1,4,5
 -40 447 -40 447 -74 416 c 1,6,7
 -100 418 -100 418 -100 445 c 0,8,9
 -100 510 -100 510 -37 575.5 c 128,-1,10
 26 641 26 641 96 664 c 1,11,12
 110 664 110 664 159.5 657.5 c 128,-1,13
 209 651 209 651 246.5 651 c 128,-1,14
 284 651 284 651 309 659 c 1,15,-1
 312 641 l 1,16,17
 288 628 288 628 279 608 c 128,-1,18
 270 588 270 588 263 502.5 c 128,-1,19
 256 417 256 417 256 329.5 c 128,-1,20
 256 242 256 242 256.5 225 c 128,-1,21
 257 208 257 208 259.5 181 c 128,-1,22
 262 154 262 154 267.5 140 c 128,-1,23
 273 126 273 126 283 111 c 0,24,25
 302 83 302 83 347.5 83 c 128,-1,26
 393 83 393 83 437 117 c 1,27,28
 440 161 440 161 440 332 c 128,-1,29
 440 503 440 503 425 614 c 1,30,31
 391 621 391 621 369 633 c 1,32,-1
 373 660 l 1,33,34
 433 651 433 651 517.5 651 c 128,-1,35
 602 651 602 651 674 660 c 1,36,-1
 677 634 l 1,37,38
 656 624 656 624 617 617 c 1,39,40
 605 540 605 540 605 334.5 c 128,-1,41
 605 129 605 129 619 34 c 1,42,43
 658 27 658 27 679 17 c 1,44,-1
 676 -9 l 1,45,46
 604 0 604 0 544.5 0 c 128,-1,47
 485 0 485 0 425 -9 c 1,48,-1
 421 9 l 1,49,50
 430 23 430 23 434 66 c 1,51,52
 383 17 383 17 303 -15 c 1,53,54
 180 -15 180 -15 133 46 c 128,-1,55
 86 107 86 107 86 241 c 0,56,57
 86 298 86 298 93 422 c 128,-1,58
 100 546 100 546 100 560 c 128,-1,59
 100 574 100 574 99 582 c 1,60,61
 18 576 18 576 2 560 c 1,0,1
EndSplineSet
EndChar

StartChar: V
Encoding: 86 86 58
Width: 654
GlyphClass: 2
Flags: W
LayerCount: 2
Fore
SplineSet
498 -9 m 1,0,1
 438 0 438 0 345.5 0 c 128,-1,2
 253 0 253 0 194 -5 c 1,3,-1
 191 11 l 1,4,5
 225 20 225 20 225 41 c 0,6,7
 225 111 225 111 117 529 c 0,8,9
 107 565 107 565 100 582 c 1,10,11
 21 579 21 579 2 560 c 1,12,13
 -7 535 -7 535 -7 508.5 c 128,-1,14
 -7 482 -7 482 8 473 c 1,15,-1
 7 466 l 1,16,17
 -40 447 -40 447 -74 416 c 1,18,19
 -100 418 -100 418 -100 445 c 0,20,21
 -100 509 -100 509 -40.5 574 c 128,-1,22
 19 639 19 639 87 664 c 1,23,24
 100 664 100 664 157.5 657.5 c 128,-1,25
 215 651 215 651 257 651 c 128,-1,26
 299 651 299 651 341 660 c 1,27,-1
 345 633 l 1,28,29
 326 623 326 623 288 611 c 1,30,31
 309 397 309 397 395 79 c 1,32,33
 473 379 473 379 473 518 c 0,34,35
 473 612 473 612 414 639 c 1,36,-1
 417 659 l 1,37,38
 486 651 486 651 548.5 651 c 128,-1,39
 611 651 611 651 671 660 c 1,40,-1
 675 633 l 1,41,42
 654 625 654 625 619 617 c 1,43,44
 637 581 637 581 637 516.5 c 128,-1,45
 637 452 637 452 594 346.5 c 128,-1,46
 551 241 551 241 435 32 c 1,47,48
 479 22 479 22 502 15 c 1,49,-1
 498 -9 l 1,0,1
EndSplineSet
EndChar

StartChar: W
Encoding: 87 87 59
Width: 969
GlyphClass: 2
Flags: W
LayerCount: 2
Fore
SplineSet
819 -9 m 1,0,1
 759 0 759 0 672 0 c 128,-1,2
 585 0 585 0 522 -8 c 1,3,-1
 519 8 l 1,4,5
 532 11 532 11 542.5 20 c 128,-1,6
 553 29 553 29 553 41 c 0,7,8
 553 102 553 102 516 267 c 1,9,10
 501 222 501 222 435 32 c 1,11,12
 453 20 453 20 482 15 c 1,13,-1
 478 -9 l 1,14,15
 418 0 418 0 335.5 0 c 128,-1,16
 253 0 253 0 194 -5 c 1,17,-1
 191 11 l 1,18,19
 225 20 225 20 225 41 c 0,20,21
 225 111 225 111 117 529 c 0,22,23
 107 565 107 565 100 582 c 1,24,25
 21 579 21 579 2 560 c 1,26,27
 -7 535 -7 535 -7 508.5 c 128,-1,28
 -7 482 -7 482 8 473 c 1,29,-1
 7 466 l 1,30,31
 -40 447 -40 447 -74 416 c 1,32,33
 -100 418 -100 418 -100 445 c 0,34,35
 -100 509 -100 509 -40.5 574 c 128,-1,36
 19 639 19 639 87 664 c 1,37,38
 97 664 97 664 132 660 c 0,39,40
 235 650 235 650 305 650 c 128,-1,41
 375 650 375 650 464.5 650 c 128,-1,42
 554 650 554 650 666 660 c 1,43,-1
 669 634 l 1,44,45
 641 623 641 623 609 616 c 1,46,47
 628 404 628 404 716 79 c 1,48,49
 788 387 788 387 788 518 c 0,50,51
 788 612 788 612 729 639 c 1,52,-1
 732 659 l 1,53,54
 801 651 801 651 863.5 651 c 128,-1,55
 926 651 926 651 986 660 c 1,56,-1
 990 633 l 1,57,58
 969 625 969 625 934 617 c 1,59,60
 952 581 952 581 952 517 c 128,-1,61
 952 453 952 453 910.5 348.5 c 128,-1,62
 869 244 869 244 756 32 c 1,63,64
 800 22 800 22 823 15 c 1,65,-1
 819 -9 l 1,0,1
452.5 596 m 128,-1,67
 438 618 438 618 388.5 618 c 128,-1,68
 339 618 339 618 289 605 c 1,69,70
 307 404 307 404 395 79 c 1,71,72
 467 387 467 387 467 518 c 0,73,66
 467 574 467 574 452.5 596 c 128,-1,67
EndSplineSet
EndChar

StartChar: X
Encoding: 88 88 60
Width: 647
GlyphClass: 2
Flags: W
LayerCount: 2
Fore
SplineSet
378 427 m 1,0,1
 438 553 438 553 438 591.5 c 128,-1,2
 438 630 438 630 415 642 c 1,3,-1
 419 658 l 1,4,5
 475 651 475 651 540.5 651 c 128,-1,6
 606 651 606 651 666 660 c 1,7,-1
 670 633 l 1,8,9
 643 620 643 620 614 614 c 1,10,11
 516 515 516 515 413 378 c 1,12,-1
 619 35 l 1,13,14
 655 27 655 27 675 18 c 1,15,-1
 671 -9 l 1,16,17
 611 0 611 0 531.5 0 c 128,-1,18
 452 0 452 0 404 -6 c 1,19,-1
 400 9 l 1,20,21
 404 17 404 17 404 44 c 0,22,23
 404 106 404 106 299 276 c 1,24,25
 237 110 237 110 237 35 c 1,26,27
 262 30 262 30 292 17 c 1,28,-1
 289 -9 l 1,29,30
 229 0 229 0 148 0 c 128,-1,31
 67 0 67 0 7 -9 c 1,32,-1
 2 17 l 1,33,34
 24 28 24 28 64 37 c 1,35,36
 193 229 193 229 263 327 c 1,37,-1
 100 582 l 1,38,39
 21 579 21 579 2 560 c 1,40,41
 -7 535 -7 535 -7 508.5 c 128,-1,42
 -7 482 -7 482 8 473 c 1,43,-1
 7 466 l 1,44,45
 -40 447 -40 447 -74 416 c 1,46,47
 -100 418 -100 418 -100 445 c 0,48,49
 -100 509 -100 509 -40.5 574 c 128,-1,50
 19 639 19 639 87 664 c 1,51,52
 100 664 100 664 164.5 657.5 c 128,-1,53
 229 651 229 651 274.5 651 c 128,-1,54
 320 651 320 651 362 660 c 1,55,-1
 366 633 l 1,56,57
 348 624 348 624 308 611 c 1,58,59
 308 576 308 576 321 537.5 c 128,-1,60
 334 499 334 499 378 427 c 1,0,1
EndSplineSet
EndChar

StartChar: Y
Encoding: 89 89 61
Width: 550
GlyphClass: 2
Flags: W
LayerCount: 2
Fore
SplineSet
198 275 m 2,0,-1
 198 300 l 1,1,-1
 36 622 l 1,2,3
 1 689 1 689 -34 714 c 1,4,5
 -106 706 -106 706 -111 674 c 1,6,-1
 -119 671 l 1,7,8
 -154 706 -154 706 -197 726 c 1,9,10
 -200 732 -200 732 -200 738 c 0,11,12
 -200 757 -200 757 -171.5 765 c 128,-1,13
 -143 773 -143 773 -113 773 c 0,14,15
 -26 773 -26 773 77.5 732.5 c 128,-1,16
 181 692 181 692 255 634 c 1,17,18
 249 612 249 612 249 585 c 0,19,20
 249 522 249 522 281 453 c 2,21,-1
 322 363 l 1,22,23
 364 488 364 488 375.5 531.5 c 128,-1,24
 387 575 387 575 387 603 c 128,-1,25
 387 631 387 631 365 642 c 1,26,-1
 368 658 l 1,27,28
 433 651 433 651 488.5 651 c 128,-1,29
 544 651 544 651 594 660 c 1,30,-1
 598 634 l 1,31,32
 574 621 574 621 540 614 c 1,33,-1
 364 328 l 1,34,35
 364 130 364 130 377 34 c 1,36,37
 420 25 420 25 437 17 c 1,38,-1
 434 -9 l 1,39,40
 370 0 370 0 281.5 0 c 128,-1,41
 193 0 193 0 133 -9 c 1,42,-1
 129 18 l 1,43,44
 150 29 150 29 186 37 c 1,45,46
 198 127 198 127 198 275 c 2,0,-1
EndSplineSet
EndChar

StartChar: Z
Encoding: 90 90 62
Width: 506
GlyphClass: 2
Flags: W
LayerCount: 2
Fore
SplineSet
82 0 m 0,0,1
 46 0 46 0 4 -23 c 1,2,-1
 -13 -6 l 1,3,4
 37 47 37 47 78 118 c 2,5,-1
 339 572 l 1,6,-1
 301 558 l 1,7,-1
 240 575 l 1,8,9
 185 588 185 588 164 588 c 0,10,11
 115 588 115 588 81 569 c 1,12,13
 72 544 72 544 72 517.5 c 128,-1,14
 72 491 72 491 87 482 c 1,15,-1
 86 475 l 1,16,17
 39 456 39 456 5 425 c 1,18,19
 -21 427 -21 427 -21 454 c 0,20,21
 -21 513 -21 513 39 578.5 c 128,-1,22
 99 644 99 644 164 672 c 1,23,24
 215 672 215 672 293.5 661.5 c 128,-1,25
 372 651 372 651 443 651 c 128,-1,26
 514 651 514 651 549 686 c 1,27,-1
 571 668 l 1,28,29
 550 646 550 646 533 624 c 1,30,31
 514 595 514 595 492 549 c 2,32,-1
 254 59 l 1,33,34
 296 41 296 41 350 -4 c 128,-1,35
 404 -49 404 -49 454.5 -80.5 c 128,-1,36
 505 -112 505 -112 560 -112 c 1,37,38
 598 -77 598 -77 598 -47 c 0,39,40
 598 -38 598 -38 592 -33 c 1,41,-1
 598 -25 l 1,42,43
 616 -28 616 -28 641.5 -28 c 128,-1,44
 667 -28 667 -28 691 -17 c 1,45,46
 706 -23 706 -23 706 -37 c 0,47,48
 706 -84 706 -84 608.5 -132.5 c 128,-1,49
 511 -181 511 -181 387 -205 c 1,50,-1
 356 -173 l 2,51,52
 188 0 188 0 82 0 c 0,0,1
EndSplineSet
EndChar

StartChar: bracketleft
Encoding: 91 91 63
Width: 326
GlyphClass: 2
Flags: W
LayerCount: 2
Fore
SplineSet
268 -196 m 0,0,1
 150 -196 150 -196 88 -211 c 1,2,-1
 81 -206 l 1,3,4
 91 -137 91 -137 91 248 c 128,-1,5
 91 633 91 633 81 702 c 1,6,-1
 88 707 l 1,7,8
 150 692 150 692 268 692 c 0,9,10
 281 692 281 692 296 692 c 1,11,-1
 296 671 l 1,12,13
 218 669 218 669 164 654 c 1,14,-1
 164 -158 l 1,15,16
 218 -173 218 -173 296 -175 c 1,17,-1
 296 -196 l 1,18,19
 281 -196 281 -196 268 -196 c 0,0,1
EndSplineSet
EndChar

StartChar: backslash
Encoding: 92 92 64
Width: 351
GlyphClass: 2
Flags: W
LayerCount: 2
Fore
SplineSet
275 -45 m 1,0,-1
 270 -45 l 1,1,-1
 92 478 l 2,2,3
 46 615 46 615 14 696 c 1,4,5
 15 696 15 696 41 704 c 128,-1,6
 67 712 67 712 76 717 c 1,7,-1
 80 717 l 1,8,9
 106 622 106 622 149 493 c 1,10,-1
 258 175 l 2,11,12
 290 82 290 82 330 -17 c 1,13,14
 324 -24 324 -24 275 -45 c 1,0,-1
EndSplineSet
EndChar

StartChar: bracketright
Encoding: 93 93 65
Width: 326
GlyphClass: 2
Flags: W
LayerCount: 2
Fore
SplineSet
58 692 m 0,0,1
 176 692 176 692 238 707 c 1,2,-1
 245 702 l 1,3,4
 235 633 235 633 235 248 c 128,-1,5
 235 -137 235 -137 245 -206 c 1,6,-1
 238 -211 l 1,7,8
 176 -196 176 -196 58 -196 c 0,9,10
 45 -196 45 -196 30 -196 c 1,11,-1
 30 -175 l 1,12,13
 108 -173 108 -173 162 -158 c 1,14,-1
 162 654 l 1,15,16
 108 669 108 669 30 671 c 1,17,-1
 30 692 l 1,18,19
 45 692 45 692 58 692 c 0,0,1
EndSplineSet
EndChar

StartChar: asciicircum
Encoding: 94 94 66
Width: 518
GlyphClass: 2
Flags: W
LayerCount: 2
Fore
SplineSet
259 550 m 1,0,-1
 79 278 l 1,1,-1
 45 296 l 1,2,3
 103 399 103 399 139.5 474 c 128,-1,4
 176 549 176 549 231 686 c 1,5,-1
 284 696 l 1,6,7
 341 556 341 556 379 475.5 c 128,-1,8
 417 395 417 395 473 296 c 1,9,-1
 439 278 l 1,10,-1
 259 550 l 1,0,-1
EndSplineSet
EndChar

StartChar: underscore
Encoding: 95 95 67
Width: 656
GlyphClass: 2
Flags: W
LayerCount: 2
Fore
SplineSet
15 -129 m 1,0,1
 185 -138 185 -138 394.5 -138 c 128,-1,2
 604 -138 604 -138 643 -135 c 1,3,-1
 649 -141 l 1,4,-1
 641 -195 l 1,5,-1
 15 -195 l 1,6,-1
 7 -188 l 1,7,-1
 15 -129 l 1,0,1
EndSplineSet
EndChar

StartChar: grave
Encoding: 96 96 68
Width: 272
GlyphClass: 2
Flags: W
LayerCount: 2
Fore
SplineSet
25 785 m 1,0,1
 31 787 31 787 47.5 787 c 128,-1,2
 64 787 64 787 73 784 c 1,3,4
 147 659 147 659 272 591 c 1,5,-1
 262 567 l 1,6,-1
 0 664 l 1,7,8
 1 691 1 691 8.5 730.5 c 128,-1,9
 16 770 16 770 25 785 c 1,0,1
EndSplineSet
EndChar

StartChar: a
Encoding: 97 97 69
Width: 568
GlyphClass: 2
Flags: W
LayerCount: 2
Fore
SplineSet
319 184 m 1,0,1
 300 190 300 190 256 190 c 128,-1,2
 212 190 212 190 190 185 c 1,3,4
 178 106 178 106 178 78 c 0,5,6
 178 25 178 25 213 9 c 1,7,-1
 210 -7 l 1,8,9
 178 0 178 0 110.5 0 c 128,-1,10
 43 0 43 0 -10 -9 c 1,11,-1
 -14 15 l 1,12,13
 4 24 4 24 33 32 c 1,14,-1
 165 504 l 1,15,16
 133 515 133 515 115 526 c 1,17,-1
 121 549 l 1,18,19
 189 540 189 540 322 540 c 128,-1,20
 455 540 455 540 527 550 c 1,21,-1
 529 528 l 1,22,23
 509 519 509 519 481 513 c 1,24,25
 471 440 471 440 471 276.5 c 128,-1,26
 471 113 471 113 483 29 c 1,27,28
 506 24 506 24 531 16 c 1,29,-1
 529 -7 l 1,30,31
 479 0 479 0 404.5 0 c 128,-1,32
 330 0 330 0 277 -8 c 1,33,-1
 273 16 l 1,34,35
 286 23 286 23 310 31 c 1,36,37
 317 98 317 98 319 184 c 1,0,1
320 274 m 2,38,39
 320 406 320 406 311 483 c 1,40,41
 299 489 299 489 278 489 c 128,-1,42
 257 489 257 489 242 484 c 1,43,-1
 199 252 l 1,44,45
 227 248 227 248 257.5 248 c 128,-1,46
 288 248 288 248 320 252 c 1,47,-1
 320 274 l 2,38,39
EndSplineSet
EndChar

StartChar: b
Encoding: 98 98 70
Width: 569
GlyphClass: 2
Flags: W
LayerCount: 2
Fore
SplineSet
45 536 m 1,0,-1
 307 544 l 1,1,2
 437 544 437 544 474 523 c 0,3,4
 491 513 491 513 504.5 493.5 c 128,-1,5
 518 474 518 474 518 438.5 c 128,-1,6
 518 403 518 403 482.5 365.5 c 128,-1,7
 447 328 447 328 400 308 c 1,8,-1
 400 301 l 1,9,10
 539 301 539 301 539 194 c 0,11,12
 539 148 539 148 495 101 c 128,-1,13
 451 54 451 54 392.5 24 c 128,-1,14
 334 -6 334 -6 282 -15 c 1,15,16
 249 -15 249 -15 197.5 -5 c 128,-1,17
 146 5 146 5 116 17 c 1,18,19
 103 1 103 1 95 -22 c 1,20,-1
 70 -16 l 1,21,22
 95 93 95 93 95 257 c 128,-1,23
 95 421 95 421 84 498 c 1,24,25
 69 507 69 507 45 513 c 1,26,-1
 45 536 l 1,0,-1
292 319 m 2,27,28
 322 319 322 319 340 330 c 1,29,30
 358 364 358 364 358 419 c 0,31,32
 358 503 358 503 287 503 c 0,33,34
 268 503 268 503 253 497 c 1,35,36
 246 429 246 429 246 289.5 c 128,-1,37
 246 150 246 150 250 77 c 1,38,39
 278 55 278 55 313 55 c 128,-1,40
 348 55 348 55 365 65 c 1,41,42
 377 106 377 106 377 163 c 128,-1,43
 377 220 377 220 356.5 249 c 128,-1,44
 336 278 336 278 277 278 c 1,45,-1
 281 319 l 1,46,-1
 292 319 l 2,27,28
EndSplineSet
EndChar

StartChar: c
Encoding: 99 99 71
Width: 454
GlyphClass: 2
Flags: W
LayerCount: 2
Fore
SplineSet
427 126 m 1,0,-1
 444 109 l 1,1,2
 372 17 372 17 278 -15 c 1,3,4
 161 -15 161 -15 94.5 46 c 128,-1,5
 28 107 28 107 28 223.5 c 128,-1,6
 28 340 28 340 104 433 c 128,-1,7
 180 526 180 526 300 555 c 1,8,9
 386 555 386 555 475 539 c 1,10,-1
 474 516 l 1,11,12
 457 516 457 516 436 508 c 1,13,14
 413 447 413 447 411 379 c 1,15,-1
 386 379 l 1,16,17
 377 414 377 414 375 450 c 1,18,19
 338 485 338 485 279 485 c 0,20,21
 240 485 240 485 222 471 c 1,22,23
 191 399 191 399 191 281 c 0,24,25
 191 156 191 156 218 116 c 1,26,27
 245 74 245 74 305 74 c 128,-1,28
 365 74 365 74 427 126 c 1,0,-1
EndSplineSet
EndChar

StartChar: d
Encoding: 100 100 72
Width: 600
GlyphClass: 2
Flags: W
LayerCount: 2
Fore
SplineSet
45 537 m 1,0,-1
 316 544 l 1,1,2
 443 544 443 544 507.5 490.5 c 128,-1,3
 572 437 572 437 572 316.5 c 128,-1,4
 572 196 572 196 491 102 c 128,-1,5
 410 8 410 8 288 -15 c 1,6,7
 210 -15 210 -15 113 18 c 1,8,9
 101 3 101 3 92 -22 c 1,10,-1
 72 -17 l 1,11,12
 95 95 95 95 95 258 c 128,-1,13
 95 421 95 421 84 498 c 1,14,15
 69 507 69 507 45 513 c 1,16,-1
 45 537 l 1,0,-1
284 496 m 0,17,18
 266 496 266 496 253 492 c 1,19,20
 247 407 247 407 247 288.5 c 128,-1,21
 247 170 247 170 252 77 c 1,22,23
 283 55 283 55 319 55 c 128,-1,24
 355 55 355 55 378 69 c 1,25,26
 409 144 409 144 409 262 c 0,27,28
 409 496 409 496 284 496 c 0,17,18
EndSplineSet
EndChar

StartChar: e
Encoding: 101 101 73
Width: 457
GlyphClass: 2
Flags: W
LayerCount: 2
Fore
SplineSet
302 74 m 0,0,1
 364 74 364 74 427 126 c 1,2,-1
 444 109 l 1,3,4
 368 16 368 16 276 -15 c 1,5,6
 160 -15 160 -15 94 45.5 c 128,-1,7
 28 106 28 106 28 223 c 128,-1,8
 28 340 28 340 103.5 433 c 128,-1,9
 179 526 179 526 299 555 c 1,10,11
 384 555 384 555 475 539 c 1,12,-1
 474 516 l 1,13,14
 457 516 457 516 436 508 c 1,15,16
 412 445 412 445 411 379 c 1,17,-1
 386 379 l 1,18,19
 377 414 377 414 375 450 c 1,20,21
 337 485 337 485 278 485 c 0,22,23
 242 485 242 485 221 471 c 1,24,25
 197 413 197 413 193 325 c 1,26,27
 226 314 226 314 276.5 314 c 128,-1,28
 327 314 327 314 358 345 c 1,29,-1
 379 339 l 1,30,31
 368 303 368 303 368 269 c 128,-1,32
 368 235 368 235 377 194 c 1,33,-1
 353 190 l 1,34,35
 343 213 343 213 335 251 c 1,36,37
 309 256 309 256 267.5 256 c 128,-1,38
 226 256 226 256 191 248 c 1,39,40
 191 195 191 195 198.5 160 c 128,-1,41
 206 125 206 125 231.5 99.5 c 128,-1,42
 257 74 257 74 302 74 c 0,0,1
EndSplineSet
EndChar

StartChar: f
Encoding: 102 102 74
Width: 444
GlyphClass: 2
Flags: W
LayerCount: 2
Fore
SplineSet
52 548 m 1,0,1
 105 540 105 540 234 540 c 128,-1,2
 363 540 363 540 445 552 c 1,3,-1
 451 531 l 1,4,5
 419 480 419 480 415 398 c 1,6,-1
 389 398 l 1,7,8
 381 435 381 435 381 467 c 1,9,10
 354 481 354 481 312 481 c 128,-1,11
 270 481 270 481 255 476 c 1,12,13
 248 378 248 378 248 303 c 1,14,15
 264 299 264 299 283 299 c 0,16,17
 346 299 346 299 375 330 c 1,18,-1
 396 324 l 1,19,20
 385 289 385 289 385 255.5 c 128,-1,21
 385 222 385 222 394 179 c 1,22,-1
 370 175 l 1,23,24
 359 201 359 201 352 236 c 1,25,26
 327 241 327 241 296.5 241 c 128,-1,27
 266 241 266 241 248 238 c 1,28,29
 249 99 249 99 260 29 c 1,30,31
 288 23 288 23 308 14 c 1,32,-1
 306 -8 l 1,33,34
 249 0 249 0 180 0 c 128,-1,35
 111 0 111 0 51 -9 c 1,36,-1
 48 15 l 1,37,38
 64 24 64 24 86 31 c 1,39,40
 97 100 97 100 97 259.5 c 128,-1,41
 97 419 97 419 85 509 c 1,42,43
 61 517 61 517 48 524 c 1,44,-1
 52 548 l 1,0,1
EndSplineSet
EndChar

StartChar: g
Encoding: 103 103 75
Width: 509
GlyphClass: 2
Flags: W
LayerCount: 2
Fore
SplineSet
250.5 86 m 128,-1,1
 272 74 272 74 296 74 c 128,-1,2
 320 74 320 74 335 77 c 1,3,-1
 331 160 l 2,4,5
 329 196 329 196 323 216 c 1,6,7
 305 226 305 226 272 232 c 1,8,-1
 274 253 l 1,9,10
 293 250 293 250 322.5 250 c 128,-1,11
 352 250 352 250 402.5 261.5 c 128,-1,12
 453 273 453 273 484 293 c 1,13,-1
 495 276 l 1,14,15
 476 260 476 260 467 244 c 1,16,17
 454 125 454 125 448 -6 c 1,18,-1
 427 -6 l 1,19,20
 414 40 414 40 405 59 c 1,21,22
 354 11 354 11 276 -15 c 1,23,24
 160 -15 160 -15 94 46 c 128,-1,25
 28 107 28 107 28 223.5 c 128,-1,26
 28 340 28 340 103.5 433 c 128,-1,27
 179 526 179 526 299 555 c 1,28,29
 399 555 399 555 493 535 c 1,30,-1
 492 512 l 1,31,32
 475 512 475 512 454 504 c 1,33,34
 429 436 429 436 429 375 c 1,35,-1
 404 375 l 1,36,37
 395 410 395 410 393 446 c 1,38,39
 351 485 351 485 282 485 c 0,40,41
 242 485 242 485 221 470 c 1,42,43
 208 438 208 438 199.5 380.5 c 128,-1,44
 191 323 191 323 191 283 c 128,-1,45
 191 243 191 243 192.5 218.5 c 128,-1,46
 194 194 194 194 200 163.5 c 128,-1,47
 206 133 206 133 217.5 115.5 c 128,-1,0
 229 98 229 98 250.5 86 c 128,-1,1
EndSplineSet
EndChar

StartChar: h
Encoding: 104 104 76
Width: 658
GlyphClass: 2
Flags: W
LayerCount: 2
Fore
SplineSet
409 265 m 1,0,1
 378 271 378 271 328.5 271 c 128,-1,2
 279 271 279 271 249 265 c 1,3,4
 249 111 249 111 260 34 c 1,5,6
 282 30 282 30 308 21 c 1,7,-1
 306 -2 l 1,8,9
 256 5 256 5 181.5 5 c 128,-1,10
 107 5 107 5 54 -3 c 1,11,-1
 50 21 l 1,12,13
 63 28 63 28 87 36 c 1,14,15
 97 119 97 119 97 271.5 c 128,-1,16
 97 424 97 424 85 514 c 1,17,18
 63 521 63 521 47 530 c 1,19,-1
 50 554 l 1,20,21
 110 545 110 545 178.5 545 c 128,-1,22
 247 545 247 545 304 553 c 1,23,-1
 306 531 l 1,24,25
 286 522 286 522 258 516 c 1,26,27
 249 469 249 469 249 337 c 1,28,29
 285 329 285 329 332 329 c 128,-1,30
 379 329 379 329 409 336 c 1,31,32
 408 448 408 448 400 514 c 1,33,34
 378 521 378 521 362 530 c 1,35,-1
 365 554 l 1,36,37
 425 545 425 545 494 545 c 128,-1,38
 563 545 563 545 620 553 c 1,39,-1
 622 531 l 1,40,41
 602 522 602 522 574 516 c 1,42,43
 561 443 561 443 561 275 c 128,-1,44
 561 107 561 107 574 34 c 1,45,46
 596 30 596 30 622 21 c 1,47,-1
 620 -2 l 1,48,49
 570 5 570 5 495 5 c 128,-1,50
 420 5 420 5 367 -3 c 1,51,-1
 363 21 l 1,52,53
 376 28 376 28 400 36 c 1,54,55
 408 103 408 103 409 265 c 1,0,1
EndSplineSet
EndChar

StartChar: i
Encoding: 105 105 77
Width: 345
GlyphClass: 2
Flags: W
LayerCount: 2
Fore
SplineSet
86 31 m 1,0,1
 97 100 97 100 97 258 c 128,-1,2
 97 416 97 416 85 509 c 1,3,4
 63 516 63 516 47 525 c 1,5,-1
 50 549 l 1,6,7
 110 540 110 540 179 540 c 128,-1,8
 248 540 248 540 305 548 c 1,9,-1
 307 526 l 1,10,11
 287 517 287 517 259 511 c 1,12,13
 248 437 248 437 248 275 c 128,-1,14
 248 113 248 113 260 29 c 1,15,16
 282 24 282 24 308 16 c 1,17,-1
 306 -7 l 1,18,19
 256 0 256 0 181 0 c 128,-1,20
 106 0 106 0 53 -8 c 1,21,-1
 49 16 l 1,22,23
 62 23 62 23 86 31 c 1,0,1
EndSplineSet
EndChar

StartChar: j
Encoding: 106 106 78
Width: 349
GlyphClass: 2
Flags: W
LayerCount: 2
Fore
SplineSet
265 509 m 1,0,1
 252 405 252 405 252 254 c 128,-1,2
 252 103 252 103 263 8 c 1,3,4
 179 -98 179 -98 -4 -182 c 1,5,-1
 -19 -164 l 1,6,7
 51 -111 51 -111 76.5 -46 c 128,-1,8
 102 19 102 19 102 118 c 2,9,-1
 102 283 l 2,10,11
 102 434 102 434 91 511 c 1,12,13
 63 517 63 517 43 526 c 1,14,-1
 45 548 l 1,15,16
 102 540 102 540 171 540 c 128,-1,17
 240 540 240 540 300 549 c 1,18,-1
 303 525 l 1,19,20
 287 516 287 516 265 509 c 1,0,1
EndSplineSet
EndChar

StartChar: k
Encoding: 107 107 79
Width: 569
GlyphClass: 2
Flags: W
LayerCount: 2
Fore
SplineSet
333 420.5 m 128,-1,1
 356 465 356 465 356 493 c 128,-1,2
 356 521 356 521 338 531 c 1,3,-1
 341 546 l 1,4,5
 385 540 385 540 463 540 c 128,-1,6
 541 540 541 540 579 548 c 1,7,-1
 582 524 l 1,8,9
 560 514 560 514 536 509 c 1,10,-1
 372 345 l 1,11,-1
 554 31 l 1,12,13
 580 26 580 26 601 15 c 1,14,-1
 597 -9 l 1,15,16
 551 0 551 0 473.5 0 c 128,-1,17
 396 0 396 0 353 -5 c 1,18,-1
 350 11 l 1,19,20
 365 26 365 26 365 59 c 128,-1,21
 365 92 365 92 351.5 132.5 c 128,-1,22
 338 173 338 173 294 276 c 1,23,-1
 235 217 l 1,24,25
 237 103 237 103 247 29 c 1,26,27
 270 24 270 24 295 16 c 1,28,-1
 293 -7 l 1,29,30
 243 0 243 0 168 0 c 128,-1,31
 93 0 93 0 40 -8 c 1,32,-1
 36 16 l 1,33,34
 49 23 49 23 73 31 c 1,35,36
 84 100 84 100 84 258 c 128,-1,37
 84 416 84 416 72 509 c 1,38,39
 50 516 50 516 34 525 c 1,40,-1
 37 549 l 1,41,42
 97 540 97 540 166 540 c 128,-1,43
 235 540 235 540 292 548 c 1,44,-1
 294 526 l 1,45,46
 274 517 274 517 246 511 c 1,47,48
 235 439 235 439 235 278 c 1,49,0
 310 376 310 376 333 420.5 c 128,-1,1
EndSplineSet
EndChar

StartChar: l
Encoding: 108 108 80
Width: 414
GlyphClass: 2
Flags: W
LayerCount: 2
Fore
SplineSet
85 31 m 1,0,1
 97 127 97 127 97 271.5 c 128,-1,2
 97 416 97 416 85 509 c 1,3,4
 63 516 63 516 47 525 c 1,5,-1
 50 549 l 1,6,7
 110 540 110 540 179 540 c 128,-1,8
 248 540 248 540 305 548 c 1,9,-1
 307 526 l 1,10,11
 287 517 287 517 259 511 c 1,12,-1
 258 511 l 1,13,14
 248 446 248 446 248 291.5 c 128,-1,15
 248 137 248 137 255 65 c 1,16,17
 273 59 273 59 308.5 59 c 128,-1,18
 344 59 344 59 368 71 c 1,19,20
 377 105 377 105 380 139 c 1,21,-1
 406 139 l 1,22,23
 406 45 406 45 438 7 c 1,24,-1
 433 -11 l 1,25,26
 358 0 358 0 245 0 c 128,-1,27
 132 0 132 0 52 -8 c 1,28,-1
 48 16 l 1,29,30
 61 23 61 23 85 31 c 1,0,1
EndSplineSet
EndChar

StartChar: m
Encoding: 109 109 81
Width: 770
GlyphClass: 2
Flags: W
LayerCount: 2
Fore
SplineSet
270 69 m 2,0,1
 270 188 270 188 196 396 c 1,2,-1
 189 395 l 1,3,-1
 176 287 l 2,4,5
 159 149 159 149 159 88.5 c 128,-1,6
 159 28 159 28 194 10 c 1,7,-1
 192 -4 l 1,8,9
 160 0 160 0 105.5 0 c 128,-1,10
 51 0 51 0 10 -6 c 1,11,-1
 7 16 l 1,12,13
 26 26 26 26 54 31 c 1,14,-1
 132 506 l 1,15,16
 102 514 102 514 85 526 c 1,17,-1
 91 549 l 1,18,19
 144 540 144 540 218.5 540 c 128,-1,20
 293 540 293 540 350 547 c 1,21,-1
 353 530 l 1,22,23
 324 524 324 524 324 502 c 0,24,25
 324 487 324 487 378 238 c 2,26,-1
 383 215 l 1,27,-1
 391 217 l 1,28,29
 392 236 392 236 465 500 c 1,30,31
 465 522 465 522 444 528 c 1,32,-1
 447 546 l 1,33,34
 491 540 491 540 569 540 c 128,-1,35
 647 540 647 540 701 547 c 1,36,-1
 707 524 l 1,37,38
 693 518 693 518 667 509 c 1,39,40
 662 490 662 490 662 437 c 128,-1,41
 662 384 662 384 677.5 241 c 128,-1,42
 693 98 693 98 706 29 c 1,43,44
 728 24 728 24 754 16 c 1,45,-1
 752 -7 l 1,46,47
 702 0 702 0 627.5 0 c 128,-1,48
 553 0 553 0 500 -8 c 1,49,-1
 496 16 l 1,50,51
 509 23 509 23 533 31 c 1,52,53
 531 222 531 222 506 395 c 1,54,-1
 500 396 l 1,55,56
 451 244 451 244 438.5 187.5 c 128,-1,57
 426 131 426 131 426 88 c 1,58,59
 345 75 345 75 280 35 c 1,60,-1
 270 41 l 1,61,-1
 270 69 l 2,0,1
EndSplineSet
EndChar

StartChar: n
Encoding: 110 110 82
Width: 647
GlyphClass: 2
Flags: W
LayerCount: 2
Fore
SplineSet
85 31 m 1,0,1
 97 123 97 123 97 266 c 128,-1,2
 97 409 97 409 83 509 c 1,3,4
 61 516 61 516 45 525 c 1,5,-1
 48 549 l 1,6,7
 108 540 108 540 187 540 c 128,-1,8
 266 540 266 540 311 548 c 1,9,-1
 314 531 l 1,10,11
 295 523 295 523 295 503.5 c 128,-1,12
 295 484 295 484 322.5 432.5 c 128,-1,13
 350 381 350 381 466 192 c 1,14,-1
 469 194 l 1,15,-1
 469 273 l 2,16,17
 469 414 469 414 455 465 c 128,-1,18
 441 516 441 516 391 528 c 1,19,-1
 394 547 l 1,20,21
 438 540 438 540 495.5 540 c 128,-1,22
 553 540 553 540 609 548 c 1,23,-1
 611 526 l 1,24,25
 591 517 591 517 563 511 c 1,26,27
 550 435 550 435 550 272 c 128,-1,28
 550 109 550 109 563 29 c 1,29,30
 585 24 585 24 611 16 c 1,31,-1
 609 -7 l 1,32,33
 559 0 559 0 491 0 c 128,-1,34
 423 0 423 0 388 -5 c 1,35,36
 388 24 388 24 363 72 c 0,37,38
 334 127 334 127 182 377 c 1,39,-1
 178 376 l 1,40,-1
 178 311 l 2,41,42
 178 184 178 184 187 120 c 128,-1,43
 196 56 196 56 227 29 c 1,44,45
 249 24 249 24 275 16 c 1,46,-1
 273 -7 l 1,47,48
 223 0 223 0 164 0 c 128,-1,49
 105 0 105 0 52 -8 c 1,50,-1
 48 16 l 1,51,52
 61 23 61 23 85 31 c 1,0,1
EndSplineSet
EndChar

StartChar: o
Encoding: 111 111 83
Width: 576
GlyphClass: 2
Flags: W
LayerCount: 2
Fore
SplineSet
99.5 50 m 128,-1,1
 28 115 28 115 28 227.5 c 128,-1,2
 28 340 28 340 104 433 c 128,-1,3
 180 526 180 526 299 555 c 1,4,5
 416 555 416 555 482 495 c 128,-1,6
 548 435 548 435 548 317 c 128,-1,7
 548 199 548 199 477 106.5 c 128,-1,8
 406 14 406 14 288 -15 c 1,9,0
 171 -15 171 -15 99.5 50 c 128,-1,1
322.5 470 m 128,-1,11
 301 484 301 484 272 484 c 128,-1,12
 243 484 243 484 223 471 c 1,13,14
 192 396 192 396 192 280 c 0,15,16
 192 197 192 197 208 147.5 c 128,-1,17
 224 98 224 98 247.5 77 c 128,-1,18
 271 56 271 56 301 56 c 128,-1,19
 331 56 331 56 353 70 c 1,20,21
 384 140 384 140 384 257 c 0,22,23
 384 388 384 388 356 436 c 0,24,10
 344 456 344 456 322.5 470 c 128,-1,11
EndSplineSet
EndChar

StartChar: p
Encoding: 112 112 84
Width: 526
GlyphClass: 2
Flags: W
LayerCount: 2
Fore
SplineSet
46 536 m 1,0,-1
 310 544 l 1,1,2
 437 544 437 544 484 508 c 1,3,4
 525 475 525 475 525 402.5 c 128,-1,5
 525 330 525 330 457 280.5 c 128,-1,6
 389 231 389 231 302 231 c 0,7,8
 287 231 287 231 279 232 c 1,9,-1
 284 273 l 1,10,-1
 294 273 l 2,11,12
 362 273 362 273 362 396 c 0,13,14
 362 447 362 447 346 475 c 128,-1,15
 330 503 330 503 288 503 c 0,16,17
 275 503 275 503 257 499 c 1,18,19
 248 432 248 432 248 273 c 128,-1,20
 248 114 248 114 259 29 c 1,21,-1
 260 29 l 1,22,23
 282 24 282 24 308 16 c 1,24,-1
 306 -7 l 1,25,26
 256 0 256 0 181 0 c 128,-1,27
 106 0 106 0 53 -8 c 1,28,-1
 49 16 l 1,29,30
 62 23 62 23 86 31 c 1,31,32
 97 126 97 126 97 255 c 128,-1,33
 97 384 97 384 85 498 c 1,34,35
 70 507 70 507 46 513 c 1,36,-1
 46 536 l 1,0,-1
EndSplineSet
EndChar

StartChar: q
Encoding: 113 113 85
Width: 566
GlyphClass: 2
Flags: W
LayerCount: 2
Fore
SplineSet
235 -85 m 0,0,1
 182 -85 182 -85 144 -117 c 1,2,-1
 126 -100 l 1,3,4
 181 -40 181 -40 250 -14 c 1,5,6
 150 -5 150 -5 88.5 58 c 128,-1,7
 27 121 27 121 27 217 c 0,8,9
 27 338 27 338 101.5 432 c 128,-1,10
 176 526 176 526 295 555 c 1,11,12
 409 555 409 555 473.5 494.5 c 128,-1,13
 538 434 538 434 538 322.5 c 128,-1,14
 538 211 538 211 481 125 c 128,-1,15
 424 39 424 39 324 0 c 1,16,17
 358 -4 358 -4 430.5 -30.5 c 128,-1,18
 503 -57 503 -57 539 -60 c 1,19,20
 561 -55 561 -55 576 -44 c 1,21,-1
 590 -63 l 1,22,23
 531 -104 531 -104 474 -201 c 1,24,-1
 453 -184 l 2,25,26
 331 -85 331 -85 235 -85 c 0,0,1
326 464 m 0,27,28
 302 484 302 484 269 484 c 128,-1,29
 236 484 236 484 218 470 c 1,30,31
 189 396 189 396 189 279 c 0,32,33
 189 195 189 195 205 145.5 c 128,-1,34
 221 96 221 96 244 75 c 128,-1,35
 267 54 267 54 297 54 c 128,-1,36
 327 54 327 54 346 68 c 1,37,38
 378 142 378 142 378 255 c 0,39,40
 378 422 378 422 326 464 c 0,27,28
EndSplineSet
EndChar

StartChar: r
Encoding: 114 114 86
Width: 583
GlyphClass: 2
Flags: W
LayerCount: 2
Fore
SplineSet
46 536 m 1,0,-1
 309 544 l 1,1,2
 408 544 408 544 460 522 c 0,3,4
 524 494 524 494 524 408 c 0,5,6
 524 364 524 364 497.5 326 c 128,-1,7
 471 288 471 288 428 266 c 1,8,-1
 557 31 l 1,9,10
 584 26 584 26 604 15 c 1,11,-1
 600 -9 l 1,12,13
 554 0 554 0 477 0 c 128,-1,14
 400 0 400 0 358 -5 c 1,15,-1
 355 11 l 1,16,17
 370 26 370 26 370 71 c 128,-1,18
 370 116 370 116 321 247 c 1,19,20
 303 250 303 250 279 250 c 1,21,-1
 283 291 l 1,22,-1
 293 291 l 2,23,24
 360 291 360 291 360 396.5 c 128,-1,25
 360 502 360 502 287 502 c 0,26,27
 270 502 270 502 257 499 c 1,28,29
 248 418 248 418 248 261 c 128,-1,30
 248 104 248 104 258 29 c 1,31,-1
 259 29 l 1,32,33
 281 24 281 24 307 16 c 1,34,-1
 305 -7 l 1,35,36
 255 0 255 0 180 0 c 128,-1,37
 105 0 105 0 52 -8 c 1,38,-1
 48 16 l 1,39,40
 61 23 61 23 85 31 c 1,41,42
 97 139 97 139 97 260 c 128,-1,43
 97 381 97 381 85 498 c 1,44,45
 70 507 70 507 46 513 c 1,46,-1
 46 536 l 1,0,-1
EndSplineSet
EndChar

StartChar: s
Encoding: 115 115 87
Width: 425
GlyphClass: 2
Flags: W
LayerCount: 2
Fore
SplineSet
203 69 m 0,0,1
 234 69 234 69 255.5 81.5 c 128,-1,2
 277 94 277 94 277 117 c 128,-1,3
 277 140 277 140 241 167.5 c 128,-1,4
 205 195 205 195 161.5 219 c 128,-1,5
 118 243 118 243 82 274.5 c 128,-1,6
 46 306 46 306 46 334 c 0,7,8
 46 398 46 398 113.5 467 c 128,-1,9
 181 536 181 536 250 555 c 1,10,11
 334 555 334 555 404 536 c 1,12,-1
 404 520 l 1,13,14
 360 480 360 480 353 376 c 1,15,-1
 327 376 l 1,16,17
 327 423 327 423 322 444 c 1,18,19
 282 476 282 476 228 476 c 0,20,21
 200 476 200 476 177.5 465 c 128,-1,22
 155 454 155 454 155 433.5 c 128,-1,23
 155 413 155 413 192.5 386 c 128,-1,24
 230 359 230 359 275.5 335.5 c 128,-1,25
 321 312 321 312 358.5 280.5 c 128,-1,26
 396 249 396 249 396 222 c 0,27,28
 396 166 396 166 324.5 88 c 128,-1,29
 253 10 253 10 192 -15 c 1,30,31
 121 -15 121 -15 52 4 c 1,32,33
 36 -5 36 -5 17 -27 c 1,34,-1
 -1 -10 l 1,35,36
 59 57 59 57 59 171 c 1,37,-1
 84 171 l 1,38,-1
 88 114 l 1,39,40
 135 69 135 69 203 69 c 0,0,1
EndSplineSet
EndChar

StartChar: t
Encoding: 116 116 88
Width: 476
GlyphClass: 2
Flags: W
LayerCount: 2
Fore
SplineSet
157 31 m 1,0,1
 167 114 167 114 167 247.5 c 128,-1,2
 167 381 167 381 159 477 c 1,3,4
 143 481 143 481 111 481 c 128,-1,5
 79 481 79 481 52 467 c 1,6,7
 44 430 44 430 44 398 c 1,8,-1
 16 398 l 1,9,10
 12 480 12 480 -20 531 c 1,11,-1
 -14 552 l 1,12,13
 68 540 68 540 240 540 c 128,-1,14
 412 540 412 540 494 552 c 1,15,-1
 500 531 l 1,16,17
 468 480 468 480 464 398 c 1,18,-1
 438 398 l 1,19,20
 430 435 430 435 430 467 c 1,21,22
 403 481 403 481 371.5 481 c 128,-1,23
 340 481 340 481 325 476 c 1,24,25
 318 366 318 366 318 239.5 c 128,-1,26
 318 113 318 113 330 29 c 1,27,-1
 331 29 l 1,28,29
 359 23 359 23 379 14 c 1,30,-1
 377 -8 l 1,31,32
 320 0 320 0 251 0 c 128,-1,33
 182 0 182 0 122 -9 c 1,34,-1
 119 15 l 1,35,36
 135 24 135 24 157 31 c 1,0,1
EndSplineSet
EndChar

StartChar: u
Encoding: 117 117 89
Width: 643
GlyphClass: 2
Flags: W
LayerCount: 2
Fore
SplineSet
555 511 m 1,0,1
 546 446 546 446 546 277.5 c 128,-1,2
 546 109 546 109 557 29 c 1,3,4
 580 24 580 24 605 16 c 1,5,-1
 603 -7 l 1,6,7
 559 0 559 0 498 0 c 128,-1,8
 437 0 437 0 383 -9 c 1,9,-1
 379 7 l 1,10,11
 386 19 386 19 390 55 c 1,12,13
 347 13 347 13 280 -13 c 1,14,15
 174 -13 174 -13 132 37.5 c 128,-1,16
 90 88 90 88 90 200 c 0,17,18
 90 248 90 248 96.5 350.5 c 128,-1,19
 103 453 103 453 103 473 c 128,-1,20
 103 493 103 493 96 509 c 1,21,22
 71 516 71 516 58 523 c 1,23,-1
 62 547 l 1,24,25
 112 540 112 540 178.5 540 c 128,-1,26
 245 540 245 540 285 546 c 1,27,-1
 288 530 l 1,28,29
 268 519 268 519 260 502 c 0,30,31
 241 460 241 460 241 230 c 0,32,33
 241 132 241 132 259 105 c 0,34,35
 278 76 278 76 316 76 c 128,-1,36
 354 76 354 76 393 104 c 1,37,38
 395 154 395 154 395 286.5 c 128,-1,39
 395 419 395 419 383 509 c 1,40,41
 361 516 361 516 345 525 c 1,42,-1
 348 549 l 1,43,44
 408 540 408 540 477 540 c 128,-1,45
 546 540 546 540 603 548 c 1,46,-1
 605 526 l 1,47,48
 585 517 585 517 557 511 c 1,49,-1
 555 511 l 1,0,1
EndSplineSet
EndChar

StartChar: v
Encoding: 118 118 90
Width: 580
GlyphClass: 2
Flags: W
LayerCount: 2
Fore
SplineSet
412 -10 m 1,0,1
 354 0 354 0 280.5 0 c 128,-1,2
 207 0 207 0 137 -7 c 1,3,-1
 136 9 l 1,4,5
 164 16 164 16 164 33 c 0,6,7
 164 89 164 89 74 439 c 1,8,9
 60 488 60 488 46 511 c 1,10,11
 18 518 18 518 7 524 c 1,12,-1
 11 548 l 1,13,14
 63 540 63 540 144.5 540 c 128,-1,15
 226 540 226 540 275 548 c 1,16,-1
 278 526 l 1,17,18
 251 515 251 515 230 511 c 1,19,20
 248 330 248 330 319 66 c 1,21,22
 384 317 384 317 384 430 c 0,23,24
 384 507 384 507 335 530 c 1,25,-1
 337 547 l 1,26,27
 400 540 400 540 459.5 540 c 128,-1,28
 519 540 519 540 563 548 c 1,29,-1
 566 525 l 1,30,31
 549 517 549 517 520 510 c 1,32,33
 535 481 535 481 535 428 c 128,-1,34
 535 375 535 375 500 289.5 c 128,-1,35
 465 204 465 204 367 28 c 1,36,37
 396 20 396 20 415 13 c 1,38,-1
 412 -10 l 1,0,1
EndSplineSet
EndChar

StartChar: w
Encoding: 119 119 91
Width: 855
GlyphClass: 2
Flags: W
LayerCount: 2
Fore
SplineSet
687 -10 m 1,0,1
 631 0 631 0 561.5 0 c 128,-1,2
 492 0 492 0 422 -7 c 1,3,-1
 421 9 l 1,4,5
 451 15 451 15 451 37 c 0,6,7
 451 83 451 83 419 223 c 1,8,9
 399 162 399 162 355 32 c 1,10,11
 369 22 369 22 393 18 c 1,12,-1
 389 -7 l 1,13,14
 344 0 344 0 264.5 0 c 128,-1,15
 185 0 185 0 137 -6 c 1,16,-1
 136 11 l 1,17,18
 164 17 164 17 164 36 c 0,19,20
 164 90 164 90 74 439 c 0,21,22
 61 486 61 486 46 511 c 1,23,24
 26 515 26 515 7 524 c 1,25,-1
 11 548 l 1,26,27
 93 539 93 539 273 539 c 128,-1,28
 453 539 453 539 556 548 c 1,29,-1
 559 526 l 1,30,31
 532 515 532 515 511 511 c 1,32,33
 526 342 526 342 600 66 c 1,34,35
 659 321 659 321 659 430 c 0,36,37
 659 507 659 507 610 530 c 1,38,-1
 612 547 l 1,39,40
 675 540 675 540 730.5 540 c 128,-1,41
 786 540 786 540 838 548 c 1,42,-1
 841 525 l 1,43,44
 821 517 821 517 795 510 c 1,45,46
 810 480 810 480 810 426 c 128,-1,47
 810 372 810 372 775.5 289 c 128,-1,48
 741 206 741 206 642 28 c 1,49,50
 666 22 666 22 690 13 c 1,51,-1
 687 -10 l 1,0,1
366.5 489 m 128,-1,53
 354 507 354 507 314.5 507 c 128,-1,54
 275 507 275 507 232 497 c 1,55,56
 246 338 246 338 319 66 c 1,57,58
 379 325 379 325 379 425 c 0,59,52
 379 471 379 471 366.5 489 c 128,-1,53
EndSplineSet
EndChar

StartChar: x
Encoding: 120 120 92
Width: 531
GlyphClass: 2
Flags: W
LayerCount: 2
Fore
SplineSet
302 371 m 1,0,1
 355 466 355 466 355 493.5 c 128,-1,2
 355 521 355 521 337 531 c 1,3,-1
 340 546 l 1,4,5
 390 540 390 540 450 540 c 128,-1,6
 510 540 510 540 553 548 c 1,7,-1
 556 524 l 1,8,9
 537 514 537 514 510 509 c 1,10,11
 434 433 434 433 342 312 c 1,12,-1
 511 31 l 1,13,14
 543 24 543 24 561 15 c 1,15,-1
 557 -9 l 1,16,17
 498 0 498 0 426.5 0 c 128,-1,18
 355 0 355 0 314 -5 c 1,19,-1
 311 8 l 1,20,21
 316 15 316 15 316 28 c 0,22,23
 316 72 316 72 231 208 c 1,24,25
 178 75 178 75 176 28 c 1,26,27
 202 23 202 23 221 14 c 1,28,-1
 219 -9 l 1,29,30
 170 0 170 0 103.5 0 c 128,-1,31
 37 0 37 0 -11 -9 c 1,32,-1
 -14 15 l 1,33,34
 1 23 1 23 24 29 c 1,35,36
 123 176 123 176 190 270 c 1,37,-1
 44 511 l 1,38,39
 21 517 21 517 7 525 c 1,40,-1
 10 549 l 1,41,42
 69 540 69 540 153 540 c 128,-1,43
 237 540 237 540 294 548 c 1,44,-1
 296 526 l 1,45,46
 278 517 278 517 248 511 c 1,47,48
 248 483 248 483 257.5 457.5 c 128,-1,49
 267 432 267 432 302 371 c 1,0,1
EndSplineSet
EndChar

StartChar: y
Encoding: 121 121 93
Width: 496
GlyphClass: 2
Flags: W
LayerCount: 2
Fore
SplineSet
282 300 m 1,0,1
 335 459 335 459 335 491 c 128,-1,2
 335 523 335 523 317 531 c 1,3,-1
 320 546 l 1,4,5
 365 540 365 540 425 540 c 128,-1,6
 485 540 485 540 522 547 c 1,7,-1
 525 523 l 1,8,9
 507 513 507 513 477 507 c 1,10,-1
 323 271 l 1,11,12
 323 119 323 119 335 29 c 1,13,14
 358 24 358 24 383 16 c 1,15,-1
 381 -7 l 1,16,17
 331 0 331 0 256 0 c 128,-1,18
 181 0 181 0 128 -8 c 1,19,-1
 124 16 l 1,20,21
 137 23 137 23 161 31 c 1,22,23
 172 123 172 123 172 227 c 2,24,-1
 172 249 l 1,25,26
 79 443 79 443 46 484 c 0,27,28
 35 497 35 497 18 511 c 1,29,30
 -10 518 -10 518 -21 524 c 1,31,-1
 -17 548 l 1,32,33
 35 540 35 540 116.5 540 c 128,-1,34
 198 540 198 540 247 548 c 1,35,-1
 250 526 l 1,36,37
 223 515 223 515 202 511 c 1,38,39
 205 503 205 503 219 460.5 c 128,-1,40
 233 418 233 418 239 400 c 0,41,42
 259 341 259 341 282 300 c 1,0,1
EndSplineSet
EndChar

StartChar: z
Encoding: 122 122 94
Width: 443
GlyphClass: 2
Flags: W
LayerCount: 2
Fore
SplineSet
155.5 544 m 128,-1,1
 274 533 274 533 330 533 c 128,-1,2
 386 533 386 533 406 539.5 c 128,-1,3
 426 546 426 546 446 564 c 1,4,-1
 464 549 l 1,5,6
 441 529 441 529 406 457 c 2,7,-1
 221 76 l 1,8,-1
 225 73 l 1,9,-1
 273 73 l 2,10,11
 338 73 338 73 368 110 c 1,12,13
 372 127 372 127 372 168 c 1,14,-1
 397 170 l 1,15,16
 407 47 407 47 460 -7 c 1,17,-1
 438 -21 l 1,18,19
 433 -15 433 -15 421 -5 c 1,20,21
 294 14 294 14 128 14 c 0,22,23
 26 14 26 14 0 -18 c 1,24,-1
 -18 -3 l 1,25,26
 -1 15 -1 15 46 96 c 2,27,-1
 262 469 l 1,28,-1
 258 474 l 1,29,-1
 188 474 l 2,30,31
 123 474 123 474 95 443 c 1,32,33
 84 406 84 406 72 381 c 1,34,-1
 47 386 l 1,35,36
 51 407 51 407 51 447 c 128,-1,37
 51 487 51 487 43 515 c 1,38,39
 27 524 27 524 5 529 c 1,40,-1
 10 555 l 1,41,0
 37 555 37 555 155.5 544 c 128,-1,1
EndSplineSet
EndChar

StartChar: braceleft
Encoding: 123 123 95
Width: 300
GlyphClass: 2
Flags: W
LayerCount: 2
Fore
SplineSet
126.5 -158.5 m 128,-1,1
 79 -116 79 -116 79 -71 c 128,-1,2
 79 -26 79 -26 97.5 52 c 128,-1,3
 116 130 116 130 116 177 c 0,4,5
 116 197 116 197 94.5 214.5 c 128,-1,6
 73 232 73 232 48 236 c 1,7,-1
 44 255 l 1,8,9
 70 261 70 261 93 279 c 128,-1,10
 116 297 116 297 116 319 c 0,11,12
 116 366 116 366 97.5 444 c 128,-1,13
 79 522 79 522 79 567 c 128,-1,14
 79 612 79 612 126.5 654.5 c 128,-1,15
 174 697 174 697 224 711 c 1,16,-1
 229 693 l 1,17,18
 174 665 174 665 154 604 c 1,19,20
 154 557 154 557 176.5 463 c 128,-1,21
 199 369 199 369 199 329 c 1,22,23
 185 295 185 295 108 250 c 1,24,-1
 108 246 l 1,25,26
 185 201 185 201 199 167 c 1,27,28
 199 127 199 127 176.5 33 c 128,-1,29
 154 -61 154 -61 154 -108 c 1,30,31
 173 -167 173 -167 230 -196 c 1,32,-1
 224 -215 l 1,33,0
 174 -201 174 -201 126.5 -158.5 c 128,-1,1
EndSplineSet
EndChar

StartChar: bar
Encoding: 124 124 96
Width: 238
GlyphClass: 2
Flags: W
LayerCount: 2
Fore
SplineSet
151 -199 m 1,0,-1
 96 -216 l 1,1,-1
 89 -213 l 1,2,3
 89 476 89 476 82 723 c 1,4,5
 87 725 87 725 102 730 c 0,6,7
 139 744 139 744 148 750 c 1,8,-1
 153 749 l 1,9,10
 151 607 151 607 151 -199 c 1,0,-1
EndSplineSet
EndChar

StartChar: braceright
Encoding: 125 125 97
Width: 288
GlyphClass: 2
Flags: W
LayerCount: 2
Fore
SplineSet
173.5 654.5 m 128,-1,1
 221 612 221 612 221 567 c 128,-1,2
 221 522 221 522 202.5 444 c 128,-1,3
 184 366 184 366 184 319 c 0,4,5
 184 297 184 297 207 279 c 128,-1,6
 230 261 230 261 256 255 c 1,7,-1
 252 236 l 1,8,9
 227 232 227 232 205.5 214.5 c 128,-1,10
 184 197 184 197 184 177 c 0,11,12
 184 130 184 130 202.5 52 c 128,-1,13
 221 -26 221 -26 221 -71 c 128,-1,14
 221 -116 221 -116 173.5 -158.5 c 128,-1,15
 126 -201 126 -201 76 -215 c 1,16,-1
 70 -196 l 1,17,18
 119 -171 119 -171 139 -108 c 1,19,20
 139 -61 139 -61 116.5 33 c 128,-1,21
 94 127 94 127 94 167 c 1,22,23
 106 196 106 196 192 246 c 1,24,-1
 192 250 l 1,25,26
 106 300 106 300 94 329 c 1,27,28
 94 369 94 369 116.5 463 c 128,-1,29
 139 557 139 557 139 604 c 1,30,31
 118 669 118 669 71 693 c 1,32,-1
 76 711 l 1,33,0
 126 697 126 697 173.5 654.5 c 128,-1,1
EndSplineSet
EndChar

StartChar: asciitilde
Encoding: 126 126 98
Width: 637
GlyphClass: 2
Flags: W
LayerCount: 2
Fore
SplineSet
461 272 m 0,0,1
 551 272 551 272 613 366 c 1,2,-1
 637 350 l 1,3,4
 611 287 611 287 554.5 232 c 128,-1,5
 498 177 498 177 441 156 c 1,6,7
 398 156 398 156 298 210.5 c 128,-1,8
 198 265 198 265 155 265 c 0,9,10
 70 265 70 265 25 178 c 1,11,-1
 0 194 l 1,12,13
 29 262 29 262 91 320.5 c 128,-1,14
 153 379 153 379 210 387 c 1,15,16
 266 339 266 339 335 305.5 c 128,-1,17
 404 272 404 272 461 272 c 0,0,1
EndSplineSet
EndChar

StartChar: exclamdown
Encoding: 161 161 100
Width: 290
GlyphClass: 2
Flags: W
LayerCount: 2
Fore
SplineSet
67 424 m 1,0,1
 81 445 81 445 109 468.5 c 128,-1,2
 137 492 137 492 161 505 c 1,3,4
 188 493 188 493 215.5 469 c 128,-1,5
 243 445 243 445 256 424 c 1,6,7
 244 402 244 402 214 370.5 c 128,-1,8
 184 339 184 339 161 324 c 1,9,10
 138 340 138 340 108 371 c 128,-1,11
 78 402 78 402 67 424 c 1,0,1
104 -215 m 0,12,13
 100 -215 100 -215 96 -215 c 1,14,15
 57 -192 57 -192 37 -155 c 1,16,17
 78 -43 78 -43 100 40.5 c 128,-1,18
 122 124 122 124 142 244 c 1,19,-1
 188 249 l 1,20,-1
 226 -182 l 1,21,22
 170 -215 170 -215 104 -215 c 0,12,13
EndSplineSet
EndChar

StartChar: cent
Encoding: 162 162 101
Width: 540
GlyphClass: 2
Flags: W
LayerCount: 2
Fore
SplineSet
335 535 m 1,0,-1
 334 603 l 1,1,2
 357 613 357 613 373 626 c 1,3,-1
 379 623 l 1,4,5
 373 565 373 565 372 543 c 1,6,-1
 372 540 l 1,7,8
 456 537 456 537 525 524 c 1,9,-1
 524 501 l 1,10,11
 507 501 507 501 486 493 c 1,12,13
 463 432 463 432 461 364 c 1,14,-1
 436 364 l 1,15,16
 427 399 427 399 425 435 c 1,17,18
 404 454 404 454 368 464 c 1,19,-1
 355 186 l 1,20,-1
 350 89 l 1,21,-1
 353 89 l 2,22,23
 415 89 415 89 477 141 c 1,24,-1
 494 124 l 1,25,26
 429 41 429 41 345 6 c 1,27,-1
 345 -1 l 1,28,-1
 340 -111 l 1,29,-1
 334 -112 l 1,30,31
 314 -110 314 -110 299 -95 c 1,32,-1
 308 -14 l 1,33,-1
 309 0 l 1,34,35
 205 5 205 5 141.5 62.5 c 128,-1,36
 78 120 78 120 78 223.5 c 128,-1,37
 78 327 78 327 152 414.5 c 128,-1,38
 226 502 226 502 335 535 c 1,0,-1
329 470 m 2,39,40
 290 470 290 470 272 456 c 1,41,42
 258 426 258 426 249.5 373 c 128,-1,43
 241 320 241 320 241 262.5 c 128,-1,44
 241 205 241 205 255.5 157.5 c 128,-1,45
 270 110 270 110 314 95 c 1,46,-1
 321 204 l 1,47,-1
 334 470 l 1,48,-1
 329 470 l 2,39,40
EndSplineSet
EndChar

StartChar: sterling
Encoding: 163 163 102
Width: 540
GlyphClass: 2
Flags: W
LayerCount: 2
Fore
SplineSet
111 137 m 1,0,-1
 105 252 l 1,1,-1
 50 247 l 1,2,-1
 42 253 l 1,3,-1
 45 302 l 1,4,-1
 110 302 l 1,5,6
 133 395 133 395 203 462.5 c 128,-1,7
 273 530 273 530 372 555 c 1,8,9
 441 555 441 555 530 539 c 1,10,-1
 529 516 l 1,11,12
 512 516 512 516 491 508 c 1,13,14
 468 447 468 447 466 379 c 1,15,-1
 441 379 l 1,16,17
 432 414 432 414 430 450 c 1,18,19
 393 485 393 485 344 485 c 0,20,21
 312 485 312 485 294 471 c 1,22,23
 269 414 269 414 263 311 c 1,24,-1
 330 317 l 2,25,26
 392 323 392 323 419 328 c 1,27,-1
 425 323 l 1,28,-1
 421 277 l 1,29,-1
 261 264 l 1,30,31
 254 194 254 194 208 127 c 1,32,-1
 208 118 l 1,33,34
 229 131 229 131 241 134 c 1,35,36
 342 134 342 134 437 117 c 1,37,38
 450 142 450 142 461 174 c 1,39,-1
 483 167 l 1,40,41
 471 128 471 128 471 77.5 c 128,-1,42
 471 27 471 27 481 -10 c 1,43,-1
 469 -18 l 1,44,45
 289 19 289 19 114 19 c 1,46,47
 97 3 97 3 81 -25 c 1,48,-1
 58 -15 l 1,49,50
 66 7 66 7 103 69 c 1,51,52
 111 98 111 98 111 137 c 1,0,-1
EndSplineSet
EndChar

StartChar: currency
Encoding: 164 164 103
Width: 567
GlyphClass: 2
Flags: W
LayerCount: 2
Fore
SplineSet
425 490 m 1,0,-1
 500 568 l 1,1,2
 527 559 527 559 567 552 c 1,3,-1
 569 548 l 1,4,5
 513 498 513 498 466 451 c 1,6,7
 496 410 496 410 496 350 c 0,8,9
 496 266 496 266 442 202 c 1,10,11
 510 136 510 136 569 83 c 1,12,-1
 567 79 l 1,13,14
 527 72 527 72 500 63 c 1,15,-1
 402 165 l 1,16,17
 352 129 352 129 289 116 c 1,18,19
 212 116 212 116 156 149 c 1,20,-1
 68 63 l 1,21,-1
 63 63 l 1,22,-1
 50 76 l 2,23,24
 26 100 26 100 25 110 c 1,25,26
 47 129 47 129 113 188 c 1,27,28
 81 230 81 230 81 286 c 0,29,30
 81 365 81 365 130 427 c 1,31,32
 71 481 71 481 25 521 c 1,33,34
 26 532 26 532 44 549 c 2,35,-1
 63 568 l 1,36,-1
 68 568 l 1,37,-1
 171 468 l 1,38,39
 223 509 223 509 301 523 c 1,40,41
 373 523 373 523 425 490 c 1,0,-1
373 412.5 m 128,-1,43
 340 450 340 450 283 450 c 128,-1,44
 226 450 226 450 199 429 c 1,45,46
 171 384 171 384 171 325 c 128,-1,47
 171 266 171 266 204.5 227.5 c 128,-1,48
 238 189 238 189 295.5 189 c 128,-1,49
 353 189 353 189 379 209 c 1,50,51
 406 253 406 253 406 314 c 128,-1,42
 406 375 406 375 373 412.5 c 128,-1,43
EndSplineSet
EndChar

StartChar: yen
Encoding: 165 165 104
Width: 540
GlyphClass: 2
Flags: W
LayerCount: 2
Fore
SplineSet
1 548 m 1,0,1
 53 540 53 540 134.5 540 c 128,-1,2
 216 540 216 540 265 548 c 1,3,-1
 268 526 l 1,4,5
 241 515 241 515 220 511 c 1,6,7
 223 503 223 503 237 460.5 c 128,-1,8
 251 418 251 418 257 400 c 0,9,10
 277 341 277 341 300 300 c 1,11,12
 353 459 353 459 353 491 c 128,-1,13
 353 523 353 523 335 531 c 1,14,-1
 338 546 l 1,15,16
 383 540 383 540 443 540 c 128,-1,17
 503 540 503 540 540 547 c 1,18,-1
 543 523 l 1,19,20
 525 513 525 513 495 507 c 1,21,-1
 341 271 l 1,22,-1
 341 270 l 1,23,24
 408 272 408 272 463 275 c 1,25,26
 473 244 473 244 473 243 c 2,27,-1
 473 237 l 1,28,29
 437 237 437 237 341 235 c 1,30,31
 341 204 341 204 342 190 c 1,32,33
 407 192 407 192 463 195 c 1,34,35
 473 164 473 164 473 163 c 2,36,-1
 473 157 l 1,37,38
 437 157 437 157 343 155 c 1,39,40
 345 81 345 81 353 29 c 1,41,42
 375 24 375 24 401 16 c 1,43,-1
 399 -7 l 1,44,45
 349 0 349 0 274 0 c 128,-1,46
 199 0 199 0 146 -8 c 1,47,-1
 142 16 l 1,48,49
 155 23 155 23 179 31 c 1,50,51
 187 106 187 106 189 152 c 1,52,-1
 148 151 l 1,53,-1
 53 148 l 1,54,-1
 50 154 l 1,55,56
 63 177 63 177 67 190 c 1,57,-1
 190 190 l 1,58,-1
 190 232 l 1,59,-1
 148 231 l 1,60,-1
 53 228 l 1,61,-1
 50 234 l 1,62,63
 63 257 63 257 67 270 c 1,64,-1
 180 270 l 1,65,66
 93 447 93 447 62 484 c 0,67,68
 53 496 53 496 36 511 c 1,69,70
 8 518 8 518 -3 524 c 1,71,-1
 1 548 l 1,0,1
EndSplineSet
EndChar

StartChar: brokenbar
Encoding: 166 166 105
Width: 245
GlyphClass: 2
Flags: W
LayerCount: 2
Fore
SplineSet
156 340 m 1,0,-1
 101 323 l 1,1,-1
 94 326 l 1,2,3
 93 508 93 508 87 725 c 1,4,5
 92 727 92 727 107 732 c 0,6,7
 144 746 144 746 153 752 c 1,8,-1
 158 751 l 1,9,10
 156 609 156 609 156 340 c 1,0,-1
156 -198 m 1,11,-1
 101 -215 l 1,12,-1
 94 -212 l 1,13,14
 93 -30 93 -30 87 187 c 1,15,16
 92 189 92 189 107 194 c 0,17,18
 144 208 144 208 153 214 c 1,19,-1
 158 213 l 1,20,21
 156 71 156 71 156 -198 c 1,11,-1
EndSplineSet
EndChar

StartChar: section
Encoding: 167 167 106
Width: 472
GlyphClass: 2
Flags: W
LayerCount: 2
Fore
SplineSet
336 222 m 0,0,1
 336 260 336 260 294 295.5 c 128,-1,2
 252 331 252 331 202 355 c 128,-1,3
 152 379 152 379 110 414.5 c 128,-1,4
 68 450 68 450 68 488 c 1,5,6
 144 614 144 614 263 666 c 1,7,8
 365 666 365 666 433 643 c 1,9,-1
 433 627 l 1,10,11
 386 580 386 580 370 523 c 1,12,-1
 360 521 l 1,13,14
 281 585 281 585 219 585 c 0,15,16
 200 585 200 585 188 573 c 128,-1,17
 176 561 176 561 176 539.5 c 128,-1,18
 176 518 176 518 218 488.5 c 128,-1,19
 260 459 260 459 310 435 c 128,-1,20
 360 411 360 411 402 375.5 c 128,-1,21
 444 340 444 340 444 305 c 1,22,23
 414 227 414 227 355 165 c 1,24,-1
 328 184 l 1,25,26
 336 199 336 199 336 222 c 0,0,1
253 -36 m 0,27,28
 272 -36 272 -36 284 -24 c 128,-1,29
 296 -12 296 -12 296 9.5 c 128,-1,30
 296 31 296 31 254 60.5 c 128,-1,31
 212 90 212 90 162 114 c 128,-1,32
 112 138 112 138 70 173.5 c 128,-1,33
 28 209 28 209 28 244 c 1,34,35
 58 322 58 322 117 384 c 1,36,-1
 144 365 l 1,37,38
 135 348 135 348 137 322 c 128,-1,39
 139 296 139 296 167.5 267.5 c 128,-1,40
 196 239 196 239 235 216.5 c 128,-1,41
 274 194 274 194 312.5 171.5 c 128,-1,42
 351 149 351 149 377.5 120.5 c 128,-1,43
 404 92 404 92 404 61 c 1,44,45
 328 -65 328 -65 209 -117 c 1,46,47
 107 -117 107 -117 39 -94 c 1,48,-1
 39 -78 l 1,49,50
 86 -31 86 -31 102 26 c 1,51,-1
 112 28 l 1,52,53
 191 -36 191 -36 253 -36 c 0,27,28
EndSplineSet
EndChar

StartChar: dieresis
Encoding: 168 168 107
Width: 401
GlyphClass: 2
Flags: W
LayerCount: 2
Fore
SplineSet
179 688 m 1,0,1
 169 667 169 667 140.5 637.5 c 128,-1,2
 112 608 112 608 90 593 c 1,3,4
 68 608 68 608 39.5 637.5 c 128,-1,5
 11 667 11 667 0 688 c 1,6,7
 12 708 12 708 38.5 730.5 c 128,-1,8
 65 753 65 753 90 764 c 1,9,10
 113 752 113 752 139.5 729.5 c 128,-1,11
 166 707 166 707 179 688 c 1,0,1
401 688 m 1,12,13
 391 667 391 667 362.5 637.5 c 128,-1,14
 334 608 334 608 312 593 c 1,15,16
 290 608 290 608 261.5 637.5 c 128,-1,17
 233 667 233 667 222 688 c 1,18,19
 234 708 234 708 260.5 730.5 c 128,-1,20
 287 753 287 753 312 764 c 1,21,22
 335 752 335 752 361.5 729.5 c 128,-1,23
 388 707 388 707 401 688 c 1,12,13
EndSplineSet
EndChar

StartChar: copyright
Encoding: 169 169 108
Width: 765
GlyphClass: 2
Flags: W
LayerCount: 2
Fore
SplineSet
42 325 m 128,-1,1
 42 466 42 466 141.5 566 c 128,-1,2
 241 666 241 666 382 666 c 128,-1,3
 523 666 523 666 623 566 c 128,-1,4
 723 466 723 466 723 325 c 128,-1,5
 723 184 723 184 623 84.5 c 128,-1,6
 523 -15 523 -15 382 -15 c 128,-1,7
 241 -15 241 -15 141.5 84.5 c 128,-1,0
 42 184 42 184 42 325 c 128,-1,1
179 530 m 128,-1,9
 95 445 95 445 95 325.5 c 128,-1,10
 95 206 95 206 179 121 c 128,-1,11
 263 36 263 36 382 36 c 128,-1,12
 501 36 501 36 585.5 121 c 128,-1,13
 670 206 670 206 670 325 c 128,-1,14
 670 444 670 444 585.5 529.5 c 128,-1,15
 501 615 501 615 382 615 c 128,-1,8
 263 615 263 615 179 530 c 128,-1,9
397 185 m 0,16,17
 439 185 439 185 489 221 c 1,18,-1
 501 210 l 1,19,20
 451 146 451 146 378 119 c 1,21,22
 202 119 202 119 202 287 c 0,23,24
 202 373 202 373 254.5 437.5 c 128,-1,25
 307 502 307 502 395 531 c 1,26,27
 460 531 460 531 523 519 c 1,28,-1
 522 501 l 1,29,30
 506 501 506 501 492 495 c 1,31,32
 477 451 477 451 477 397 c 1,33,-1
 459 397 l 1,34,35
 450 425 450 425 449 448 c 1,36,37
 421 474 421 474 388 474 c 128,-1,38
 355 474 355 474 344 464 c 1,39,40
 324 417 324 417 324 334 c 0,41,42
 324 221 324 221 356 197 c 0,43,44
 372 185 372 185 397 185 c 0,16,17
EndSplineSet
EndChar

StartChar: ordfeminine
Encoding: 170 170 109
Width: 451
GlyphClass: 2
Flags: W
LayerCount: 2
Fore
SplineSet
62.5 308 m 128,-1,1
 24 357 24 357 24 428.5 c 128,-1,2
 24 500 24 500 81 566 c 128,-1,3
 138 632 138 632 221 666 c 1,4,5
 283 666 283 666 358 644 c 1,6,7
 376 666 376 666 385 693 c 1,8,-1
 406 687 l 1,9,10
 388 610 388 610 388 429 c 0,11,12
 388 350 388 350 395 302 c 1,13,14
 417 292 417 292 439 292 c 1,15,-1
 439 274 l 1,16,17
 348 274 348 274 256 259 c 1,18,-1
 251 265 l 1,19,20
 266 330 266 330 266 391 c 1,21,-1
 259 392 l 1,22,23
 231 317 231 317 161 259 c 1,24,0
 101 259 101 259 62.5 308 c 128,-1,1
176 595 m 1,25,26
 163 542 163 542 163 449 c 128,-1,27
 163 356 163 356 189 356 c 0,28,29
 201 356 201 356 219 379.5 c 128,-1,30
 237 403 237 403 253 448 c 1,31,32
 253 528 253 528 251 576 c 1,33,34
 234 599 234 599 203 599 c 0,35,36
 188 599 188 599 176 595 c 1,25,26
EndSplineSet
EndChar

StartChar: guillemotleft
Encoding: 171 171 110
Width: 491
GlyphClass: 2
Flags: W
LayerCount: 2
Fore
SplineSet
143 297 m 1,0,-1
 256 89 l 1,1,-1
 236 75 l 1,2,3
 220 92 220 92 185.5 132 c 128,-1,4
 151 172 151 172 133 192 c 0,5,6
 79 251 79 251 28 283 c 1,7,-1
 28 303 l 1,8,9
 70 327 70 327 97.5 354.5 c 128,-1,10
 125 382 125 382 134 390.5 c 128,-1,11
 143 399 143 399 160.5 418.5 c 128,-1,12
 178 438 178 438 184 445 c 0,13,14
 215 478 215 478 236 503 c 1,15,-1
 255 490 l 1,16,-1
 143 297 l 1,0,-1
333 297 m 1,17,-1
 446 109 l 1,18,-1
 426 95 l 1,19,20
 408 112 408 112 375 145.5 c 128,-1,21
 342 179 342 179 323 198 c 0,22,23
 269 250 269 250 218 283 c 1,24,-1
 218 303 l 1,25,26
 253 325 253 325 275.5 343.5 c 128,-1,27
 298 362 298 362 309 371 c 128,-1,28
 320 380 320 380 340 399 c 128,-1,29
 360 418 360 418 367 425 c 128,-1,30
 374 432 374 432 397.5 455 c 128,-1,31
 421 478 421 478 426 483 c 1,32,-1
 445 470 l 1,33,-1
 333 297 l 1,17,-1
EndSplineSet
EndChar

StartChar: logicalnot
Encoding: 172 172 111
Width: 576
GlyphClass: 2
Flags: W
LayerCount: 2
Fore
SplineSet
450 228 m 1,0,-1
 62 228 l 1,1,-1
 54 235 l 1,2,-1
 63 301 l 1,3,4
 233 292 233 292 352.5 292 c 128,-1,5
 472 292 472 292 511 295 c 1,6,-1
 517 289 l 1,7,8
 517 220 517 220 522 88 c 1,9,-1
 517 82 l 1,10,-1
 450 91 l 1,11,-1
 450 228 l 1,0,-1
EndSplineSet
EndChar

StartChar: registered
Encoding: 174 174 112
Width: 434
GlyphClass: 2
Flags: W
LayerCount: 2
Fore
SplineSet
21 500 m 128,-1,1
 21 582 21 582 78 639 c 128,-1,2
 135 696 135 696 217 696 c 128,-1,3
 299 696 299 696 356 639 c 128,-1,4
 413 582 413 582 413 500 c 128,-1,5
 413 418 413 418 356 361 c 128,-1,6
 299 304 299 304 217 304 c 128,-1,7
 135 304 135 304 78 361 c 128,-1,0
 21 418 21 418 21 500 c 128,-1,1
62 500 m 128,-1,9
 62 435 62 435 107 389 c 128,-1,10
 152 343 152 343 217 343 c 128,-1,11
 282 343 282 343 326 388.5 c 128,-1,12
 370 434 370 434 370 499.5 c 128,-1,13
 370 565 370 565 326 610 c 128,-1,14
 282 655 282 655 217 655 c 128,-1,15
 152 655 152 655 107 610 c 128,-1,8
 62 565 62 565 62 500 c 128,-1,9
125 606 m 1,16,-1
 222 608 l 2,17,18
 259 608 259 608 278 597.5 c 128,-1,19
 297 587 297 587 297 555.5 c 128,-1,20
 297 524 297 524 262 506 c 1,21,-1
 305 419 l 1,22,23
 315 416 315 416 322 413 c 1,24,-1
 320 404 l 1,25,26
 302 407 302 407 279.5 407 c 128,-1,27
 257 407 257 407 237 405 c 1,28,-1
 236 411 l 1,29,30
 242 419 242 419 242 436.5 c 128,-1,31
 242 454 242 454 227 499 c 1,32,-1
 211 499 l 1,33,-1
 212 514 l 1,34,-1
 215 514 l 2,35,36
 238 514 238 514 238 552 c 128,-1,37
 238 590 238 590 217 590 c 0,38,39
 211 590 211 590 205 588 c 1,40,41
 202 568 202 568 202 503 c 128,-1,42
 202 438 202 438 206 418 c 1,43,44
 221 414 221 414 224 413 c 1,45,-1
 223 404 l 1,46,47
 198 407 198 407 173 407 c 128,-1,48
 148 407 148 407 127 404 c 1,49,-1
 126 413 l 1,50,-1
 142 419 l 1,51,52
 146 455 146 455 146 497.5 c 128,-1,53
 146 540 146 540 142 592 c 1,54,55
 132 597 132 597 125 597 c 1,56,-1
 125 606 l 1,16,-1
EndSplineSet
EndChar

StartChar: macron
Encoding: 175 175 113
Width: 323
GlyphClass: 2
Flags: W
LayerCount: 2
Fore
SplineSet
57 729 m 2,0,1
 123 725 123 725 190.5 725 c 128,-1,2
 258 725 258 725 315 730 c 1,3,-1
 323 725 l 1,4,-1
 311 645 l 1,5,-1
 9 642 l 1,6,-1
 0 648 l 1,7,-1
 12 732 l 1,8,-1
 57 729 l 2,0,1
EndSplineSet
EndChar

StartChar: degree
Encoding: 176 176 114
Width: 367
GlyphClass: 2
Flags: W
LayerCount: 2
Fore
SplineSet
85 425.5 m 128,-1,1
 45 455 45 455 45 512.5 c 128,-1,2
 45 570 45 570 86.5 613 c 128,-1,3
 128 656 128 656 192 667 c 1,4,5
 250 667 250 667 286 637 c 128,-1,6
 322 607 322 607 322 549.5 c 128,-1,7
 322 492 322 492 284 450.5 c 128,-1,8
 246 409 246 409 184 396 c 1,9,0
 125 396 125 396 85 425.5 c 128,-1,1
174 614 m 0,10,11
 142 614 142 614 127 602 c 1,12,13
 114 574 114 574 114 535.5 c 128,-1,14
 114 497 114 497 134 473 c 128,-1,15
 154 449 154 449 189.5 449 c 128,-1,16
 225 449 225 449 240 461 c 1,17,18
 253 489 253 489 253 525 c 0,19,20
 253 614 253 614 174 614 c 0,10,11
EndSplineSet
EndChar

StartChar: plusminus
Encoding: 177 177 115
Width: 576
GlyphClass: 2
Flags: W
LayerCount: 2
Fore
SplineSet
324 262 m 1,0,1
 324 185 324 185 333 90 c 1,2,-1
 263 86 l 1,3,-1
 253 88 l 1,4,-1
 253 262 l 1,5,-1
 69 262 l 1,6,-1
 61 269 l 1,7,-1
 70 340 l 1,8,9
 192 334 192 334 253 333 c 1,10,-1
 253 486 l 1,11,-1
 324 495 l 1,12,-1
 329 489 l 1,13,14
 324 401 324 401 324 333 c 2,15,-1
 324 332 l 1,16,17
 361 331 361 331 420 331 c 128,-1,18
 479 331 479 331 518 334 c 1,19,-1
 524 328 l 1,20,-1
 515 262 l 1,21,-1
 324 262 l 1,0,1
62 58 m 1,22,23
 232 49 232 49 351.5 49 c 128,-1,24
 471 49 471 49 510 52 c 1,25,-1
 516 46 l 1,26,-1
 507 -10 l 1,27,-1
 61 -10 l 1,28,-1
 53 -3 l 1,29,-1
 62 58 l 1,22,23
EndSplineSet
EndChar

StartChar: twosuperior
Encoding: 178 178 116
Width: 396
GlyphClass: 2
Flags: W
LayerCount: 2
Fore
SplineSet
175 453 m 1,0,1
 188 460 188 460 196 461 c 128,-1,2
 204 462 204 462 231 462 c 128,-1,3
 258 462 258 462 321 454 c 1,4,5
 331 473 331 473 341 501 c 1,6,-1
 362 495 l 1,7,8
 352 462 352 462 352 420 c 128,-1,9
 352 378 352 378 359 346 c 1,10,-1
 349 339 l 1,11,12
 187 369 187 369 70 369 c 1,13,14
 52 361 52 361 34 337 c 1,15,-1
 14 347 l 1,16,17
 38 397 38 397 122 476 c 0,18,19
 149 502 149 502 171 537 c 128,-1,20
 193 572 193 572 193 606 c 0,21,22
 193 652 193 652 143 652 c 0,23,24
 121 652 121 652 112 644 c 1,25,26
 107 632 107 632 107 615.5 c 128,-1,27
 107 599 107 599 116 593 c 1,28,-1
 116 587 l 1,29,30
 89 576 89 576 55 544 c 1,31,32
 32 544 32 544 32 568 c 0,33,34
 32 608 32 608 87 667 c 128,-1,35
 142 726 142 726 186 746 c 1,36,37
 276 746 276 746 310 714.5 c 128,-1,38
 344 683 344 683 344 596 c 1,39,40
 259 517 259 517 171 458 c 1,41,-1
 175 453 l 1,0,1
EndSplineSet
EndChar

StartChar: threesuperior
Encoding: 179 179 117
Width: 380
GlyphClass: 2
Flags: W
LayerCount: 2
Fore
SplineSet
87 497 m 1,0,1
 87 470 87 470 88 455 c 1,2,3
 103 429 103 429 125 412 c 128,-1,4
 147 395 147 395 168 395 c 128,-1,5
 189 395 189 395 197 402 c 1,6,7
 205 425 205 425 205 452 c 0,8,9
 205 525 205 525 132 525 c 1,10,-1
 128 531 l 1,11,-1
 214 631 l 1,12,-1
 212 634 l 1,13,14
 201 629 201 629 193 627 c 1,15,16
 140 627 140 627 90 632 c 1,17,18
 80 614 80 614 74 590 c 1,19,-1
 55 596 l 1,20,21
 62 636 62 636 62 673 c 128,-1,22
 62 710 62 710 53 739 c 1,23,-1
 62 745 l 1,24,25
 187 727 187 727 312 727 c 1,26,27
 323 733 323 733 335 747 c 1,28,-1
 354 733 l 1,29,-1
 232 600 l 1,30,31
 288 595 288 595 322 553.5 c 128,-1,32
 356 512 356 512 356 452 c 1,33,34
 289 383 289 383 166 339 c 1,35,36
 96 339 96 339 32 370 c 1,37,-1
 32 382 l 1,38,39
 63 426 63 426 67 497 c 1,40,-1
 87 497 l 1,0,1
EndSplineSet
EndChar

StartChar: acute
Encoding: 180 180 118
Width: 272
GlyphClass: 2
Flags: W
LayerCount: 2
Fore
SplineSet
199 784 m 1,0,1
 208 787 208 787 224.5 787 c 128,-1,2
 241 787 241 787 247 785 c 1,3,4
 256 770 256 770 263.5 730.5 c 128,-1,5
 271 691 271 691 272 664 c 1,6,-1
 10 567 l 1,7,-1
 0 591 l 1,8,9
 125 659 125 659 199 784 c 1,0,1
EndSplineSet
EndChar

StartChar: mu
Encoding: 181 181 119
AltUni2: 0003bc.ffffffff.0
Width: 529
GlyphClass: 2
Flags: W
LayerCount: 2
Fore
SplineSet
43 193 m 2,0,-1
 43 271 l 2,1,2
 43 423 43 423 28 480 c 1,3,-1
 35 486 l 1,4,5
 131 486 131 486 219 505 c 1,6,-1
 226 498 l 1,7,8
 213 457 213 457 204 377 c 128,-1,9
 195 297 195 297 195 229 c 128,-1,10
 195 161 195 161 201 131 c 128,-1,11
 207 101 207 101 224 101 c 0,12,13
 248 101 248 101 275.5 136 c 128,-1,14
 303 171 303 171 322 227 c 1,15,16
 322 414 322 414 308 486 c 1,17,18
 397 486 397 486 485 505 c 1,19,-1
 499 497 l 1,20,21
 493 472 493 472 489 452 c 0,22,23
 475 382 475 382 475 168 c 1,24,25
 477 90 477 90 483 40 c 1,26,27
 507 29 507 29 539 27 c 1,28,-1
 539 5 l 1,29,30
 430 5 430 5 318 -15 c 1,31,-1
 311 -8 l 1,32,33
 330 74 330 74 330 159 c 1,34,-1
 320 160 l 1,35,36
 300 109 300 109 265 60 c 128,-1,37
 230 11 230 11 190 -15 c 1,38,-1
 148 -6 l 1,39,40
 149 -109 149 -109 168 -180 c 1,41,-1
 161 -186 l 1,42,43
 101 -190 101 -190 24 -215 c 1,44,-1
 17 -208 l 1,45,46
 36 -51 36 -51 39.5 33.5 c 128,-1,47
 43 118 43 118 43 193 c 2,0,-1
EndSplineSet
EndChar

StartChar: paragraph
Encoding: 182 182 120
Width: 588
GlyphClass: 2
Flags: W
LayerCount: 2
Fore
SplineSet
348 651 m 1,0,1
 331 532 331 532 331 325 c 2,2,-1
 331 181 l 2,3,4
 331 34 331 34 276.5 -40.5 c 128,-1,5
 222 -115 222 -115 136 -115 c 0,6,7
 85 -115 85 -115 85 -88 c 1,8,9
 118 -56 118 -56 142 -18 c 1,10,-1
 149 -17 l 1,11,12
 162 -29 162 -29 194 -29 c 128,-1,13
 226 -29 226 -29 245 -20 c 1,14,15
 267 41 267 41 267 131 c 2,16,-1
 267 296 l 1,17,18
 255 295 255 295 233 295 c 0,19,20
 128 295 128 295 61.5 359 c 128,-1,21
 -5 423 -5 423 -5 496 c 128,-1,22
 -5 569 -5 569 46 613.5 c 128,-1,23
 97 658 97 658 196 658 c 0,24,25
 210 658 210 658 348 651 c 1,0,1
379.5 90.5 m 128,-1,27
 383 146 383 146 383 350.5 c 128,-1,28
 383 555 383 555 395 649 c 1,29,30
 438 645 438 645 531 645 c 2,31,-1
 567 645 l 1,32,-1
 567 620 l 1,33,34
 538 620 538 620 490 604 c 1,35,36
 478 502 478 502 478 314 c 128,-1,37
 478 126 478 126 491 38 c 1,38,39
 506 36 506 36 566 17 c 1,40,-1
 562 -8 l 1,41,42
 501 0 501 0 444.5 0 c 128,-1,43
 388 0 388 0 368 -1 c 1,44,-1
 366 3 l 1,45,26
 376 35 376 35 379.5 90.5 c 128,-1,27
EndSplineSet
EndChar

StartChar: periodcentered
Encoding: 183 183 121
Width: 257
GlyphClass: 2
Flags: W
LayerCount: 2
Fore
SplineSet
223 285 m 1,0,1
 212 263 212 263 182 232 c 128,-1,2
 152 201 152 201 129 185 c 1,3,4
 106 200 106 200 76 231.5 c 128,-1,5
 46 263 46 263 34 285 c 1,6,7
 47 306 47 306 74.5 330 c 128,-1,8
 102 354 102 354 129 366 c 1,9,10
 153 353 153 353 181 329.5 c 128,-1,11
 209 306 209 306 223 285 c 1,0,1
EndSplineSet
EndChar

StartChar: cedilla
Encoding: 184 184 122
Width: 220
GlyphClass: 2
Flags: W
LayerCount: 2
Fore
SplineSet
108 -175 m 0,0,1
 125 -175 125 -175 137 -170 c 1,2,3
 143 -160 143 -160 143 -147 c 0,4,5
 143 -107 143 -107 54 -107 c 1,6,-1
 48 -103 l 1,7,-1
 86 14 l 1,8,-1
 125 16 l 1,9,-1
 102 -36 l 1,10,-1
 106 -39 l 1,11,12
 220 -39 220 -39 220 -116 c 1,13,14
 181 -191 181 -191 98 -235 c 1,15,16
 44 -235 44 -235 0 -214 c 1,17,18
 27 -173 27 -173 36 -138 c 1,19,-1
 40 -136 l 1,20,21
 64 -175 64 -175 108 -175 c 0,0,1
EndSplineSet
EndChar

StartChar: onesuperior
Encoding: 185 185 123
Width: 316
GlyphClass: 2
Flags: W
LayerCount: 2
Fore
SplineSet
82 380 m 1,0,1
 90 449 90 449 90 518.5 c 128,-1,2
 90 588 90 588 87 635 c 1,3,-1
 26 635 l 1,4,-1
 24 637 l 1,5,6
 24 652 24 652 27 661 c 1,7,8
 72 670 72 670 119.5 692.5 c 128,-1,9
 167 715 167 715 197 743 c 1,10,11
 215 746 215 746 233 746 c 1,12,-1
 236 744 l 1,13,14
 225 663 225 663 225 545.5 c 128,-1,15
 225 428 225 428 231 382 c 1,16,17
 249 376 249 376 276 364 c 1,18,-1
 273 341 l 1,19,20
 205 352 205 352 145 352 c 128,-1,21
 85 352 85 352 34 341 c 1,22,-1
 32 364 l 1,23,24
 57 375 57 375 82 380 c 1,0,1
EndSplineSet
EndChar

StartChar: ordmasculine
Encoding: 186 186 124
Width: 425
GlyphClass: 2
Flags: W
LayerCount: 2
Fore
SplineSet
24 426 m 128,-1,1
 24 502 24 502 82 567.5 c 128,-1,2
 140 633 140 633 222 666 c 1,3,4
 311 666 311 666 356 623 c 128,-1,5
 401 580 401 580 401 501 c 128,-1,6
 401 422 401 422 347 356.5 c 128,-1,7
 293 291 293 291 213 259 c 1,8,9
 127 259 127 259 75.5 304.5 c 128,-1,0
 24 350 24 350 24 426 c 128,-1,1
239 581 m 128,-1,11
 227 602 227 602 208.5 602 c 128,-1,12
 190 602 190 602 179 595 c 1,13,14
 167 544 167 544 167 471 c 128,-1,15
 167 398 167 398 178 360.5 c 128,-1,16
 189 323 189 323 221 323 c 0,17,18
 236 323 236 323 246 330 c 1,19,20
 258 381 258 381 258 441.5 c 128,-1,21
 258 502 258 502 254.5 531 c 128,-1,10
 251 560 251 560 239 581 c 128,-1,11
EndSplineSet
EndChar

StartChar: guillemotright
Encoding: 187 187 125
Width: 491
GlyphClass: 2
Flags: W
LayerCount: 2
Fore
SplineSet
235 89 m 1,0,-1
 348 297 l 1,1,-1
 236 490 l 1,2,-1
 255 503 l 1,3,4
 276 478 276 478 294.5 458 c 128,-1,5
 313 438 313 438 330.5 418.5 c 128,-1,6
 348 399 348 399 357 390.5 c 128,-1,7
 366 382 366 382 381.5 366.5 c 128,-1,8
 397 351 397 351 408 342 c 0,9,10
 446 313 446 313 463 303 c 1,11,-1
 463 283 l 1,12,13
 412 251 412 251 358 192 c 0,14,15
 340 172 340 172 305.5 132 c 128,-1,16
 271 92 271 92 255 75 c 1,17,-1
 235 89 l 1,0,-1
45 109 m 1,18,-1
 158 297 l 1,19,-1
 46 470 l 1,20,-1
 65 483 l 1,21,22
 70 478 70 478 93.5 455 c 128,-1,23
 117 432 117 432 124 425 c 128,-1,24
 131 418 131 418 151 399 c 128,-1,25
 171 380 171 380 182 371 c 128,-1,26
 193 362 193 362 210 348 c 0,27,28
 238 325 238 325 273 303 c 1,29,-1
 273 283 l 1,30,31
 222 250 222 250 185.5 214.5 c 128,-1,32
 149 179 149 179 116 145.5 c 128,-1,33
 83 112 83 112 65 95 c 1,34,-1
 45 109 l 1,18,-1
EndSplineSet
EndChar

StartChar: onequarter
Encoding: 188 188 126
Width: 850
GlyphClass: 2
Flags: W
LayerCount: 2
Fore
SplineSet
740 262 m 2,0,-1
 740 165 l 1,1,2
 795 165 795 165 806 197 c 1,3,-1
 820 193 l 1,4,5
 814 166 814 166 814 137 c 128,-1,6
 814 108 814 108 815 90 c 1,7,-1
 811 88 l 1,8,9
 787 90 787 90 741 90 c 1,10,11
 741 67 741 67 746 42 c 1,12,13
 755 37 755 37 792 27 c 1,14,-1
 788 4 l 1,15,16
 735 12 735 12 662 12 c 128,-1,17
 589 12 589 12 547 2 c 1,18,-1
 544 23 l 1,19,20
 570 34 570 34 599 40 c 1,21,22
 604 69 604 69 604 90 c 1,23,-1
 435 90 l 1,24,-1
 428 126 l 1,25,26
 533 246 533 246 602 386 c 1,27,28
 693 394 693 394 740 406 c 1,29,-1
 749 403 l 1,30,31
 740 355 740 355 740 262 c 2,0,-1
92 300 m 1,32,33
 100 369 100 369 100 438.5 c 128,-1,34
 100 508 100 508 97 555 c 1,35,-1
 36 555 l 1,36,-1
 34 557 l 1,37,38
 34 572 34 572 37 581 c 1,39,40
 82 590 82 590 129.5 612.5 c 128,-1,41
 177 635 177 635 207 663 c 1,42,43
 225 666 225 666 243 666 c 1,44,-1
 246 664 l 1,45,46
 235 583 235 583 235 465.5 c 128,-1,47
 235 348 235 348 241 302 c 1,48,49
 259 296 259 296 286 284 c 1,50,-1
 283 261 l 1,51,52
 215 272 215 272 155 272 c 128,-1,53
 95 272 95 272 44 261 c 1,54,-1
 42 284 l 1,55,56
 67 295 67 295 92 300 c 1,32,33
169 -42 m 1,57,58
 155 -39 155 -39 139.5 -23.5 c 128,-1,59
 124 -8 124 -8 121 -1 c 1,60,61
 214 117 214 117 246 160 c 2,62,-1
 500 511 l 2,63,64
 559 593 559 593 632 704 c 1,65,66
 649 700 649 700 699 697 c 1,67,-1
 703 694 l 1,68,69
 671 654 671 654 567 510 c 2,70,-1
 169 -42 l 1,57,58
601 310 m 1,71,72
 567 228 567 228 526 172 c 1,73,74
 561 166 561 166 604 166 c 1,75,-1
 606 310 l 1,76,-1
 601 310 l 1,71,72
EndSplineSet
EndChar

StartChar: onehalf
Encoding: 189 189 127
Width: 850
GlyphClass: 2
Flags: W
LayerCount: 2
Fore
SplineSet
169 -42 m 1,0,1
 155 -39 155 -39 139.5 -23.5 c 128,-1,2
 124 -8 124 -8 121 -1 c 1,3,4
 214 117 214 117 246 160 c 2,5,-1
 500 511 l 2,6,7
 559 593 559 593 632 704 c 1,8,9
 649 700 649 700 699 697 c 1,10,-1
 703 694 l 1,11,12
 671 654 671 654 567 510 c 2,13,-1
 169 -42 l 1,0,1
95 300 m 1,14,15
 103 369 103 369 103 438.5 c 128,-1,16
 103 508 103 508 100 555 c 1,17,-1
 39 555 l 1,18,-1
 37 557 l 1,19,20
 37 572 37 572 40 581 c 1,21,22
 87 591 87 591 139 613.5 c 128,-1,23
 191 636 191 636 220 663 c 1,24,25
 238 666 238 666 256 666 c 1,26,-1
 259 664 l 1,27,28
 248 583 248 583 248 465.5 c 128,-1,29
 248 348 248 348 254 302 c 1,30,31
 272 296 272 296 299 284 c 1,32,-1
 296 261 l 1,33,34
 228 272 228 272 163 272 c 128,-1,35
 98 272 98 272 47 261 c 1,36,-1
 45 284 l 1,37,38
 70 295 70 295 95 300 c 1,14,15
618 114 m 1,39,40
 631 121 631 121 639 122 c 128,-1,41
 647 123 647 123 674 123 c 128,-1,42
 701 123 701 123 764 115 c 1,43,44
 774 134 774 134 784 162 c 1,45,-1
 805 156 l 1,46,47
 795 123 795 123 795 80.5 c 128,-1,48
 795 38 795 38 802 7 c 1,49,-1
 792 0 l 1,50,51
 630 30 630 30 513 30 c 1,52,53
 495 22 495 22 477 -2 c 1,54,-1
 457 8 l 1,55,56
 481 58 481 58 564 137 c 0,57,58
 592 163 592 163 614 198 c 128,-1,59
 636 233 636 233 636 267 c 0,60,61
 636 313 636 313 586 313 c 0,62,63
 564 313 564 313 555 305 c 1,64,65
 550 293 550 293 550 276.5 c 128,-1,66
 550 260 550 260 559 254 c 1,67,-1
 559 248 l 1,68,69
 532 237 532 237 498 205 c 1,70,71
 475 205 475 205 475 229 c 0,72,73
 475 269 475 269 530 328 c 128,-1,74
 585 387 585 387 629 407 c 1,75,76
 719 407 719 407 753 375.5 c 128,-1,77
 787 344 787 344 787 257 c 1,78,79
 702 178 702 178 614 119 c 1,80,-1
 618 114 l 1,39,40
EndSplineSet
EndChar

StartChar: threequarters
Encoding: 190 190 128
Width: 850
GlyphClass: 2
Flags: W
LayerCount: 2
Fore
SplineSet
740 262 m 2,0,-1
 740 165 l 1,1,2
 795 165 795 165 806 197 c 1,3,-1
 820 193 l 1,4,5
 814 166 814 166 814 137 c 128,-1,6
 814 108 814 108 815 90 c 1,7,-1
 811 88 l 1,8,9
 787 90 787 90 741 90 c 1,10,11
 741 67 741 67 746 42 c 1,12,13
 755 37 755 37 792 27 c 1,14,-1
 788 4 l 1,15,16
 735 12 735 12 662 12 c 128,-1,17
 589 12 589 12 547 2 c 1,18,-1
 544 23 l 1,19,20
 570 34 570 34 599 40 c 1,21,22
 604 69 604 69 604 90 c 1,23,-1
 435 90 l 1,24,-1
 428 126 l 1,25,26
 533 246 533 246 602 386 c 1,27,28
 693 394 693 394 740 406 c 1,29,-1
 749 403 l 1,30,31
 740 355 740 355 740 262 c 2,0,-1
97 417 m 1,32,33
 97 390 97 390 98 375 c 1,34,35
 113 349 113 349 135 332 c 128,-1,36
 157 315 157 315 178 315 c 128,-1,37
 199 315 199 315 207 322 c 1,38,39
 215 345 215 345 215 372 c 0,40,41
 215 445 215 445 142 445 c 1,42,-1
 138 451 l 1,43,-1
 224 551 l 1,44,-1
 222 554 l 1,45,46
 211 549 211 549 203 547 c 1,47,48
 150 547 150 547 100 552 c 1,49,50
 90 534 90 534 84 510 c 1,51,-1
 65 516 l 1,52,53
 72 556 72 556 72 593 c 128,-1,54
 72 630 72 630 63 659 c 1,55,-1
 72 665 l 1,56,57
 197 647 197 647 322 647 c 1,58,59
 333 653 333 653 345 667 c 1,60,-1
 364 653 l 1,61,-1
 242 520 l 1,62,63
 298 515 298 515 332 473.5 c 128,-1,64
 366 432 366 432 366 372 c 1,65,66
 299 303 299 303 176 259 c 1,67,68
 106 259 106 259 42 290 c 1,69,-1
 42 302 l 1,70,71
 73 346 73 346 77 417 c 1,72,-1
 97 417 l 1,32,33
169 -42 m 1,73,74
 155 -39 155 -39 139.5 -23.5 c 128,-1,75
 124 -8 124 -8 121 -1 c 1,76,77
 214 117 214 117 246 160 c 2,78,-1
 500 511 l 2,79,80
 559 593 559 593 632 704 c 1,81,82
 649 700 649 700 699 697 c 1,83,-1
 703 694 l 1,84,85
 671 654 671 654 567 510 c 2,86,-1
 169 -42 l 1,73,74
601 310 m 1,87,88
 567 228 567 228 526 172 c 1,89,90
 561 166 561 166 604 166 c 1,91,-1
 606 310 l 1,92,-1
 601 310 l 1,87,88
EndSplineSet
EndChar

StartChar: questiondown
Encoding: 191 191 129
Width: 351
GlyphClass: 2
Flags: W
LayerCount: 2
Fore
SplineSet
90 430 m 1,0,1
 104 451 104 451 132 474.5 c 128,-1,2
 160 498 160 498 184 511 c 1,3,4
 211 499 211 499 238.5 475 c 128,-1,5
 266 451 266 451 279 430 c 1,6,7
 267 408 267 408 237 376.5 c 128,-1,8
 207 345 207 345 184 330 c 1,9,10
 161 346 161 346 131 377 c 128,-1,11
 101 408 101 408 90 430 c 1,0,1
146 -79 m 0,12,13
 146 -141 146 -141 204 -141 c 0,14,15
 225 -141 225 -141 246 -133 c 1,16,17
 254 -111 254 -111 254 -83.5 c 128,-1,18
 254 -56 254 -56 243 -46 c 1,19,-1
 244 -39 l 1,20,21
 297 -20 297 -20 332 11 c 1,22,23
 358 9 358 9 358 -18 c 0,24,25
 358 -79 358 -79 295.5 -139.5 c 128,-1,26
 233 -200 233 -200 166 -215 c 1,27,28
 80 -215 80 -215 25 -174 c 128,-1,29
 -30 -133 -30 -133 -30 -56 c 1,30,31
 25 18 25 18 141 104 c 1,32,33
 159 214 159 214 163 247 c 1,34,-1
 211 252 l 1,35,-1
 233 122 l 1,36,-1
 233 103 l 1,37,38
 146 31 146 31 146 -79 c 0,12,13
EndSplineSet
EndChar

StartChar: Agrave
Encoding: 192 192 130
Width: 677
GlyphClass: 2
Flags: W
LayerCount: 2
Fore
SplineSet
591 677 m 1,0,1
 567 550 567 550 567 339.5 c 128,-1,2
 567 129 567 129 581 34 c 1,3,4
 620 27 620 27 641 17 c 1,5,-1
 638 -9 l 1,6,7
 566 0 566 0 481.5 0 c 128,-1,8
 397 0 397 0 337 -9 c 1,9,-1
 333 18 l 1,10,11
 355 30 355 30 389 37 c 1,12,13
 397 101 397 101 401 230 c 1,14,15
 374 234 374 234 326.5 234 c 128,-1,16
 279 234 279 234 246 229 c 1,17,18
 231 132 231 132 231 96 c 128,-1,19
 231 60 231 60 239.5 39.5 c 128,-1,20
 248 19 248 19 273 9 c 1,21,-1
 270 -7 l 1,22,23
 216 0 216 0 141.5 0 c 128,-1,24
 67 0 67 0 13 -9 c 1,25,-1
 9 18 l 1,26,27
 29 29 29 29 65 37 c 1,28,-1
 211 582 l 1,29,30
 123 582 123 582 101 560 c 1,31,32
 92 535 92 535 92 508.5 c 128,-1,33
 92 482 92 482 107 473 c 1,34,-1
 106 466 l 1,35,36
 59 447 59 447 25 416 c 1,37,38
 -1 418 -1 418 -1 445 c 0,39,40
 -1 510 -1 510 60.5 576.5 c 128,-1,41
 122 643 122 643 192 666 c 1,42,43
 345 641 345 641 535 625 c 1,44,45
 554 645 554 645 566 684 c 1,46,-1
 591 677 l 1,0,1
402 326 m 2,47,48
 402 460 402 460 395 567 c 1,49,-1
 392 570 l 1,50,51
 357 576 357 576 304 576 c 1,52,-1
 256 301 l 1,53,54
 292 297 292 297 333.5 297 c 128,-1,55
 375 297 375 297 402 301 c 1,56,-1
 402 326 l 2,47,48
214 893 m 1,57,58
 222 896 222 896 236.5 896 c 128,-1,59
 251 896 251 896 262 893 c 1,60,61
 318 808 318 808 461 741 c 1,62,-1
 451 717 l 1,63,-1
 189 783 l 1,64,65
 190 809 190 809 197.5 843 c 128,-1,66
 205 877 205 877 214 893 c 1,57,58
EndSplineSet
EndChar

StartChar: Aacute
Encoding: 193 193 131
Width: 677
GlyphClass: 2
Flags: W
LayerCount: 2
Fore
SplineSet
591 677 m 1,0,1
 567 550 567 550 567 339.5 c 128,-1,2
 567 129 567 129 581 34 c 1,3,4
 620 27 620 27 641 17 c 1,5,-1
 638 -9 l 1,6,7
 566 0 566 0 481.5 0 c 128,-1,8
 397 0 397 0 337 -9 c 1,9,-1
 333 18 l 1,10,11
 355 30 355 30 389 37 c 1,12,13
 397 101 397 101 401 230 c 1,14,15
 374 234 374 234 326.5 234 c 128,-1,16
 279 234 279 234 246 229 c 1,17,18
 231 132 231 132 231 96 c 128,-1,19
 231 60 231 60 239.5 39.5 c 128,-1,20
 248 19 248 19 273 9 c 1,21,-1
 270 -7 l 1,22,23
 216 0 216 0 141.5 0 c 128,-1,24
 67 0 67 0 13 -9 c 1,25,-1
 9 18 l 1,26,27
 29 29 29 29 65 37 c 1,28,-1
 211 582 l 1,29,30
 123 582 123 582 101 560 c 1,31,32
 92 535 92 535 92 508.5 c 128,-1,33
 92 482 92 482 107 473 c 1,34,-1
 106 466 l 1,35,36
 59 447 59 447 25 416 c 1,37,38
 -1 418 -1 418 -1 445 c 0,39,40
 -1 510 -1 510 60.5 576.5 c 128,-1,41
 122 643 122 643 192 666 c 1,42,43
 345 641 345 641 535 625 c 1,44,45
 554 645 554 645 566 684 c 1,46,-1
 591 677 l 1,0,1
402 326 m 2,47,48
 402 460 402 460 395 567 c 1,49,-1
 392 570 l 1,50,51
 357 576 357 576 304 576 c 1,52,-1
 256 301 l 1,53,54
 292 297 292 297 333.5 297 c 128,-1,55
 375 297 375 297 402 301 c 1,56,-1
 402 326 l 2,47,48
516 883 m 1,57,58
 525 886 525 886 540.5 886 c 128,-1,59
 556 886 556 886 564 883 c 1,60,61
 573 867 573 867 580.5 833 c 128,-1,62
 588 799 588 799 589 773 c 1,63,-1
 327 707 l 1,64,-1
 317 731 l 1,65,66
 460 798 460 798 516 883 c 1,57,58
EndSplineSet
EndChar

StartChar: Acircumflex
Encoding: 194 194 132
Width: 677
GlyphClass: 2
Flags: W
LayerCount: 2
Fore
SplineSet
591 677 m 1,0,1
 567 550 567 550 567 339.5 c 128,-1,2
 567 129 567 129 581 34 c 1,3,4
 620 27 620 27 641 17 c 1,5,-1
 638 -9 l 1,6,7
 566 0 566 0 481.5 0 c 128,-1,8
 397 0 397 0 337 -9 c 1,9,-1
 333 18 l 1,10,11
 355 30 355 30 389 37 c 1,12,13
 397 101 397 101 401 230 c 1,14,15
 374 234 374 234 326.5 234 c 128,-1,16
 279 234 279 234 246 229 c 1,17,18
 231 132 231 132 231 96 c 128,-1,19
 231 60 231 60 239.5 39.5 c 128,-1,20
 248 19 248 19 273 9 c 1,21,-1
 270 -7 l 1,22,23
 216 0 216 0 141.5 0 c 128,-1,24
 67 0 67 0 13 -9 c 1,25,-1
 9 18 l 1,26,27
 29 29 29 29 65 37 c 1,28,-1
 211 582 l 1,29,30
 123 582 123 582 101 560 c 1,31,32
 92 535 92 535 92 508.5 c 128,-1,33
 92 482 92 482 107 473 c 1,34,-1
 106 466 l 1,35,36
 59 447 59 447 25 416 c 1,37,38
 -1 418 -1 418 -1 445 c 0,39,40
 -1 510 -1 510 60.5 576.5 c 128,-1,41
 122 643 122 643 192 666 c 1,42,43
 345 641 345 641 535 625 c 1,44,45
 554 645 554 645 566 684 c 1,46,-1
 591 677 l 1,0,1
402 326 m 2,47,48
 402 460 402 460 395 567 c 1,49,-1
 392 570 l 1,50,51
 357 576 357 576 304 576 c 1,52,-1
 256 301 l 1,53,54
 292 297 292 297 333.5 297 c 128,-1,55
 375 297 375 297 402 301 c 1,56,-1
 402 326 l 2,47,48
359 883 m 1,57,58
 369 886 369 886 389.5 886 c 128,-1,59
 410 886 410 886 421 883 c 1,60,61
 478 798 478 798 604 731 c 1,62,-1
 594 707 l 1,63,-1
 390 769 l 1,64,-1
 186 707 l 1,65,-1
 176 731 l 1,66,67
 302 798 302 798 359 883 c 1,57,58
EndSplineSet
EndChar

StartChar: Atilde
Encoding: 195 195 133
Width: 677
GlyphClass: 2
Flags: W
LayerCount: 2
Fore
SplineSet
591 677 m 1,0,1
 567 550 567 550 567 339.5 c 128,-1,2
 567 129 567 129 581 34 c 1,3,4
 620 27 620 27 641 17 c 1,5,-1
 638 -9 l 1,6,7
 566 0 566 0 481.5 0 c 128,-1,8
 397 0 397 0 337 -9 c 1,9,-1
 333 18 l 1,10,11
 355 30 355 30 389 37 c 1,12,13
 397 101 397 101 401 230 c 1,14,15
 374 234 374 234 326.5 234 c 128,-1,16
 279 234 279 234 246 229 c 1,17,18
 231 132 231 132 231 96 c 128,-1,19
 231 60 231 60 239.5 39.5 c 128,-1,20
 248 19 248 19 273 9 c 1,21,-1
 270 -7 l 1,22,23
 216 0 216 0 141.5 0 c 128,-1,24
 67 0 67 0 13 -9 c 1,25,-1
 9 18 l 1,26,27
 29 29 29 29 65 37 c 1,28,-1
 211 582 l 1,29,30
 123 582 123 582 101 560 c 1,31,32
 92 535 92 535 92 508.5 c 128,-1,33
 92 482 92 482 107 473 c 1,34,-1
 106 466 l 1,35,36
 59 447 59 447 25 416 c 1,37,38
 -1 418 -1 418 -1 445 c 0,39,40
 -1 510 -1 510 60.5 576.5 c 128,-1,41
 122 643 122 643 192 666 c 1,42,43
 345 641 345 641 535 625 c 1,44,45
 554 645 554 645 566 684 c 1,46,-1
 591 677 l 1,0,1
402 326 m 2,47,48
 402 460 402 460 395 567 c 1,49,-1
 392 570 l 1,50,51
 357 576 357 576 304 576 c 1,52,-1
 256 301 l 1,53,54
 292 297 292 297 333.5 297 c 128,-1,55
 375 297 375 297 402 301 c 1,56,-1
 402 326 l 2,47,48
510 835 m 0,57,58
 569 835 569 835 596 874 c 1,59,-1
 620 857 l 1,60,61
 545 755 545 755 482 721 c 1,62,63
 455 721 455 721 387 747 c 128,-1,64
 319 773 319 773 290 773 c 0,65,66
 233 773 233 773 208 734 c 1,67,-1
 184 751 l 1,68,69
 256 851 256 851 353 886 c 1,70,71
 432 835 432 835 510 835 c 0,57,58
EndSplineSet
EndChar

StartChar: Adieresis
Encoding: 196 196 134
Width: 677
GlyphClass: 2
Flags: W
LayerCount: 2
Fore
SplineSet
591 677 m 1,0,1
 567 550 567 550 567 339.5 c 128,-1,2
 567 129 567 129 581 34 c 1,3,4
 620 27 620 27 641 17 c 1,5,-1
 638 -9 l 1,6,7
 566 0 566 0 481.5 0 c 128,-1,8
 397 0 397 0 337 -9 c 1,9,-1
 333 18 l 1,10,11
 355 30 355 30 389 37 c 1,12,13
 397 101 397 101 401 230 c 1,14,15
 374 234 374 234 326.5 234 c 128,-1,16
 279 234 279 234 246 229 c 1,17,18
 231 132 231 132 231 96 c 128,-1,19
 231 60 231 60 239.5 39.5 c 128,-1,20
 248 19 248 19 273 9 c 1,21,-1
 270 -7 l 1,22,23
 216 0 216 0 141.5 0 c 128,-1,24
 67 0 67 0 13 -9 c 1,25,-1
 9 18 l 1,26,27
 29 29 29 29 65 37 c 1,28,-1
 211 582 l 1,29,30
 123 582 123 582 101 560 c 1,31,32
 92 535 92 535 92 508.5 c 128,-1,33
 92 482 92 482 107 473 c 1,34,-1
 106 466 l 1,35,36
 59 447 59 447 25 416 c 1,37,38
 -1 418 -1 418 -1 445 c 0,39,40
 -1 510 -1 510 60.5 576.5 c 128,-1,41
 122 643 122 643 192 666 c 1,42,43
 345 641 345 641 535 625 c 1,44,45
 554 645 554 645 566 684 c 1,46,-1
 591 677 l 1,0,1
402 326 m 2,47,48
 402 460 402 460 395 567 c 1,49,-1
 392 570 l 1,50,51
 357 576 357 576 304 576 c 1,52,-1
 256 301 l 1,53,54
 292 297 292 297 333.5 297 c 128,-1,55
 375 297 375 297 402 301 c 1,56,-1
 402 326 l 2,47,48
365 809 m 1,57,58
 355 788 355 788 326.5 758.5 c 128,-1,59
 298 729 298 729 276 714 c 1,60,61
 254 729 254 729 225.5 758.5 c 128,-1,62
 197 788 197 788 186 809 c 1,63,64
 198 829 198 829 224.5 851.5 c 128,-1,65
 251 874 251 874 276 885 c 1,66,67
 299 873 299 873 325.5 850.5 c 128,-1,68
 352 828 352 828 365 809 c 1,57,58
587 809 m 1,69,70
 577 788 577 788 548.5 758.5 c 128,-1,71
 520 729 520 729 498 714 c 1,72,73
 476 729 476 729 447.5 758.5 c 128,-1,74
 419 788 419 788 408 809 c 1,75,76
 420 829 420 829 446.5 851.5 c 128,-1,77
 473 874 473 874 498 885 c 1,78,79
 521 873 521 873 547.5 850.5 c 128,-1,80
 574 828 574 828 587 809 c 1,69,70
EndSplineSet
EndChar

StartChar: Aring
Encoding: 197 197 135
Width: 677
GlyphClass: 2
Flags: W
LayerCount: 2
Fore
SplineSet
591 677 m 1,0,1
 567 550 567 550 567 339.5 c 128,-1,2
 567 129 567 129 581 34 c 1,3,4
 620 27 620 27 641 17 c 1,5,-1
 638 -9 l 1,6,7
 566 0 566 0 481.5 0 c 128,-1,8
 397 0 397 0 337 -9 c 1,9,-1
 333 18 l 1,10,11
 355 30 355 30 389 37 c 1,12,13
 397 101 397 101 401 230 c 1,14,15
 374 234 374 234 326.5 234 c 128,-1,16
 279 234 279 234 246 229 c 1,17,18
 231 132 231 132 231 96 c 128,-1,19
 231 60 231 60 239.5 39.5 c 128,-1,20
 248 19 248 19 273 9 c 1,21,-1
 270 -7 l 1,22,23
 216 0 216 0 141.5 0 c 128,-1,24
 67 0 67 0 13 -9 c 1,25,-1
 9 18 l 1,26,27
 29 29 29 29 65 37 c 1,28,-1
 211 582 l 1,29,30
 123 582 123 582 101 560 c 1,31,32
 92 535 92 535 92 508.5 c 128,-1,33
 92 482 92 482 107 473 c 1,34,-1
 106 466 l 1,35,36
 59 447 59 447 25 416 c 1,37,38
 -1 418 -1 418 -1 445 c 0,39,40
 -1 510 -1 510 60.5 576.5 c 128,-1,41
 122 643 122 643 192 666 c 1,42,43
 345 641 345 641 535 625 c 1,44,45
 554 645 554 645 566 684 c 1,46,-1
 591 677 l 1,0,1
402 326 m 2,47,48
 402 460 402 460 395 567 c 1,49,-1
 392 570 l 1,50,51
 357 576 357 576 304 576 c 1,52,-1
 256 301 l 1,53,54
 292 297 292 297 333.5 297 c 128,-1,55
 375 297 375 297 402 301 c 1,56,-1
 402 326 l 2,47,48
316 710.5 m 128,-1,58
 284 732 284 732 284 775 c 128,-1,59
 284 818 284 818 317.5 851.5 c 128,-1,60
 351 885 351 885 402 896 c 1,61,62
 505 896 505 896 505 812 c 0,63,64
 505 767 505 767 474 735 c 128,-1,65
 443 703 443 703 395 689 c 1,66,57
 348 689 348 689 316 710.5 c 128,-1,58
428.5 832 m 128,-1,68
 413 848 413 848 388 848 c 128,-1,69
 363 848 363 848 352 840 c 1,70,71
 345 822 345 822 345 795.5 c 128,-1,72
 345 769 345 769 361 752.5 c 128,-1,73
 377 736 377 736 400.5 736 c 128,-1,74
 424 736 424 736 437 745 c 1,75,76
 444 763 444 763 444 789.5 c 128,-1,67
 444 816 444 816 428.5 832 c 128,-1,68
EndSplineSet
EndChar

StartChar: AE
Encoding: 198 198 136
Width: 775
GlyphClass: 2
Flags: W
LayerCount: 2
Fore
SplineSet
106 576 m 1,0,1
 97 551 97 551 97 524.5 c 128,-1,2
 97 498 97 498 112 489 c 1,3,-1
 111 482 l 1,4,5
 64 463 64 463 30 432 c 1,6,7
 4 434 4 434 4 461 c 0,8,9
 4 526 4 526 65.5 592.5 c 128,-1,10
 127 659 127 659 197 682 c 1,11,12
 301 651 301 651 482.5 651 c 128,-1,13
 664 651 664 651 755 664 c 1,14,-1
 761 643 l 1,15,16
 722 591 722 591 719 480 c 1,17,-1
 692 480 l 1,18,19
 683 526 683 526 683 567 c 1,20,21
 647 584 647 584 596.5 584 c 128,-1,22
 546 584 546 584 529 577 c 1,23,24
 504 511 504 511 501 382 c 1,25,26
 535 374 535 374 563 374 c 0,27,28
 622 374 622 374 653 410 c 1,29,-1
 675 405 l 1,30,31
 662 366 662 366 662 325 c 128,-1,32
 662 284 662 284 672 236 c 1,33,-1
 647 232 l 1,34,35
 633 268 633 268 626 306 c 1,36,37
 604 312 604 312 569.5 312 c 128,-1,38
 535 312 535 312 500 307 c 1,39,40
 500 152 500 152 524 118 c 0,41,42
 548 83 548 83 603 83 c 0,43,44
 681 83 681 83 744 144 c 1,45,-1
 760 129 l 1,46,47
 671 8 671 8 552 -15 c 1,48,49
 492 -15 492 -15 452.5 1 c 128,-1,50
 413 17 413 17 392 38 c 128,-1,51
 371 59 371 59 361 108.5 c 128,-1,52
 351 158 351 158 349.5 194.5 c 128,-1,53
 348 231 348 231 348 308 c 1,54,55
 329 312 329 312 299.5 312 c 128,-1,56
 270 312 270 312 238 307 c 1,57,58
 201 133 201 133 201 96.5 c 128,-1,59
 201 60 201 60 209.5 39.5 c 128,-1,60
 218 19 218 19 243 9 c 1,61,-1
 240 -7 l 1,62,63
 186 0 186 0 111.5 0 c 128,-1,64
 37 0 37 0 -17 -9 c 1,65,-1
 -21 18 l 1,66,67
 -1 29 -1 29 35 37 c 1,68,-1
 216 598 l 1,69,70
 128 598 128 598 106 576 c 1,0,1
251 377 m 1,71,72
 271 373 271 373 302 373 c 128,-1,73
 333 373 333 373 352 377 c 1,74,-1
 371 536 l 2,75,76
 373 554 373 554 373 568 c 128,-1,77
 373 582 373 582 371 594 c 1,78,79
 358 598 358 598 335.5 598 c 128,-1,80
 313 598 313 598 298 595 c 1,81,82
 259 418 259 418 251 377 c 1,71,72
EndSplineSet
EndChar

StartChar: Ccedilla
Encoding: 199 199 137
Width: 534
GlyphClass: 2
Flags: W
LayerCount: 2
Fore
SplineSet
273 26 m 0,0,1
 303 -1 303 -1 347.5 -1 c 128,-1,2
 392 -1 392 -1 426.5 15.5 c 128,-1,3
 461 32 461 32 501 68 c 1,4,-1
 516 53 l 1,5,6
 447 -64 447 -64 318 -115 c 1,7,8
 180 -115 180 -115 105 -32.5 c 128,-1,9
 30 50 30 50 30 208.5 c 128,-1,10
 30 367 30 367 117 488.5 c 128,-1,11
 204 610 204 610 346 666 c 1,12,13
 450 666 450 666 555 647 c 1,14,-1
 554 623 l 1,15,16
 528 623 528 623 505 614 c 1,17,18
 476 535 476 535 476 456 c 1,19,-1
 449 456 l 1,20,21
 439 494 439 494 437 540 c 1,22,23
 392 582 392 582 321 582 c 0,24,25
 274 582 274 582 252 562 c 1,26,27
 209 451 209 451 209 298 c 0,28,29
 209 82 209 82 273 26 c 0,0,1
278 -285 m 0,30,31
 295 -285 295 -285 307 -280 c 1,32,33
 313 -270 313 -270 313 -257 c 0,34,35
 313 -217 313 -217 224 -217 c 1,36,-1
 218 -213 l 1,37,-1
 256 -96 l 1,38,-1
 295 -94 l 1,39,-1
 272 -146 l 1,40,-1
 276 -149 l 1,41,42
 390 -149 390 -149 390 -226 c 1,43,44
 351 -301 351 -301 268 -345 c 1,45,46
 214 -345 214 -345 170 -324 c 1,47,48
 197 -283 197 -283 206 -248 c 1,49,-1
 210 -246 l 1,50,51
 234 -285 234 -285 278 -285 c 0,30,31
EndSplineSet
EndChar

StartChar: Egrave
Encoding: 200 200 138
Width: 532
GlyphClass: 2
Flags: W
LayerCount: 2
Fore
SplineSet
26 177 m 0,0,1
 26 250 26 250 83.5 297 c 128,-1,2
 141 344 141 344 219 344 c 1,3,-1
 219 353 l 1,4,5
 148 360 148 360 104.5 394.5 c 128,-1,6
 61 429 61 429 60 492 c 1,7,8
 152 607 152 607 323 666 c 1,9,10
 404 666 404 666 464 646 c 1,11,12
 470 650 470 650 505 682 c 1,13,-1
 528 667 l 1,14,15
 493 617 493 617 475 568.5 c 128,-1,16
 457 520 457 520 448 453 c 1,17,-1
 420 453 l 1,18,19
 420 506 420 506 414 540 c 1,20,21
 369 582 369 582 299 582 c 0,22,23
 255 582 255 582 229 562 c 1,24,25
 228 548 228 548 228 536 c 0,26,27
 228 376 228 376 402 376 c 1,28,-1
 397 333 l 1,29,-1
 385 333 l 2,30,31
 307 333 307 333 256.5 305.5 c 128,-1,32
 206 278 206 278 206 215.5 c 128,-1,33
 206 153 206 153 240 118 c 128,-1,34
 274 83 274 83 335 83 c 0,35,36
 375 83 375 83 399 94 c 1,37,38
 407 116 407 116 407 143.5 c 128,-1,39
 407 171 407 171 396 181 c 1,40,-1
 397 188 l 1,41,42
 450 207 450 207 485 238 c 1,43,44
 511 236 511 236 511 209 c 0,45,46
 511 138 511 138 451.5 73 c 128,-1,47
 392 8 392 8 318 -15 c 1,48,49
 201 -15 201 -15 118 26 c 1,50,51
 76 48 76 48 51 86.5 c 128,-1,52
 26 125 26 125 26 177 c 0,0,1
163 893 m 1,53,54
 171 896 171 896 185.5 896 c 128,-1,55
 200 896 200 896 211 893 c 1,56,57
 267 808 267 808 410 741 c 1,58,-1
 400 717 l 1,59,-1
 138 783 l 1,60,61
 139 809 139 809 146.5 843 c 128,-1,62
 154 877 154 877 163 893 c 1,53,54
EndSplineSet
EndChar

StartChar: Eacute
Encoding: 201 201 139
Width: 532
GlyphClass: 2
Flags: W
LayerCount: 2
Fore
SplineSet
26 177 m 0,0,1
 26 250 26 250 83.5 297 c 128,-1,2
 141 344 141 344 219 344 c 1,3,-1
 219 353 l 1,4,5
 148 360 148 360 104.5 394.5 c 128,-1,6
 61 429 61 429 60 492 c 1,7,8
 152 607 152 607 323 666 c 1,9,10
 404 666 404 666 464 646 c 1,11,12
 470 650 470 650 505 682 c 1,13,-1
 528 667 l 1,14,15
 493 617 493 617 475 568.5 c 128,-1,16
 457 520 457 520 448 453 c 1,17,-1
 420 453 l 1,18,19
 420 506 420 506 414 540 c 1,20,21
 369 582 369 582 299 582 c 0,22,23
 255 582 255 582 229 562 c 1,24,25
 228 548 228 548 228 536 c 0,26,27
 228 376 228 376 402 376 c 1,28,-1
 397 333 l 1,29,-1
 385 333 l 2,30,31
 307 333 307 333 256.5 305.5 c 128,-1,32
 206 278 206 278 206 215.5 c 128,-1,33
 206 153 206 153 240 118 c 128,-1,34
 274 83 274 83 335 83 c 0,35,36
 375 83 375 83 399 94 c 1,37,38
 407 116 407 116 407 143.5 c 128,-1,39
 407 171 407 171 396 181 c 1,40,-1
 397 188 l 1,41,42
 450 207 450 207 485 238 c 1,43,44
 511 236 511 236 511 209 c 0,45,46
 511 138 511 138 451.5 73 c 128,-1,47
 392 8 392 8 318 -15 c 1,48,49
 201 -15 201 -15 118 26 c 1,50,51
 76 48 76 48 51 86.5 c 128,-1,52
 26 125 26 125 26 177 c 0,0,1
434 883 m 1,53,54
 443 886 443 886 458.5 886 c 128,-1,55
 474 886 474 886 482 883 c 1,56,57
 491 867 491 867 498.5 833 c 128,-1,58
 506 799 506 799 507 773 c 1,59,-1
 245 707 l 1,60,-1
 235 731 l 1,61,62
 378 798 378 798 434 883 c 1,53,54
EndSplineSet
EndChar

StartChar: Ecircumflex
Encoding: 202 202 140
Width: 532
GlyphClass: 2
Flags: W
LayerCount: 2
Fore
SplineSet
26 177 m 0,0,1
 26 250 26 250 83.5 297 c 128,-1,2
 141 344 141 344 219 344 c 1,3,-1
 219 353 l 1,4,5
 148 360 148 360 104.5 394.5 c 128,-1,6
 61 429 61 429 60 492 c 1,7,8
 152 607 152 607 323 666 c 1,9,10
 404 666 404 666 464 646 c 1,11,12
 470 650 470 650 505 682 c 1,13,-1
 528 667 l 1,14,15
 493 617 493 617 475 568.5 c 128,-1,16
 457 520 457 520 448 453 c 1,17,-1
 420 453 l 1,18,19
 420 506 420 506 414 540 c 1,20,21
 369 582 369 582 299 582 c 0,22,23
 255 582 255 582 229 562 c 1,24,25
 228 548 228 548 228 536 c 0,26,27
 228 376 228 376 402 376 c 1,28,-1
 397 333 l 1,29,-1
 385 333 l 2,30,31
 307 333 307 333 256.5 305.5 c 128,-1,32
 206 278 206 278 206 215.5 c 128,-1,33
 206 153 206 153 240 118 c 128,-1,34
 274 83 274 83 335 83 c 0,35,36
 375 83 375 83 399 94 c 1,37,38
 407 116 407 116 407 143.5 c 128,-1,39
 407 171 407 171 396 181 c 1,40,-1
 397 188 l 1,41,42
 450 207 450 207 485 238 c 1,43,44
 511 236 511 236 511 209 c 0,45,46
 511 138 511 138 451.5 73 c 128,-1,47
 392 8 392 8 318 -15 c 1,48,49
 201 -15 201 -15 118 26 c 1,50,51
 76 48 76 48 51 86.5 c 128,-1,52
 26 125 26 125 26 177 c 0,0,1
292 883 m 1,53,54
 303 886 303 886 323.5 886 c 128,-1,55
 344 886 344 886 354 883 c 1,56,57
 411 798 411 798 537 731 c 1,58,-1
 527 707 l 1,59,-1
 323 769 l 1,60,-1
 119 707 l 1,61,-1
 109 731 l 1,62,63
 235 798 235 798 292 883 c 1,53,54
EndSplineSet
EndChar

StartChar: Edieresis
Encoding: 203 203 141
Width: 532
GlyphClass: 2
Flags: W
LayerCount: 2
Fore
SplineSet
26 177 m 0,0,1
 26 250 26 250 83.5 297 c 128,-1,2
 141 344 141 344 219 344 c 1,3,-1
 219 353 l 1,4,5
 148 360 148 360 104.5 394.5 c 128,-1,6
 61 429 61 429 60 492 c 1,7,8
 152 607 152 607 323 666 c 1,9,10
 404 666 404 666 464 646 c 1,11,12
 470 650 470 650 505 682 c 1,13,-1
 528 667 l 1,14,15
 493 617 493 617 475 568.5 c 128,-1,16
 457 520 457 520 448 453 c 1,17,-1
 420 453 l 1,18,19
 420 506 420 506 414 540 c 1,20,21
 369 582 369 582 299 582 c 0,22,23
 255 582 255 582 229 562 c 1,24,25
 228 548 228 548 228 536 c 0,26,27
 228 376 228 376 402 376 c 1,28,-1
 397 333 l 1,29,-1
 385 333 l 2,30,31
 307 333 307 333 256.5 305.5 c 128,-1,32
 206 278 206 278 206 215.5 c 128,-1,33
 206 153 206 153 240 118 c 128,-1,34
 274 83 274 83 335 83 c 0,35,36
 375 83 375 83 399 94 c 1,37,38
 407 116 407 116 407 143.5 c 128,-1,39
 407 171 407 171 396 181 c 1,40,-1
 397 188 l 1,41,42
 450 207 450 207 485 238 c 1,43,44
 511 236 511 236 511 209 c 0,45,46
 511 138 511 138 451.5 73 c 128,-1,47
 392 8 392 8 318 -15 c 1,48,49
 201 -15 201 -15 118 26 c 1,50,51
 76 48 76 48 51 86.5 c 128,-1,52
 26 125 26 125 26 177 c 0,0,1
287 809 m 1,53,54
 277 788 277 788 248.5 758.5 c 128,-1,55
 220 729 220 729 198 714 c 1,56,57
 176 729 176 729 147.5 758.5 c 128,-1,58
 119 788 119 788 108 809 c 1,59,60
 120 829 120 829 146.5 851.5 c 128,-1,61
 173 874 173 874 198 885 c 1,62,63
 221 873 221 873 247.5 850.5 c 128,-1,64
 274 828 274 828 287 809 c 1,53,54
509 809 m 1,65,66
 499 788 499 788 470.5 758.5 c 128,-1,67
 442 729 442 729 420 714 c 1,68,69
 398 729 398 729 369.5 758.5 c 128,-1,70
 341 788 341 788 330 809 c 1,71,72
 342 829 342 829 368.5 851.5 c 128,-1,73
 395 874 395 874 420 885 c 1,74,75
 443 873 443 873 469.5 850.5 c 128,-1,76
 496 828 496 828 509 809 c 1,65,66
EndSplineSet
EndChar

StartChar: Igrave
Encoding: 204 204 142
Width: 385
GlyphClass: 2
Flags: W
LayerCount: 2
Fore
SplineSet
287 617 m 1,0,1
 275 540 275 540 275 334.5 c 128,-1,2
 275 129 275 129 289 34 c 1,3,4
 328 27 328 27 349 17 c 1,5,-1
 346 -9 l 1,6,7
 274 0 274 0 189.5 0 c 128,-1,8
 105 0 105 0 45 -9 c 1,9,-1
 41 18 l 1,10,11
 63 30 63 30 97 37 c 1,12,13
 110 135 110 135 110 319 c 128,-1,14
 110 503 110 503 95 614 c 1,15,16
 61 621 61 621 39 633 c 1,17,-1
 43 660 l 1,18,19
 103 651 103 651 187.5 651 c 128,-1,20
 272 651 272 651 344 660 c 1,21,-1
 347 634 l 1,22,23
 326 624 326 624 287 617 c 1,0,1
89 896 m 128,-1,25
 104 896 104 896 115 893 c 1,26,27
 171 808 171 808 314 741 c 1,28,-1
 304 717 l 1,29,-1
 42 783 l 1,30,31
 43 809 43 809 50.5 843 c 128,-1,32
 58 877 58 877 67 893 c 1,33,24
 74 896 74 896 89 896 c 128,-1,25
EndSplineSet
EndChar

StartChar: Iacute
Encoding: 205 205 143
Width: 385
GlyphClass: 2
Flags: W
LayerCount: 2
Fore
SplineSet
287 617 m 1,0,1
 275 540 275 540 275 334.5 c 128,-1,2
 275 129 275 129 289 34 c 1,3,4
 328 27 328 27 349 17 c 1,5,-1
 346 -9 l 1,6,7
 274 0 274 0 189.5 0 c 128,-1,8
 105 0 105 0 45 -9 c 1,9,-1
 41 18 l 1,10,11
 63 30 63 30 97 37 c 1,12,13
 110 135 110 135 110 319 c 128,-1,14
 110 503 110 503 95 614 c 1,15,16
 61 621 61 621 39 633 c 1,17,-1
 43 660 l 1,18,19
 103 651 103 651 187.5 651 c 128,-1,20
 272 651 272 651 344 660 c 1,21,-1
 347 634 l 1,22,23
 326 624 326 624 287 617 c 1,0,1
261 883 m 1,24,25
 270 886 270 886 286 886 c 128,-1,26
 302 886 302 886 309 883 c 1,27,28
 318 867 318 867 325.5 833 c 128,-1,29
 333 799 333 799 334 773 c 1,30,-1
 72 707 l 1,31,-1
 62 731 l 1,32,33
 205 798 205 798 261 883 c 1,24,25
EndSplineSet
EndChar

StartChar: Icircumflex
Encoding: 206 206 144
Width: 385
GlyphClass: 2
Flags: W
LayerCount: 2
Fore
SplineSet
192 886 m 128,-1,1
 212 886 212 886 223 883 c 1,2,3
 291 781 291 781 386 731 c 1,4,-1
 376 707 l 1,5,-1
 192 769 l 1,6,-1
 8 707 l 1,7,-1
 -2 731 l 1,8,9
 93 781 93 781 161 883 c 1,10,0
 172 886 172 886 192 886 c 128,-1,1
287 617 m 1,11,12
 275 540 275 540 275 334.5 c 128,-1,13
 275 129 275 129 289 34 c 1,14,15
 328 27 328 27 349 17 c 1,16,-1
 346 -9 l 1,17,18
 274 0 274 0 189.5 0 c 128,-1,19
 105 0 105 0 45 -9 c 1,20,-1
 41 18 l 1,21,22
 63 30 63 30 97 37 c 1,23,24
 110 135 110 135 110 319 c 128,-1,25
 110 503 110 503 95 614 c 1,26,27
 61 621 61 621 39 633 c 1,28,-1
 43 660 l 1,29,30
 103 651 103 651 187.5 651 c 128,-1,31
 272 651 272 651 344 660 c 1,32,-1
 347 634 l 1,33,34
 326 624 326 624 287 617 c 1,11,12
287 617 m 1,35,36
 326 624 326 624 347 634 c 1,37,-1
 344 660 l 1,38,39
 272 651 272 651 187.5 651 c 128,-1,40
 103 651 103 651 43 660 c 1,41,-1
 39 633 l 1,42,43
 61 621 61 621 95 614 c 1,44,45
 110 503 110 503 110 319 c 128,-1,46
 110 135 110 135 97 37 c 1,47,48
 63 30 63 30 41 18 c 1,49,50
 41 18 41 18 45 -9 c 1,51,52
 105 0 105 0 189.5 0 c 128,-1,53
 274 0 274 0 346 -9 c 1,54,-1
 349 17 l 1,55,56
 328 27 328 27 289 34 c 1,57,58
 275 129 275 129 275 334.5 c 128,-1,59
 275 540 275 540 287 617 c 1,35,36
EndSplineSet
EndChar

StartChar: Idieresis
Encoding: 207 207 145
Width: 385
GlyphClass: 2
Flags: W
LayerCount: 2
Fore
SplineSet
287 617 m 1,0,1
 275 540 275 540 275 334.5 c 128,-1,2
 275 129 275 129 289 34 c 1,3,4
 328 27 328 27 349 17 c 1,5,-1
 346 -9 l 1,6,7
 274 0 274 0 189.5 0 c 128,-1,8
 105 0 105 0 45 -9 c 1,9,-1
 41 18 l 1,10,11
 63 30 63 30 97 37 c 1,12,13
 110 135 110 135 110 319 c 128,-1,14
 110 503 110 503 95 614 c 1,15,16
 61 621 61 621 39 633 c 1,17,-1
 43 660 l 1,18,19
 103 651 103 651 187.5 651 c 128,-1,20
 272 651 272 651 344 660 c 1,21,-1
 347 634 l 1,22,23
 326 624 326 624 287 617 c 1,0,1
170 809 m 1,24,25
 160 788 160 788 131.5 758.5 c 128,-1,26
 103 729 103 729 81 714 c 1,27,28
 59 729 59 729 30.5 758.5 c 128,-1,29
 2 788 2 788 -9 809 c 1,30,31
 3 829 3 829 29.5 851.5 c 128,-1,32
 56 874 56 874 81 885 c 1,33,34
 104 873 104 873 130.5 850.5 c 128,-1,35
 157 828 157 828 170 809 c 1,24,25
392 809 m 1,36,37
 382 788 382 788 353.5 758.5 c 128,-1,38
 325 729 325 729 303 714 c 1,39,40
 281 729 281 729 252.5 758.5 c 128,-1,41
 224 788 224 788 213 809 c 1,42,43
 225 829 225 829 251.5 851.5 c 128,-1,44
 278 874 278 874 303 885 c 1,45,46
 326 873 326 873 352.5 850.5 c 128,-1,47
 379 828 379 828 392 809 c 1,36,37
EndSplineSet
EndChar

StartChar: Eth
Encoding: 208 208 146
Width: 681
GlyphClass: 2
Flags: W
LayerCount: 2
Fore
SplineSet
256 315 m 1,0,-1
 157 310 l 1,1,2
 85 308 85 308 39 301 c 1,3,-1
 36 305 l 1,4,5
 41 323 41 323 43 343 c 1,6,-1
 281 354 l 2,7,8
 350 357 350 357 369 359 c 1,9,10
 373 333 373 333 378 322 c 1,11,-1
 378 317 l 1,12,-1
 256 315 l 1,0,-1
374 651 m 0,13,14
 514 651 514 651 582.5 587 c 128,-1,15
 651 523 651 523 651 380 c 128,-1,16
 651 237 651 237 561 124.5 c 128,-1,17
 471 12 471 12 327 -15 c 1,18,19
 248 -15 248 -15 134 25 c 1,20,21
 120 8 120 8 109 -23 c 1,22,-1
 84 -17 l 1,23,24
 112 116 112 116 112 300.5 c 128,-1,25
 112 485 112 485 102 583 c 1,26,27
 21 580 21 580 2 561 c 1,28,29
 -7 536 -7 536 -7 509.5 c 128,-1,30
 -7 483 -7 483 8 474 c 1,31,-1
 7 467 l 1,32,33
 -40 448 -40 448 -74 417 c 1,34,35
 -100 419 -100 419 -100 446 c 0,36,37
 -100 506 -100 506 -46.5 568 c 128,-1,38
 7 630 7 630 71 658 c 1,39,40
 175 651 175 651 374 651 c 0,13,14
322 586 m 0,41,42
 303 586 303 586 285 583 c 1,43,44
 277 494 277 494 277 353.5 c 128,-1,45
 277 213 277 213 284 96 c 1,46,47
 322 69 322 69 365 69 c 128,-1,48
 408 69 408 69 435 86 c 1,49,50
 472 176 472 176 472 320 c 0,51,52
 472 586 472 586 322 586 c 0,41,42
EndSplineSet
EndChar

StartChar: Ntilde
Encoding: 209 209 147
Width: 706
GlyphClass: 2
Flags: W
LayerCount: 2
Fore
SplineSet
98 37 m 1,0,1
 111 135 111 135 111 285.5 c 128,-1,2
 111 436 111 436 99 582 c 1,3,4
 18 576 18 576 2 560 c 1,5,6
 -7 535 -7 535 -7 508.5 c 128,-1,7
 -7 482 -7 482 8 473 c 1,8,-1
 7 466 l 1,9,10
 -40 447 -40 447 -74 416 c 1,11,12
 -100 418 -100 418 -100 445 c 0,13,14
 -100 510 -100 510 -37 575.5 c 128,-1,15
 26 641 26 641 96 664 c 1,16,17
 109 664 109 664 166.5 657.5 c 128,-1,18
 224 651 224 651 263.5 651 c 128,-1,19
 303 651 303 651 336 659 c 1,20,-1
 339 641 l 1,21,22
 315 634 315 634 315 611 c 128,-1,23
 315 588 315 588 321 568 c 128,-1,24
 327 548 327 548 373 463 c 128,-1,25
 419 378 419 378 511 227 c 1,26,-1
 515 229 l 1,27,-1
 515 323 l 2,28,29
 515 495 515 495 498.5 559.5 c 128,-1,30
 482 624 482 624 422 639 c 1,31,-1
 425 660 l 1,32,33
 483 651 483 651 550.5 651 c 128,-1,34
 618 651 618 651 678 660 c 1,35,-1
 681 634 l 1,36,37
 655 624 655 624 611 617 c 1,38,39
 606 592 606 592 601 502.5 c 128,-1,40
 596 413 596 413 596 266 c 128,-1,41
 596 119 596 119 611 34 c 1,42,43
 649 28 649 28 681 17 c 1,44,-1
 678 -9 l 1,45,46
 616 0 616 0 551 0 c 128,-1,47
 486 0 486 0 434 -6 c 1,48,49
 434 37 434 37 392 121 c 128,-1,50
 350 205 350 205 196 461 c 1,51,-1
 192 459 l 1,52,-1
 192 382 l 2,53,54
 192 227 192 227 203 146.5 c 128,-1,55
 214 66 214 66 251 34 c 1,56,57
 290 27 290 27 311 17 c 1,58,-1
 308 -9 l 1,59,60
 225 0 225 0 165.5 0 c 128,-1,61
 106 0 106 0 46 -9 c 1,62,-1
 42 18 l 1,63,64
 64 30 64 30 98 37 c 1,0,1
498 835 m 0,65,66
 557 835 557 835 584 874 c 1,67,-1
 608 857 l 1,68,69
 533 755 533 755 470 721 c 1,70,71
 443 721 443 721 375 747 c 128,-1,72
 307 773 307 773 278 773 c 0,73,74
 221 773 221 773 196 734 c 1,75,-1
 172 751 l 1,76,77
 244 851 244 851 341 886 c 1,78,79
 420 835 420 835 498 835 c 0,65,66
EndSplineSet
EndChar

StartChar: Ograve
Encoding: 210 210 148
Width: 658
GlyphClass: 2
Flags: W
LayerCount: 2
Fore
SplineSet
557 595.5 m 128,-1,1
 628 525 628 525 628 384.5 c 128,-1,2
 628 244 628 244 550 138.5 c 128,-1,3
 472 33 472 33 334 -15 c 1,4,5
 197 -15 197 -15 113.5 63 c 128,-1,6
 30 141 30 141 30 275 c 0,7,8
 30 378 30 378 78.5 461.5 c 128,-1,9
 127 545 127 545 217 598 c 1,10,-1
 236 587 l 1,11,12
 209 487 209 487 209 349 c 0,13,14
 209 247 209 247 237 165 c 0,15,16
 252 121 252 121 282.5 95 c 128,-1,17
 313 69 313 69 350 69 c 128,-1,18
 387 69 387 69 412 86 c 1,19,20
 449 171 449 171 449 310 c 0,21,22
 449 582 449 582 344 582 c 0,23,24
 316 582 316 582 310 561 c 1,25,26
 329 491 329 491 362 491 c 1,27,-1
 364 485 l 1,28,29
 335 446 335 446 322 399 c 1,30,31
 315 395 315 395 308 395 c 0,32,33
 287 395 287 395 274.5 428.5 c 128,-1,34
 262 462 262 462 262 493 c 0,35,36
 262 615 262 615 348 666 c 1,37,0
 486 666 486 666 557 595.5 c 128,-1,1
169 893 m 1,38,39
 177 896 177 896 191.5 896 c 128,-1,40
 206 896 206 896 217 893 c 1,41,42
 273 808 273 808 416 741 c 1,43,-1
 406 717 l 1,44,-1
 144 783 l 1,45,46
 145 809 145 809 152.5 843 c 128,-1,47
 160 877 160 877 169 893 c 1,38,39
EndSplineSet
EndChar

StartChar: Oacute
Encoding: 211 211 149
Width: 658
GlyphClass: 2
Flags: W
LayerCount: 2
Fore
SplineSet
557 595.5 m 128,-1,1
 628 525 628 525 628 384.5 c 128,-1,2
 628 244 628 244 550 138.5 c 128,-1,3
 472 33 472 33 334 -15 c 1,4,5
 197 -15 197 -15 113.5 63 c 128,-1,6
 30 141 30 141 30 275 c 0,7,8
 30 378 30 378 78.5 461.5 c 128,-1,9
 127 545 127 545 217 598 c 1,10,-1
 236 587 l 1,11,12
 209 487 209 487 209 349 c 0,13,14
 209 247 209 247 237 165 c 0,15,16
 252 121 252 121 282.5 95 c 128,-1,17
 313 69 313 69 350 69 c 128,-1,18
 387 69 387 69 412 86 c 1,19,20
 449 171 449 171 449 310 c 0,21,22
 449 582 449 582 344 582 c 0,23,24
 316 582 316 582 310 561 c 1,25,26
 329 491 329 491 362 491 c 1,27,-1
 364 485 l 1,28,29
 335 446 335 446 322 399 c 1,30,31
 315 395 315 395 308 395 c 0,32,33
 287 395 287 395 274.5 428.5 c 128,-1,34
 262 462 262 462 262 493 c 0,35,36
 262 615 262 615 348 666 c 1,37,0
 486 666 486 666 557 595.5 c 128,-1,1
467 883 m 1,38,39
 476 886 476 886 492 886 c 128,-1,40
 508 886 508 886 515 883 c 1,41,42
 524 867 524 867 531.5 833 c 128,-1,43
 539 799 539 799 540 773 c 1,44,-1
 278 707 l 1,45,-1
 268 731 l 1,46,47
 411 798 411 798 467 883 c 1,38,39
EndSplineSet
EndChar

StartChar: Ocircumflex
Encoding: 212 212 150
Width: 658
GlyphClass: 2
Flags: W
LayerCount: 2
Fore
SplineSet
557 595.5 m 128,-1,1
 628 525 628 525 628 384.5 c 128,-1,2
 628 244 628 244 550 138.5 c 128,-1,3
 472 33 472 33 334 -15 c 1,4,5
 197 -15 197 -15 113.5 63 c 128,-1,6
 30 141 30 141 30 275 c 0,7,8
 30 378 30 378 78.5 461.5 c 128,-1,9
 127 545 127 545 217 598 c 1,10,-1
 236 587 l 1,11,12
 209 487 209 487 209 349 c 0,13,14
 209 247 209 247 237 165 c 0,15,16
 252 121 252 121 282.5 95 c 128,-1,17
 313 69 313 69 350 69 c 128,-1,18
 387 69 387 69 412 86 c 1,19,20
 449 171 449 171 449 310 c 0,21,22
 449 582 449 582 344 582 c 0,23,24
 316 582 316 582 310 561 c 1,25,26
 329 491 329 491 362 491 c 1,27,-1
 364 485 l 1,28,29
 335 446 335 446 322 399 c 1,30,31
 315 395 315 395 308 395 c 0,32,33
 287 395 287 395 274.5 428.5 c 128,-1,34
 262 462 262 462 262 493 c 0,35,36
 262 615 262 615 348 666 c 1,37,0
 486 666 486 666 557 595.5 c 128,-1,1
346 886 m 128,-1,39
 366 886 366 886 377 883 c 1,40,41
 434 798 434 798 560 731 c 1,42,-1
 550 707 l 1,43,-1
 346 769 l 1,44,-1
 142 707 l 1,45,-1
 132 731 l 1,46,47
 258 798 258 798 315 883 c 1,48,38
 326 886 326 886 346 886 c 128,-1,39
EndSplineSet
EndChar

StartChar: Otilde
Encoding: 213 213 151
Width: 658
GlyphClass: 2
Flags: W
LayerCount: 2
Fore
SplineSet
557 595.5 m 128,-1,1
 628 525 628 525 628 384.5 c 128,-1,2
 628 244 628 244 550 138.5 c 128,-1,3
 472 33 472 33 334 -15 c 1,4,5
 197 -15 197 -15 113.5 63 c 128,-1,6
 30 141 30 141 30 275 c 0,7,8
 30 378 30 378 78.5 461.5 c 128,-1,9
 127 545 127 545 217 598 c 1,10,-1
 236 587 l 1,11,12
 209 487 209 487 209 349 c 0,13,14
 209 247 209 247 237 165 c 0,15,16
 252 121 252 121 282.5 95 c 128,-1,17
 313 69 313 69 350 69 c 128,-1,18
 387 69 387 69 412 86 c 1,19,20
 449 171 449 171 449 310 c 0,21,22
 449 582 449 582 344 582 c 0,23,24
 316 582 316 582 310 561 c 1,25,26
 329 491 329 491 362 491 c 1,27,-1
 364 485 l 1,28,29
 335 446 335 446 322 399 c 1,30,31
 315 395 315 395 308 395 c 0,32,33
 287 395 287 395 274.5 428.5 c 128,-1,34
 262 462 262 462 262 493 c 0,35,36
 262 615 262 615 348 666 c 1,37,0
 486 666 486 666 557 595.5 c 128,-1,1
485 835 m 0,38,39
 544 835 544 835 571 874 c 1,40,-1
 595 857 l 1,41,42
 520 755 520 755 457 721 c 1,43,44
 430 721 430 721 362 747 c 128,-1,45
 294 773 294 773 265 773 c 0,46,47
 208 773 208 773 183 734 c 1,48,-1
 159 751 l 1,49,50
 231 851 231 851 328 886 c 1,51,52
 407 835 407 835 485 835 c 0,38,39
EndSplineSet
EndChar

StartChar: Odieresis
Encoding: 214 214 152
Width: 658
GlyphClass: 2
Flags: W
LayerCount: 2
Fore
SplineSet
557 595.5 m 128,-1,1
 628 525 628 525 628 384.5 c 128,-1,2
 628 244 628 244 550 138.5 c 128,-1,3
 472 33 472 33 334 -15 c 1,4,5
 197 -15 197 -15 113.5 63 c 128,-1,6
 30 141 30 141 30 275 c 0,7,8
 30 378 30 378 78.5 461.5 c 128,-1,9
 127 545 127 545 217 598 c 1,10,-1
 236 587 l 1,11,12
 209 487 209 487 209 349 c 0,13,14
 209 247 209 247 237 165 c 0,15,16
 252 121 252 121 282.5 95 c 128,-1,17
 313 69 313 69 350 69 c 128,-1,18
 387 69 387 69 412 86 c 1,19,20
 449 171 449 171 449 310 c 0,21,22
 449 582 449 582 344 582 c 0,23,24
 316 582 316 582 310 561 c 1,25,26
 329 491 329 491 362 491 c 1,27,-1
 364 485 l 1,28,29
 335 446 335 446 322 399 c 1,30,31
 315 395 315 395 308 395 c 0,32,33
 287 395 287 395 274.5 428.5 c 128,-1,34
 262 462 262 462 262 493 c 0,35,36
 262 615 262 615 348 666 c 1,37,0
 486 666 486 666 557 595.5 c 128,-1,1
316 809 m 1,38,39
 306 788 306 788 277.5 758.5 c 128,-1,40
 249 729 249 729 227 714 c 1,41,42
 205 729 205 729 176.5 758.5 c 128,-1,43
 148 788 148 788 137 809 c 1,44,45
 149 829 149 829 175.5 851.5 c 128,-1,46
 202 874 202 874 227 885 c 1,47,48
 250 873 250 873 276.5 850.5 c 128,-1,49
 303 828 303 828 316 809 c 1,38,39
538 809 m 1,50,51
 528 788 528 788 499.5 758.5 c 128,-1,52
 471 729 471 729 449 714 c 1,53,54
 427 729 427 729 398.5 758.5 c 128,-1,55
 370 788 370 788 359 809 c 1,56,57
 371 829 371 829 397.5 851.5 c 128,-1,58
 424 874 424 874 449 885 c 1,59,60
 472 873 472 873 498.5 850.5 c 128,-1,61
 525 828 525 828 538 809 c 1,50,51
EndSplineSet
EndChar

StartChar: multiply
Encoding: 215 215 153
Width: 576
GlyphClass: 2
Flags: W
LayerCount: 2
Fore
SplineSet
77 91 m 1,0,1
 182 179 182 179 241 239 c 1,2,-1
 87 392 l 1,3,-1
 139 442 l 1,4,-1
 147 441 l 1,5,6
 172 413 172 413 291 288 c 1,7,-1
 429 440 l 1,8,-1
 437 441 l 1,9,-1
 489 393 l 1,10,-1
 333 241 l 1,11,12
 386 186 386 186 499 92 c 1,13,-1
 457 38 l 1,14,-1
 446 39 l 1,15,-1
 286 195 l 1,16,-1
 130 38 l 1,17,-1
 119 38 l 1,18,-1
 77 91 l 1,0,1
EndSplineSet
EndChar

StartChar: Oslash
Encoding: 216 216 154
Width: 658
GlyphClass: 2
Flags: W
LayerCount: 2
Fore
SplineSet
208 -87 m 1,0,-1
 203 -87 l 1,1,2
 181 -77 181 -77 170 -63 c 1,3,4
 218 44 218 44 256 143 c 2,5,-1
 396 511 l 2,6,7
 438 620 438 620 474 731 c 1,8,9
 504 733 504 733 519 739 c 1,10,-1
 523 736 l 1,11,12
 510 706 510 706 440 524 c 2,13,-1
 208 -87 l 1,0,-1
557 595.5 m 128,-1,15
 628 525 628 525 628 384.5 c 128,-1,16
 628 244 628 244 550 138.5 c 128,-1,17
 472 33 472 33 334 -15 c 1,18,19
 197 -15 197 -15 113.5 63 c 128,-1,20
 30 141 30 141 30 275 c 0,21,22
 30 378 30 378 78.5 461.5 c 128,-1,23
 127 545 127 545 217 598 c 1,24,-1
 236 587 l 1,25,26
 209 487 209 487 209 349 c 0,27,28
 209 247 209 247 237 165 c 0,29,30
 252 121 252 121 282.5 95 c 128,-1,31
 313 69 313 69 350 69 c 128,-1,32
 387 69 387 69 412 86 c 1,33,34
 449 171 449 171 449 310 c 0,35,36
 449 582 449 582 344 582 c 0,37,38
 316 582 316 582 310 561 c 1,39,40
 329 491 329 491 362 491 c 1,41,-1
 364 485 l 1,42,43
 335 446 335 446 322 399 c 1,44,45
 315 395 315 395 308 395 c 0,46,47
 287 395 287 395 274.5 428.5 c 128,-1,48
 262 462 262 462 262 493 c 0,49,50
 262 615 262 615 348 666 c 1,51,14
 486 666 486 666 557 595.5 c 128,-1,15
EndSplineSet
EndChar

StartChar: Ugrave
Encoding: 217 217 155
Width: 715
GlyphClass: 2
Flags: W
LayerCount: 2
Fore
SplineSet
2 560 m 1,0,1
 -7 535 -7 535 -7 508.5 c 128,-1,2
 -7 482 -7 482 8 473 c 1,3,-1
 7 466 l 1,4,5
 -40 447 -40 447 -74 416 c 1,6,7
 -100 418 -100 418 -100 445 c 0,8,9
 -100 510 -100 510 -37 575.5 c 128,-1,10
 26 641 26 641 96 664 c 1,11,12
 110 664 110 664 159.5 657.5 c 128,-1,13
 209 651 209 651 246.5 651 c 128,-1,14
 284 651 284 651 309 659 c 1,15,-1
 312 641 l 1,16,17
 288 628 288 628 279 608 c 128,-1,18
 270 588 270 588 263 502.5 c 128,-1,19
 256 417 256 417 256 329.5 c 128,-1,20
 256 242 256 242 256.5 225 c 128,-1,21
 257 208 257 208 259.5 181 c 128,-1,22
 262 154 262 154 267.5 140 c 128,-1,23
 273 126 273 126 283 111 c 0,24,25
 302 83 302 83 347.5 83 c 128,-1,26
 393 83 393 83 437 117 c 1,27,28
 440 161 440 161 440 332 c 128,-1,29
 440 503 440 503 425 614 c 1,30,31
 391 621 391 621 369 633 c 1,32,-1
 373 660 l 1,33,34
 433 651 433 651 517.5 651 c 128,-1,35
 602 651 602 651 674 660 c 1,36,-1
 677 634 l 1,37,38
 656 624 656 624 617 617 c 1,39,40
 605 540 605 540 605 334.5 c 128,-1,41
 605 129 605 129 619 34 c 1,42,43
 658 27 658 27 679 17 c 1,44,-1
 676 -9 l 1,45,46
 604 0 604 0 544.5 0 c 128,-1,47
 485 0 485 0 425 -9 c 1,48,-1
 421 9 l 1,49,50
 430 23 430 23 434 66 c 1,51,52
 383 17 383 17 303 -15 c 1,53,54
 180 -15 180 -15 133 46 c 128,-1,55
 86 107 86 107 86 241 c 0,56,57
 86 298 86 298 93 422 c 128,-1,58
 100 546 100 546 100 560 c 128,-1,59
 100 574 100 574 99 582 c 1,60,61
 18 576 18 576 2 560 c 1,0,1
182 893 m 1,62,63
 189 896 189 896 204.5 896 c 128,-1,64
 220 896 220 896 230 893 c 1,65,66
 286 808 286 808 429 741 c 1,67,-1
 419 717 l 1,68,-1
 157 783 l 1,69,70
 158 809 158 809 165.5 843 c 128,-1,71
 173 877 173 877 182 893 c 1,62,63
EndSplineSet
EndChar

StartChar: Uacute
Encoding: 218 218 156
Width: 715
GlyphClass: 2
Flags: W
LayerCount: 2
Fore
SplineSet
2 560 m 1,0,1
 -7 535 -7 535 -7 508.5 c 128,-1,2
 -7 482 -7 482 8 473 c 1,3,-1
 7 466 l 1,4,5
 -40 447 -40 447 -74 416 c 1,6,7
 -100 418 -100 418 -100 445 c 0,8,9
 -100 510 -100 510 -37 575.5 c 128,-1,10
 26 641 26 641 96 664 c 1,11,12
 110 664 110 664 159.5 657.5 c 128,-1,13
 209 651 209 651 246.5 651 c 128,-1,14
 284 651 284 651 309 659 c 1,15,-1
 312 641 l 1,16,17
 288 628 288 628 279 608 c 128,-1,18
 270 588 270 588 263 502.5 c 128,-1,19
 256 417 256 417 256 329.5 c 128,-1,20
 256 242 256 242 256.5 225 c 128,-1,21
 257 208 257 208 259.5 181 c 128,-1,22
 262 154 262 154 267.5 140 c 128,-1,23
 273 126 273 126 283 111 c 0,24,25
 302 83 302 83 347.5 83 c 128,-1,26
 393 83 393 83 437 117 c 1,27,28
 440 161 440 161 440 332 c 128,-1,29
 440 503 440 503 425 614 c 1,30,31
 391 621 391 621 369 633 c 1,32,-1
 373 660 l 1,33,34
 433 651 433 651 517.5 651 c 128,-1,35
 602 651 602 651 674 660 c 1,36,-1
 677 634 l 1,37,38
 656 624 656 624 617 617 c 1,39,40
 605 540 605 540 605 334.5 c 128,-1,41
 605 129 605 129 619 34 c 1,42,43
 658 27 658 27 679 17 c 1,44,-1
 676 -9 l 1,45,46
 604 0 604 0 544.5 0 c 128,-1,47
 485 0 485 0 425 -9 c 1,48,-1
 421 9 l 1,49,50
 430 23 430 23 434 66 c 1,51,52
 383 17 383 17 303 -15 c 1,53,54
 180 -15 180 -15 133 46 c 128,-1,55
 86 107 86 107 86 241 c 0,56,57
 86 298 86 298 93 422 c 128,-1,58
 100 546 100 546 100 560 c 128,-1,59
 100 574 100 574 99 582 c 1,60,61
 18 576 18 576 2 560 c 1,0,1
510 883 m 1,62,63
 519 886 519 886 534.5 886 c 128,-1,64
 550 886 550 886 558 883 c 1,65,66
 567 867 567 867 574.5 833 c 128,-1,67
 582 799 582 799 583 773 c 1,68,-1
 321 707 l 1,69,-1
 311 731 l 1,70,71
 454 798 454 798 510 883 c 1,62,63
EndSplineSet
EndChar

StartChar: Ucircumflex
Encoding: 219 219 157
Width: 715
GlyphClass: 2
Flags: W
LayerCount: 2
Fore
SplineSet
2 560 m 1,0,1
 -7 535 -7 535 -7 508.5 c 128,-1,2
 -7 482 -7 482 8 473 c 1,3,-1
 7 466 l 1,4,5
 -40 447 -40 447 -74 416 c 1,6,7
 -100 418 -100 418 -100 445 c 0,8,9
 -100 510 -100 510 -37 575.5 c 128,-1,10
 26 641 26 641 96 664 c 1,11,12
 110 664 110 664 159.5 657.5 c 128,-1,13
 209 651 209 651 246.5 651 c 128,-1,14
 284 651 284 651 309 659 c 1,15,-1
 312 641 l 1,16,17
 288 628 288 628 279 608 c 128,-1,18
 270 588 270 588 263 502.5 c 128,-1,19
 256 417 256 417 256 329.5 c 128,-1,20
 256 242 256 242 256.5 225 c 128,-1,21
 257 208 257 208 259.5 181 c 128,-1,22
 262 154 262 154 267.5 140 c 128,-1,23
 273 126 273 126 283 111 c 0,24,25
 302 83 302 83 347.5 83 c 128,-1,26
 393 83 393 83 437 117 c 1,27,28
 440 161 440 161 440 332 c 128,-1,29
 440 503 440 503 425 614 c 1,30,31
 391 621 391 621 369 633 c 1,32,-1
 373 660 l 1,33,34
 433 651 433 651 517.5 651 c 128,-1,35
 602 651 602 651 674 660 c 1,36,-1
 677 634 l 1,37,38
 656 624 656 624 617 617 c 1,39,40
 605 540 605 540 605 334.5 c 128,-1,41
 605 129 605 129 619 34 c 1,42,43
 658 27 658 27 679 17 c 1,44,-1
 676 -9 l 1,45,46
 604 0 604 0 544.5 0 c 128,-1,47
 485 0 485 0 425 -9 c 1,48,-1
 421 9 l 1,49,50
 430 23 430 23 434 66 c 1,51,52
 383 17 383 17 303 -15 c 1,53,54
 180 -15 180 -15 133 46 c 128,-1,55
 86 107 86 107 86 241 c 0,56,57
 86 298 86 298 93 422 c 128,-1,58
 100 546 100 546 100 560 c 128,-1,59
 100 574 100 574 99 582 c 1,60,61
 18 576 18 576 2 560 c 1,0,1
367 886 m 128,-1,63
 388 886 388 886 398 883 c 1,64,65
 455 798 455 798 581 731 c 1,66,-1
 571 707 l 1,67,-1
 367 769 l 1,68,-1
 163 707 l 1,69,-1
 153 731 l 1,70,71
 279 798 279 798 336 883 c 1,72,62
 346 886 346 886 367 886 c 128,-1,63
EndSplineSet
EndChar

StartChar: Udieresis
Encoding: 220 220 158
Width: 715
GlyphClass: 2
Flags: W
LayerCount: 2
Fore
SplineSet
2 560 m 1,0,1
 -7 535 -7 535 -7 508.5 c 128,-1,2
 -7 482 -7 482 8 473 c 1,3,-1
 7 466 l 1,4,5
 -40 447 -40 447 -74 416 c 1,6,7
 -100 418 -100 418 -100 445 c 0,8,9
 -100 510 -100 510 -37 575.5 c 128,-1,10
 26 641 26 641 96 664 c 1,11,12
 110 664 110 664 159.5 657.5 c 128,-1,13
 209 651 209 651 246.5 651 c 128,-1,14
 284 651 284 651 309 659 c 1,15,-1
 312 641 l 1,16,17
 288 628 288 628 279 608 c 128,-1,18
 270 588 270 588 263 502.5 c 128,-1,19
 256 417 256 417 256 329.5 c 128,-1,20
 256 242 256 242 256.5 225 c 128,-1,21
 257 208 257 208 259.5 181 c 128,-1,22
 262 154 262 154 267.5 140 c 128,-1,23
 273 126 273 126 283 111 c 0,24,25
 302 83 302 83 347.5 83 c 128,-1,26
 393 83 393 83 437 117 c 1,27,28
 440 161 440 161 440 332 c 128,-1,29
 440 503 440 503 425 614 c 1,30,31
 391 621 391 621 369 633 c 1,32,-1
 373 660 l 1,33,34
 433 651 433 651 517.5 651 c 128,-1,35
 602 651 602 651 674 660 c 1,36,-1
 677 634 l 1,37,38
 656 624 656 624 617 617 c 1,39,40
 605 540 605 540 605 334.5 c 128,-1,41
 605 129 605 129 619 34 c 1,42,43
 658 27 658 27 679 17 c 1,44,-1
 676 -9 l 1,45,46
 604 0 604 0 544.5 0 c 128,-1,47
 485 0 485 0 425 -9 c 1,48,-1
 421 9 l 1,49,50
 430 23 430 23 434 66 c 1,51,52
 383 17 383 17 303 -15 c 1,53,54
 180 -15 180 -15 133 46 c 128,-1,55
 86 107 86 107 86 241 c 0,56,57
 86 298 86 298 93 422 c 128,-1,58
 100 546 100 546 100 560 c 128,-1,59
 100 574 100 574 99 582 c 1,60,61
 18 576 18 576 2 560 c 1,0,1
336 809 m 1,62,63
 326 788 326 788 297.5 758.5 c 128,-1,64
 269 729 269 729 247 714 c 1,65,66
 225 729 225 729 196.5 758.5 c 128,-1,67
 168 788 168 788 157 809 c 1,68,69
 169 829 169 829 195.5 851.5 c 128,-1,70
 222 874 222 874 247 885 c 1,71,72
 270 873 270 873 296.5 850.5 c 128,-1,73
 323 828 323 828 336 809 c 1,62,63
558 809 m 1,74,75
 548 788 548 788 519.5 758.5 c 128,-1,76
 491 729 491 729 469 714 c 1,77,78
 447 729 447 729 418.5 758.5 c 128,-1,79
 390 788 390 788 379 809 c 1,80,81
 391 829 391 829 417.5 851.5 c 128,-1,82
 444 874 444 874 469 885 c 1,83,84
 492 873 492 873 518.5 850.5 c 128,-1,85
 545 828 545 828 558 809 c 1,74,75
EndSplineSet
EndChar

StartChar: Yacute
Encoding: 221 221 159
Width: 550
GlyphClass: 2
Flags: W
LayerCount: 2
Fore
SplineSet
198 275 m 2,0,-1
 198 300 l 1,1,-1
 36 622 l 1,2,3
 1 689 1 689 -34 714 c 1,4,5
 -106 706 -106 706 -111 674 c 1,6,-1
 -119 671 l 1,7,8
 -154 706 -154 706 -197 726 c 1,9,10
 -200 732 -200 732 -200 738 c 0,11,12
 -200 757 -200 757 -171.5 765 c 128,-1,13
 -143 773 -143 773 -113 773 c 0,14,15
 -26 773 -26 773 77.5 732.5 c 128,-1,16
 181 692 181 692 255 634 c 1,17,18
 249 612 249 612 249 585 c 0,19,20
 249 522 249 522 281 453 c 2,21,-1
 322 363 l 1,22,23
 364 488 364 488 375.5 531.5 c 128,-1,24
 387 575 387 575 387 603 c 128,-1,25
 387 631 387 631 365 642 c 1,26,-1
 368 658 l 1,27,28
 433 651 433 651 488.5 651 c 128,-1,29
 544 651 544 651 594 660 c 1,30,-1
 598 634 l 1,31,32
 574 621 574 621 540 614 c 1,33,-1
 364 328 l 1,34,35
 364 130 364 130 377 34 c 1,36,37
 420 25 420 25 437 17 c 1,38,-1
 434 -9 l 1,39,40
 370 0 370 0 281.5 0 c 128,-1,41
 193 0 193 0 133 -9 c 1,42,-1
 129 18 l 1,43,44
 150 29 150 29 186 37 c 1,45,46
 198 127 198 127 198 275 c 2,0,-1
484 883 m 1,47,48
 493 886 493 886 508.5 886 c 128,-1,49
 524 886 524 886 532 883 c 1,50,51
 541 867 541 867 548.5 833 c 128,-1,52
 556 799 556 799 557 773 c 1,53,-1
 295 707 l 1,54,-1
 285 731 l 1,55,56
 428 798 428 798 484 883 c 1,47,48
EndSplineSet
EndChar

StartChar: Thorn
Encoding: 222 222 160
Width: 614
GlyphClass: 2
Flags: W
LayerCount: 2
Fore
SplineSet
278 482 m 1,0,1
 275 464 275 464 275 296.5 c 128,-1,2
 275 129 275 129 289 34 c 1,3,4
 328 27 328 27 349 17 c 1,5,-1
 346 -9 l 1,6,7
 274 0 274 0 189.5 0 c 128,-1,8
 105 0 105 0 45 -9 c 1,9,-1
 41 18 l 1,10,11
 63 30 63 30 97 37 c 1,12,13
 110 135 110 135 110 319 c 128,-1,14
 110 503 110 503 95 614 c 1,15,16
 61 621 61 621 39 633 c 1,17,-1
 43 660 l 1,18,19
 103 651 103 651 187.5 651 c 128,-1,20
 272 651 272 651 344 660 c 1,21,-1
 347 634 l 1,22,23
 326 624 326 624 287 617 c 1,24,25
 283 586 283 586 280 535 c 1,26,-1
 342 536 l 2,27,28
 345 536 345 536 348 536 c 0,29,30
 460 536 460 536 522 501.5 c 128,-1,31
 584 467 584 467 584 373 c 128,-1,32
 584 279 584 279 509 219 c 128,-1,33
 434 159 434 159 336 159 c 0,34,35
 318 159 318 159 310 160 c 1,36,-1
 314 206 l 1,37,-1
 326 206 l 2,38,39
 404 206 404 206 404 357 c 0,40,41
 404 418 404 418 384.5 452.5 c 128,-1,42
 365 487 365 487 315 487 c 0,43,44
 296 487 296 487 278 482 c 1,0,1
EndSplineSet
EndChar

StartChar: germandbls
Encoding: 223 223 161
Width: 822
GlyphClass: 2
Flags: W
LayerCount: 2
Fore
SplineSet
194 69 m 0,0,1
 225 69 225 69 246.5 81.5 c 128,-1,2
 268 94 268 94 268 117 c 128,-1,3
 268 140 268 140 232 167.5 c 128,-1,4
 196 195 196 195 152.5 219 c 128,-1,5
 109 243 109 243 73 274.5 c 128,-1,6
 37 306 37 306 37 334 c 0,7,8
 37 398 37 398 104.5 467 c 128,-1,9
 172 536 172 536 241 555 c 1,10,11
 325 555 325 555 395 536 c 1,12,-1
 395 520 l 1,13,14
 351 480 351 480 344 376 c 1,15,-1
 318 376 l 1,16,17
 318 423 318 423 313 444 c 1,18,19
 273 476 273 476 219 476 c 0,20,21
 191 476 191 476 168.5 465 c 128,-1,22
 146 454 146 454 146 433.5 c 128,-1,23
 146 413 146 413 183.5 386 c 128,-1,24
 221 359 221 359 266.5 335.5 c 128,-1,25
 312 312 312 312 349.5 280.5 c 128,-1,26
 387 249 387 249 387 222 c 0,27,28
 387 166 387 166 315.5 88 c 128,-1,29
 244 10 244 10 183 -15 c 1,30,31
 112 -15 112 -15 43 4 c 1,32,33
 27 -5 27 -5 8 -27 c 1,34,-1
 -10 -10 l 1,35,36
 50 57 50 57 50 171 c 1,37,-1
 75 171 l 1,38,-1
 79 114 l 1,39,40
 126 69 126 69 194 69 c 0,0,1
605 69 m 0,41,42
 636 69 636 69 657.5 81.5 c 128,-1,43
 679 94 679 94 679 117 c 128,-1,44
 679 140 679 140 643 167.5 c 128,-1,45
 607 195 607 195 563.5 219 c 128,-1,46
 520 243 520 243 484 274.5 c 128,-1,47
 448 306 448 306 448 334 c 0,48,49
 448 398 448 398 515.5 467 c 128,-1,50
 583 536 583 536 652 555 c 1,51,52
 736 555 736 555 806 536 c 1,53,-1
 806 520 l 1,54,55
 762 480 762 480 755 376 c 1,56,-1
 729 376 l 1,57,58
 729 423 729 423 724 444 c 1,59,60
 684 476 684 476 630 476 c 0,61,62
 602 476 602 476 579.5 465 c 128,-1,63
 557 454 557 454 557 433.5 c 128,-1,64
 557 413 557 413 594.5 386 c 128,-1,65
 632 359 632 359 677.5 335.5 c 128,-1,66
 723 312 723 312 760.5 280.5 c 128,-1,67
 798 249 798 249 798 222 c 0,68,69
 798 166 798 166 726.5 88 c 128,-1,70
 655 10 655 10 594 -15 c 1,71,72
 523 -15 523 -15 454 4 c 1,73,74
 438 -5 438 -5 419 -27 c 1,75,-1
 401 -10 l 1,76,77
 461 57 461 57 461 171 c 1,78,-1
 486 171 l 1,79,-1
 490 114 l 1,80,81
 537 69 537 69 605 69 c 0,41,42
EndSplineSet
EndChar

StartChar: agrave
Encoding: 224 224 162
Width: 568
GlyphClass: 2
Flags: W
LayerCount: 2
Fore
SplineSet
319 184 m 1,0,1
 300 190 300 190 256 190 c 128,-1,2
 212 190 212 190 190 185 c 1,3,4
 178 106 178 106 178 78 c 0,5,6
 178 25 178 25 213 9 c 1,7,-1
 210 -7 l 1,8,9
 178 0 178 0 110.5 0 c 128,-1,10
 43 0 43 0 -10 -9 c 1,11,-1
 -14 15 l 1,12,13
 4 24 4 24 33 32 c 1,14,-1
 165 504 l 1,15,16
 133 515 133 515 115 526 c 1,17,-1
 121 549 l 1,18,19
 189 540 189 540 322 540 c 128,-1,20
 455 540 455 540 527 550 c 1,21,-1
 529 528 l 1,22,23
 509 519 509 519 481 513 c 1,24,25
 471 440 471 440 471 276.5 c 128,-1,26
 471 113 471 113 483 29 c 1,27,28
 506 24 506 24 531 16 c 1,29,-1
 529 -7 l 1,30,31
 479 0 479 0 404.5 0 c 128,-1,32
 330 0 330 0 277 -8 c 1,33,-1
 273 16 l 1,34,35
 286 23 286 23 310 31 c 1,36,37
 317 98 317 98 319 184 c 1,0,1
320 274 m 2,38,39
 320 406 320 406 311 483 c 1,40,41
 299 489 299 489 278 489 c 128,-1,42
 257 489 257 489 242 484 c 1,43,-1
 199 252 l 1,44,45
 227 248 227 248 257.5 248 c 128,-1,46
 288 248 288 248 320 252 c 1,47,-1
 320 274 l 2,38,39
145 785 m 1,48,49
 151 787 151 787 167.5 787 c 128,-1,50
 184 787 184 787 193 784 c 1,51,52
 267 659 267 659 392 591 c 1,53,-1
 382 567 l 1,54,-1
 120 664 l 1,55,56
 121 691 121 691 128.5 730.5 c 128,-1,57
 136 770 136 770 145 785 c 1,48,49
EndSplineSet
EndChar

StartChar: aacute
Encoding: 225 225 163
Width: 575
GlyphClass: 2
Flags: W
LayerCount: 2
Fore
SplineSet
326 184 m 1,0,1
 307 190 307 190 263 190 c 128,-1,2
 219 190 219 190 197 185 c 1,3,4
 185 106 185 106 185 78 c 0,5,6
 185 25 185 25 220 9 c 1,7,-1
 217 -7 l 1,8,9
 185 0 185 0 117.5 0 c 128,-1,10
 50 0 50 0 -3 -9 c 1,11,-1
 -7 15 l 1,12,13
 11 24 11 24 40 32 c 1,14,-1
 172 504 l 1,15,16
 140 515 140 515 122 526 c 1,17,-1
 128 549 l 1,18,19
 196 540 196 540 329 540 c 128,-1,20
 462 540 462 540 534 550 c 1,21,-1
 536 528 l 1,22,23
 516 519 516 519 488 513 c 1,24,25
 478 440 478 440 478 276.5 c 128,-1,26
 478 113 478 113 490 29 c 1,27,28
 512 24 512 24 538 16 c 1,29,-1
 536 -7 l 1,30,31
 486 0 486 0 411.5 0 c 128,-1,32
 337 0 337 0 284 -8 c 1,33,-1
 280 16 l 1,34,35
 293 23 293 23 317 31 c 1,36,37
 324 98 324 98 326 184 c 1,0,1
327 274 m 2,38,39
 327 406 327 406 318 483 c 1,40,41
 306 489 306 489 285 489 c 128,-1,42
 264 489 264 489 249 484 c 1,43,-1
 206 252 l 1,44,45
 234 248 234 248 264.5 248 c 128,-1,46
 295 248 295 248 327 252 c 1,47,-1
 327 274 l 2,38,39
456 784 m 1,48,49
 465 787 465 787 481.5 787 c 128,-1,50
 498 787 498 787 504 785 c 1,51,52
 513 770 513 770 520.5 730.5 c 128,-1,53
 528 691 528 691 529 664 c 1,54,-1
 267 567 l 1,55,-1
 257 591 l 1,56,57
 382 659 382 659 456 784 c 1,48,49
EndSplineSet
EndChar

StartChar: acircumflex
Encoding: 226 226 164
Width: 568
GlyphClass: 2
Flags: W
LayerCount: 2
Fore
SplineSet
319 184 m 1,0,1
 300 190 300 190 256 190 c 128,-1,2
 212 190 212 190 190 185 c 1,3,4
 178 106 178 106 178 78 c 0,5,6
 178 25 178 25 213 9 c 1,7,-1
 210 -7 l 1,8,9
 178 0 178 0 110.5 0 c 128,-1,10
 43 0 43 0 -10 -9 c 1,11,-1
 -14 15 l 1,12,13
 4 24 4 24 33 32 c 1,14,-1
 165 504 l 1,15,16
 133 515 133 515 115 526 c 1,17,-1
 121 549 l 1,18,19
 189 540 189 540 322 540 c 128,-1,20
 455 540 455 540 527 550 c 1,21,-1
 529 528 l 1,22,23
 509 519 509 519 481 513 c 1,24,25
 471 440 471 440 471 276.5 c 128,-1,26
 471 113 471 113 483 29 c 1,27,28
 506 24 506 24 531 16 c 1,29,-1
 529 -7 l 1,30,31
 479 0 479 0 404.5 0 c 128,-1,32
 330 0 330 0 277 -8 c 1,33,-1
 273 16 l 1,34,35
 286 23 286 23 310 31 c 1,36,37
 317 98 317 98 319 184 c 1,0,1
320 274 m 2,38,39
 320 406 320 406 311 483 c 1,40,41
 299 489 299 489 278 489 c 128,-1,42
 257 489 257 489 242 484 c 1,43,-1
 199 252 l 1,44,45
 227 248 227 248 257.5 248 c 128,-1,46
 288 248 288 248 320 252 c 1,47,-1
 320 274 l 2,38,39
323 794 m 128,-1,49
 338 794 338 794 344 792 c 1,50,51
 413 674 413 674 539 598 c 1,52,-1
 529 574 l 1,53,-1
 323 653 l 1,54,-1
 117 574 l 1,55,-1
 107 598 l 1,56,57
 233 674 233 674 302 792 c 1,58,48
 308 794 308 794 323 794 c 128,-1,49
EndSplineSet
EndChar

StartChar: atilde
Encoding: 227 227 165
Width: 568
GlyphClass: 2
Flags: W
LayerCount: 2
Fore
SplineSet
319 184 m 1,0,1
 300 190 300 190 256 190 c 128,-1,2
 212 190 212 190 190 185 c 1,3,4
 178 106 178 106 178 78 c 0,5,6
 178 25 178 25 213 9 c 1,7,-1
 210 -7 l 1,8,9
 178 0 178 0 110.5 0 c 128,-1,10
 43 0 43 0 -10 -9 c 1,11,-1
 -14 15 l 1,12,13
 4 24 4 24 33 32 c 1,14,-1
 165 504 l 1,15,16
 133 515 133 515 115 526 c 1,17,-1
 121 549 l 1,18,19
 189 540 189 540 322 540 c 128,-1,20
 455 540 455 540 527 550 c 1,21,-1
 529 528 l 1,22,23
 509 519 509 519 481 513 c 1,24,25
 471 440 471 440 471 276.5 c 128,-1,26
 471 113 471 113 483 29 c 1,27,28
 506 24 506 24 531 16 c 1,29,-1
 529 -7 l 1,30,31
 479 0 479 0 404.5 0 c 128,-1,32
 330 0 330 0 277 -8 c 1,33,-1
 273 16 l 1,34,35
 286 23 286 23 310 31 c 1,36,37
 317 98 317 98 319 184 c 1,0,1
320 274 m 2,38,39
 320 406 320 406 311 483 c 1,40,41
 299 489 299 489 278 489 c 128,-1,42
 257 489 257 489 242 484 c 1,43,-1
 199 252 l 1,44,45
 227 248 227 248 257.5 248 c 128,-1,46
 288 248 288 248 320 252 c 1,47,-1
 320 274 l 2,38,39
446 719 m 0,48,49
 505 719 505 719 532 758 c 1,50,-1
 556 741 l 1,51,52
 481 639 481 639 418 605 c 1,53,54
 391 605 391 605 323 631 c 128,-1,55
 255 657 255 657 226 657 c 0,56,57
 169 657 169 657 144 618 c 1,58,-1
 120 635 l 1,59,60
 192 735 192 735 289 770 c 1,61,62
 368 719 368 719 446 719 c 0,48,49
EndSplineSet
EndChar

StartChar: adieresis
Encoding: 228 228 166
Width: 568
GlyphClass: 2
Flags: W
LayerCount: 2
Fore
SplineSet
319 184 m 1,0,1
 300 190 300 190 256 190 c 128,-1,2
 212 190 212 190 190 185 c 1,3,4
 178 106 178 106 178 78 c 0,5,6
 178 25 178 25 213 9 c 1,7,-1
 210 -7 l 1,8,9
 178 0 178 0 110.5 0 c 128,-1,10
 43 0 43 0 -10 -9 c 1,11,-1
 -14 15 l 1,12,13
 4 24 4 24 33 32 c 1,14,-1
 165 504 l 1,15,16
 133 515 133 515 115 526 c 1,17,-1
 121 549 l 1,18,19
 189 540 189 540 322 540 c 128,-1,20
 455 540 455 540 527 550 c 1,21,-1
 529 528 l 1,22,23
 509 519 509 519 481 513 c 1,24,25
 471 440 471 440 471 276.5 c 128,-1,26
 471 113 471 113 483 29 c 1,27,28
 506 24 506 24 531 16 c 1,29,-1
 529 -7 l 1,30,31
 479 0 479 0 404.5 0 c 128,-1,32
 330 0 330 0 277 -8 c 1,33,-1
 273 16 l 1,34,35
 286 23 286 23 310 31 c 1,36,37
 317 98 317 98 319 184 c 1,0,1
320 274 m 2,38,39
 320 406 320 406 311 483 c 1,40,41
 299 489 299 489 278 489 c 128,-1,42
 257 489 257 489 242 484 c 1,43,-1
 199 252 l 1,44,45
 227 248 227 248 257.5 248 c 128,-1,46
 288 248 288 248 320 252 c 1,47,-1
 320 274 l 2,38,39
305 688 m 1,48,49
 295 667 295 667 266.5 637.5 c 128,-1,50
 238 608 238 608 216 593 c 1,51,52
 194 608 194 608 165.5 637.5 c 128,-1,53
 137 667 137 667 126 688 c 1,54,55
 138 708 138 708 164.5 730.5 c 128,-1,56
 191 753 191 753 216 764 c 1,57,58
 239 752 239 752 265.5 729.5 c 128,-1,59
 292 707 292 707 305 688 c 1,48,49
527 688 m 1,60,61
 517 667 517 667 488.5 637.5 c 128,-1,62
 460 608 460 608 438 593 c 1,63,64
 416 608 416 608 387.5 637.5 c 128,-1,65
 359 667 359 667 348 688 c 1,66,67
 360 708 360 708 386.5 730.5 c 128,-1,68
 413 753 413 753 438 764 c 1,69,70
 461 752 461 752 487.5 729.5 c 128,-1,71
 514 707 514 707 527 688 c 1,60,61
EndSplineSet
EndChar

StartChar: aring
Encoding: 229 229 167
Width: 568
GlyphClass: 2
Flags: W
LayerCount: 2
Fore
SplineSet
319 184 m 1,0,1
 300 190 300 190 256 190 c 128,-1,2
 212 190 212 190 190 185 c 1,3,4
 178 106 178 106 178 78 c 0,5,6
 178 25 178 25 213 9 c 1,7,-1
 210 -7 l 1,8,9
 178 0 178 0 110.5 0 c 128,-1,10
 43 0 43 0 -10 -9 c 1,11,-1
 -14 15 l 1,12,13
 4 24 4 24 33 32 c 1,14,-1
 165 504 l 1,15,16
 133 515 133 515 115 526 c 1,17,-1
 121 549 l 1,18,19
 189 540 189 540 322 540 c 128,-1,20
 455 540 455 540 527 550 c 1,21,-1
 529 528 l 1,22,23
 509 519 509 519 481 513 c 1,24,25
 471 440 471 440 471 276.5 c 128,-1,26
 471 113 471 113 483 29 c 1,27,28
 506 24 506 24 531 16 c 1,29,-1
 529 -7 l 1,30,31
 479 0 479 0 404.5 0 c 128,-1,32
 330 0 330 0 277 -8 c 1,33,-1
 273 16 l 1,34,35
 286 23 286 23 310 31 c 1,36,37
 317 98 317 98 319 184 c 1,0,1
320 274 m 2,38,39
 320 406 320 406 311 483 c 1,40,41
 299 489 299 489 278 489 c 128,-1,42
 257 489 257 489 242 484 c 1,43,-1
 199 252 l 1,44,45
 227 248 227 248 257.5 248 c 128,-1,46
 288 248 288 248 320 252 c 1,47,-1
 320 274 l 2,38,39
252 597.5 m 128,-1,49
 220 619 220 619 220 662 c 128,-1,50
 220 705 220 705 253.5 738.5 c 128,-1,51
 287 772 287 772 338 783 c 1,52,53
 441 783 441 783 441 699 c 0,54,55
 441 654 441 654 410 622 c 128,-1,56
 379 590 379 590 331 576 c 1,57,48
 284 576 284 576 252 597.5 c 128,-1,49
364.5 719 m 128,-1,59
 349 735 349 735 324 735 c 128,-1,60
 299 735 299 735 288 727 c 1,61,62
 281 709 281 709 281 682.5 c 128,-1,63
 281 656 281 656 297 639.5 c 128,-1,64
 313 623 313 623 336.5 623 c 128,-1,65
 360 623 360 623 373 632 c 1,66,67
 380 650 380 650 380 676.5 c 128,-1,58
 380 703 380 703 364.5 719 c 128,-1,59
EndSplineSet
EndChar

StartChar: ae
Encoding: 230 230 168
Width: 676
GlyphClass: 2
Flags: W
LayerCount: 2
Fore
SplineSet
131 549 m 1,0,1
 199 540 199 540 380 540 c 128,-1,2
 561 540 561 540 643 552 c 1,3,-1
 649 531 l 1,4,5
 617 480 617 480 613 398 c 1,6,-1
 587 398 l 1,7,8
 579 435 579 435 579 467 c 1,9,10
 552 481 552 481 519 481 c 128,-1,11
 486 481 486 481 466 478 c 1,12,13
 446 426 446 426 443 320 c 1,14,-1
 443 319 l 1,15,16
 459 315 459 315 481 315 c 0,17,18
 544 315 544 315 573 346 c 1,19,-1
 594 340 l 1,20,21
 583 305 583 305 583 271.5 c 128,-1,22
 583 238 583 238 592 195 c 1,23,-1
 568 191 l 1,24,25
 557 217 557 217 550 252 c 1,26,27
 525 257 525 257 491 257 c 128,-1,28
 457 257 457 257 441 253 c 1,29,30
 441 138 441 138 461 107 c 0,31,32
 483 73 483 73 528 73 c 0,33,34
 558 73 558 73 581.5 86 c 128,-1,35
 605 99 605 99 639 126 c 1,36,-1
 655 107 l 1,37,38
 587 14 587 14 475 -15 c 1,39,40
 381 -15 381 -15 337 28 c 0,41,42
 299 64 299 64 292 156 c 0,43,44
 289 194 289 194 289 254 c 1,45,46
 274 257 274 257 246 257 c 128,-1,47
 218 257 218 257 199 253 c 1,48,49
 171 133 171 133 171 79 c 128,-1,50
 171 25 171 25 206 9 c 1,51,-1
 203 -7 l 1,52,53
 171 0 171 0 103.5 0 c 128,-1,54
 36 0 36 0 -17 -9 c 1,55,-1
 -21 15 l 1,56,57
 -3 24 -3 24 26 32 c 1,58,-1
 175 504 l 1,59,60
 143 515 143 515 125 526 c 1,61,-1
 131 549 l 1,0,1
308 483 m 1,62,63
 296 487 296 487 279 487 c 128,-1,64
 262 487 262 487 252 484 c 1,65,-1
 213 315 l 1,66,67
 224 312 224 312 250.5 312 c 128,-1,68
 277 312 277 312 293 316 c 1,69,-1
 308 425 l 2,70,71
 311 452 311 452 311 464 c 128,-1,72
 311 476 311 476 308 483 c 1,62,63
EndSplineSet
EndChar

StartChar: ccedilla
Encoding: 231 231 169
Width: 454
GlyphClass: 2
Flags: W
LayerCount: 2
Fore
SplineSet
427 126 m 1,0,1
 365 74 365 74 305 74 c 128,-1,2
 245 74 245 74 218 116 c 1,3,4
 191 156 191 156 191 281 c 0,5,6
 191 399 191 399 222 471 c 1,7,8
 240 485 240 485 279 485 c 0,9,10
 338 485 338 485 375 450 c 1,11,12
 377 414 377 414 386 379 c 1,13,-1
 411 379 l 1,14,15
 413 447 413 447 436 508 c 1,16,17
 457 516 457 516 474 516 c 1,18,-1
 475 539 l 1,19,20
 386 555 386 555 300 555 c 1,21,22
 180 526 180 526 104 433 c 128,-1,23
 28 340 28 340 28 223.5 c 128,-1,24
 28 107 28 107 94.5 46 c 128,-1,25
 161 -15 161 -15 278 -15 c 1,26,27
 372 17 372 17 444 109 c 1,28,-1
 427 126 l 1,0,1
246 -175 m 0,29,30
 263 -175 263 -175 275 -170 c 1,31,32
 281 -159 281 -159 281 -147 c 0,33,34
 281 -107 281 -107 192 -107 c 1,35,-1
 186 -103 l 1,36,-1
 224 14 l 1,37,-1
 263 16 l 1,38,-1
 240 -36 l 1,39,-1
 244 -39 l 1,40,41
 358 -39 358 -39 358 -116 c 1,42,43
 319 -191 319 -191 236 -235 c 1,44,45
 182 -235 182 -235 138 -214 c 1,46,47
 165 -173 165 -173 174 -138 c 1,48,-1
 178 -136 l 1,49,50
 202 -175 202 -175 246 -175 c 0,29,30
EndSplineSet
EndChar

StartChar: egrave
Encoding: 232 232 170
Width: 457
GlyphClass: 2
Flags: W
LayerCount: 2
Fore
SplineSet
302 74 m 0,0,1
 364 74 364 74 427 126 c 1,2,-1
 444 109 l 1,3,4
 368 16 368 16 276 -15 c 1,5,6
 160 -15 160 -15 94 45.5 c 128,-1,7
 28 106 28 106 28 223 c 128,-1,8
 28 340 28 340 103.5 433 c 128,-1,9
 179 526 179 526 299 555 c 1,10,11
 384 555 384 555 475 539 c 1,12,-1
 474 516 l 1,13,14
 457 516 457 516 436 508 c 1,15,16
 412 445 412 445 411 379 c 1,17,-1
 386 379 l 1,18,19
 377 414 377 414 375 450 c 1,20,21
 337 485 337 485 278 485 c 0,22,23
 242 485 242 485 221 471 c 1,24,25
 197 413 197 413 193 325 c 1,26,27
 226 314 226 314 276.5 314 c 128,-1,28
 327 314 327 314 358 345 c 1,29,-1
 379 339 l 1,30,31
 368 303 368 303 368 269 c 128,-1,32
 368 235 368 235 377 194 c 1,33,-1
 353 190 l 1,34,35
 343 213 343 213 335 251 c 1,36,37
 309 256 309 256 267.5 256 c 128,-1,38
 226 256 226 256 191 248 c 1,39,40
 191 195 191 195 198.5 160 c 128,-1,41
 206 125 206 125 231.5 99.5 c 128,-1,42
 257 74 257 74 302 74 c 0,0,1
116 785 m 1,43,44
 122 787 122 787 138.5 787 c 128,-1,45
 155 787 155 787 164 784 c 1,46,47
 238 659 238 659 363 591 c 1,48,-1
 353 567 l 1,49,-1
 91 664 l 1,50,51
 92 691 92 691 99.5 730.5 c 128,-1,52
 107 770 107 770 116 785 c 1,43,44
EndSplineSet
EndChar

StartChar: eacute
Encoding: 233 233 171
Width: 457
GlyphClass: 2
Flags: W
LayerCount: 2
Fore
SplineSet
302 74 m 0,0,1
 364 74 364 74 427 126 c 1,2,-1
 444 109 l 1,3,4
 368 16 368 16 276 -15 c 1,5,6
 160 -15 160 -15 94 45.5 c 128,-1,7
 28 106 28 106 28 223 c 128,-1,8
 28 340 28 340 103.5 433 c 128,-1,9
 179 526 179 526 299 555 c 1,10,11
 384 555 384 555 475 539 c 1,12,-1
 474 516 l 1,13,14
 457 516 457 516 436 508 c 1,15,16
 412 445 412 445 411 379 c 1,17,-1
 386 379 l 1,18,19
 377 414 377 414 375 450 c 1,20,21
 337 485 337 485 278 485 c 0,22,23
 242 485 242 485 221 471 c 1,24,25
 197 413 197 413 193 325 c 1,26,27
 226 314 226 314 276.5 314 c 128,-1,28
 327 314 327 314 358 345 c 1,29,-1
 379 339 l 1,30,31
 368 303 368 303 368 269 c 128,-1,32
 368 235 368 235 377 194 c 1,33,-1
 353 190 l 1,34,35
 343 213 343 213 335 251 c 1,36,37
 309 256 309 256 267.5 256 c 128,-1,38
 226 256 226 256 191 248 c 1,39,40
 191 195 191 195 198.5 160 c 128,-1,41
 206 125 206 125 231.5 99.5 c 128,-1,42
 257 74 257 74 302 74 c 0,0,1
406 784 m 1,43,44
 415 787 415 787 431.5 787 c 128,-1,45
 448 787 448 787 454 785 c 1,46,47
 463 770 463 770 470.5 730.5 c 128,-1,48
 478 691 478 691 479 664 c 1,49,-1
 217 567 l 1,50,-1
 207 591 l 1,51,52
 332 659 332 659 406 784 c 1,43,44
EndSplineSet
EndChar

StartChar: ecircumflex
Encoding: 234 234 172
Width: 457
GlyphClass: 2
Flags: W
LayerCount: 2
Fore
SplineSet
302 74 m 0,0,1
 364 74 364 74 427 126 c 1,2,-1
 444 109 l 1,3,4
 368 16 368 16 276 -15 c 1,5,6
 160 -15 160 -15 94 45.5 c 128,-1,7
 28 106 28 106 28 223 c 128,-1,8
 28 340 28 340 103.5 433 c 128,-1,9
 179 526 179 526 299 555 c 1,10,11
 384 555 384 555 475 539 c 1,12,-1
 474 516 l 1,13,14
 457 516 457 516 436 508 c 1,15,16
 412 445 412 445 411 379 c 1,17,-1
 386 379 l 1,18,19
 377 414 377 414 375 450 c 1,20,21
 337 485 337 485 278 485 c 0,22,23
 242 485 242 485 221 471 c 1,24,25
 197 413 197 413 193 325 c 1,26,27
 226 314 226 314 276.5 314 c 128,-1,28
 327 314 327 314 358 345 c 1,29,-1
 379 339 l 1,30,31
 368 303 368 303 368 269 c 128,-1,32
 368 235 368 235 377 194 c 1,33,-1
 353 190 l 1,34,35
 343 213 343 213 335 251 c 1,36,37
 309 256 309 256 267.5 256 c 128,-1,38
 226 256 226 256 191 248 c 1,39,40
 191 195 191 195 198.5 160 c 128,-1,41
 206 125 206 125 231.5 99.5 c 128,-1,42
 257 74 257 74 302 74 c 0,0,1
287 794 m 128,-1,44
 302 794 302 794 308 792 c 1,45,46
 377 674 377 674 503 598 c 1,47,-1
 493 574 l 1,48,-1
 287 653 l 1,49,-1
 81 574 l 1,50,-1
 71 598 l 1,51,52
 197 674 197 674 266 792 c 1,53,43
 272 794 272 794 287 794 c 128,-1,44
EndSplineSet
EndChar

StartChar: edieresis
Encoding: 235 235 173
Width: 457
GlyphClass: 2
Flags: W
LayerCount: 2
Fore
SplineSet
265 688 m 1,0,1
 255 667 255 667 226.5 637.5 c 128,-1,2
 198 608 198 608 176 593 c 1,3,4
 154 608 154 608 125.5 637.5 c 128,-1,5
 97 667 97 667 86 688 c 1,6,7
 98 708 98 708 124.5 730.5 c 128,-1,8
 151 753 151 753 176 764 c 1,9,10
 199 752 199 752 225.5 729.5 c 128,-1,11
 252 707 252 707 265 688 c 1,0,1
487 688 m 1,12,13
 477 667 477 667 448.5 637.5 c 128,-1,14
 420 608 420 608 398 593 c 1,15,16
 376 608 376 608 347.5 637.5 c 128,-1,17
 319 667 319 667 308 688 c 1,18,19
 320 708 320 708 346.5 730.5 c 128,-1,20
 373 753 373 753 398 764 c 1,21,22
 421 752 421 752 447.5 729.5 c 128,-1,23
 474 707 474 707 487 688 c 1,12,13
302 74 m 0,24,25
 364 74 364 74 427 126 c 1,26,-1
 444 109 l 1,27,28
 368 16 368 16 276 -15 c 1,29,30
 160 -15 160 -15 94 45.5 c 128,-1,31
 28 106 28 106 28 223 c 128,-1,32
 28 340 28 340 103.5 433 c 128,-1,33
 179 526 179 526 299 555 c 1,34,35
 384 555 384 555 475 539 c 1,36,-1
 474 516 l 1,37,38
 457 516 457 516 436 508 c 1,39,40
 412 445 412 445 411 379 c 1,41,-1
 386 379 l 1,42,43
 377 414 377 414 375 450 c 1,44,45
 337 485 337 485 278 485 c 0,46,47
 242 485 242 485 221 471 c 1,48,49
 197 413 197 413 193 325 c 1,50,51
 226 314 226 314 276.5 314 c 128,-1,52
 327 314 327 314 358 345 c 1,53,-1
 379 339 l 1,54,55
 368 303 368 303 368 269 c 128,-1,56
 368 235 368 235 377 194 c 1,57,-1
 353 190 l 1,58,59
 343 213 343 213 335 251 c 1,60,61
 309 256 309 256 267.5 256 c 128,-1,62
 226 256 226 256 191 248 c 1,63,64
 191 195 191 195 198.5 160 c 128,-1,65
 206 125 206 125 231.5 99.5 c 128,-1,66
 257 74 257 74 302 74 c 0,24,25
EndSplineSet
EndChar

StartChar: igrave
Encoding: 236 236 174
Width: 345
GlyphClass: 2
Flags: W
LayerCount: 2
Fore
SplineSet
86 31 m 1,0,1
 97 100 97 100 97 258 c 128,-1,2
 97 416 97 416 85 509 c 1,3,4
 63 516 63 516 47 525 c 1,5,-1
 50 549 l 1,6,7
 110 540 110 540 179 540 c 128,-1,8
 248 540 248 540 305 548 c 1,9,-1
 307 526 l 1,10,11
 287 517 287 517 259 511 c 1,12,13
 248 437 248 437 248 275 c 128,-1,14
 248 113 248 113 260 29 c 1,15,16
 282 24 282 24 308 16 c 1,17,-1
 306 -7 l 1,18,19
 256 0 256 0 181 0 c 128,-1,20
 106 0 106 0 53 -8 c 1,21,-1
 49 16 l 1,22,23
 62 23 62 23 86 31 c 1,0,1
25 785 m 1,24,25
 31 787 31 787 47.5 787 c 128,-1,26
 64 787 64 787 73 784 c 1,27,28
 147 659 147 659 272 591 c 1,29,-1
 262 567 l 1,30,-1
 0 664 l 1,31,32
 1 691 1 691 8.5 730.5 c 128,-1,33
 16 770 16 770 25 785 c 1,24,25
EndSplineSet
EndChar

StartChar: iacute
Encoding: 237 237 175
Width: 345
GlyphClass: 2
Flags: W
LayerCount: 2
Fore
SplineSet
86 31 m 1,0,1
 97 100 97 100 97 258 c 128,-1,2
 97 416 97 416 85 509 c 1,3,4
 63 516 63 516 47 525 c 1,5,-1
 50 549 l 1,6,7
 110 540 110 540 179 540 c 128,-1,8
 248 540 248 540 305 548 c 1,9,-1
 307 526 l 1,10,11
 287 517 287 517 259 511 c 1,12,13
 248 437 248 437 248 275 c 128,-1,14
 248 113 248 113 260 29 c 1,15,16
 282 24 282 24 308 16 c 1,17,-1
 306 -7 l 1,18,19
 256 0 256 0 181 0 c 128,-1,20
 106 0 106 0 53 -8 c 1,21,-1
 49 16 l 1,22,23
 62 23 62 23 86 31 c 1,0,1
271 784 m 1,24,25
 280 787 280 787 296.5 787 c 128,-1,26
 313 787 313 787 319 785 c 1,27,28
 328 770 328 770 335.5 730.5 c 128,-1,29
 343 691 343 691 344 664 c 1,30,-1
 82 567 l 1,31,-1
 72 591 l 1,32,33
 197 659 197 659 271 784 c 1,24,25
EndSplineSet
EndChar

StartChar: icircumflex
Encoding: 238 238 176
Width: 345
GlyphClass: 2
Flags: W
LayerCount: 2
Fore
SplineSet
176 794 m 128,-1,1
 191 794 191 794 197 792 c 1,2,3
 277 655 277 655 372 598 c 1,4,-1
 362 574 l 1,5,-1
 176 653 l 1,6,-1
 -10 574 l 1,7,-1
 -20 598 l 1,8,9
 75 655 75 655 155 792 c 1,10,0
 161 794 161 794 176 794 c 128,-1,1
86 31 m 1,11,12
 97 100 97 100 97 258 c 128,-1,13
 97 416 97 416 85 509 c 1,14,15
 63 516 63 516 47 525 c 1,16,-1
 50 549 l 1,17,18
 110 540 110 540 179 540 c 128,-1,19
 248 540 248 540 305 548 c 1,20,-1
 307 526 l 1,21,22
 287 517 287 517 259 511 c 1,23,24
 248 437 248 437 248 275 c 128,-1,25
 248 113 248 113 260 29 c 1,26,27
 282 24 282 24 308 16 c 1,28,-1
 306 -7 l 1,29,30
 256 0 256 0 181 0 c 128,-1,31
 106 0 106 0 53 -8 c 1,32,-1
 49 16 l 1,33,34
 62 23 62 23 86 31 c 1,11,12
EndSplineSet
EndChar

StartChar: idieresis
Encoding: 239 239 177
Width: 345
GlyphClass: 2
Flags: W
LayerCount: 2
Fore
SplineSet
86 31 m 1,0,1
 97 100 97 100 97 258 c 128,-1,2
 97 416 97 416 85 509 c 1,3,4
 63 516 63 516 47 525 c 1,5,-1
 50 549 l 1,6,7
 110 540 110 540 179 540 c 128,-1,8
 248 540 248 540 305 548 c 1,9,-1
 307 526 l 1,10,11
 287 517 287 517 259 511 c 1,12,13
 248 437 248 437 248 275 c 128,-1,14
 248 113 248 113 260 29 c 1,15,16
 282 24 282 24 308 16 c 1,17,-1
 306 -7 l 1,18,19
 256 0 256 0 181 0 c 128,-1,20
 106 0 106 0 53 -8 c 1,21,-1
 49 16 l 1,22,23
 62 23 62 23 86 31 c 1,0,1
152 688 m 1,24,25
 142 667 142 667 113.5 637.5 c 128,-1,26
 85 608 85 608 63 593 c 1,27,28
 41 608 41 608 12.5 637.5 c 128,-1,29
 -16 667 -16 667 -27 688 c 1,30,31
 -15 708 -15 708 11.5 730.5 c 128,-1,32
 38 753 38 753 63 764 c 1,33,34
 86 752 86 752 112.5 729.5 c 128,-1,35
 139 707 139 707 152 688 c 1,24,25
374 688 m 1,36,37
 364 667 364 667 335.5 637.5 c 128,-1,38
 307 608 307 608 285 593 c 1,39,40
 263 608 263 608 234.5 637.5 c 128,-1,41
 206 667 206 667 195 688 c 1,42,43
 207 708 207 708 233.5 730.5 c 128,-1,44
 260 753 260 753 285 764 c 1,45,46
 308 752 308 752 334.5 729.5 c 128,-1,47
 361 707 361 707 374 688 c 1,36,37
EndSplineSet
EndChar

StartChar: eth
Encoding: 240 240 178
Width: 600
GlyphClass: 2
Flags: W
LayerCount: 2
Fore
SplineSet
213 264 m 1,0,-1
 159 262 l 2,1,2
 87 260 87 260 41 253 c 1,3,-1
 38 257 l 1,4,5
 43 275 43 275 45 295 c 1,6,-1
 238 303 l 2,7,8
 308 306 308 306 326 308 c 1,9,10
 330 282 330 282 335 271 c 1,11,-1
 335 266 l 1,12,-1
 213 264 l 1,0,-1
45 537 m 1,13,-1
 316 544 l 1,14,15
 443 544 443 544 507.5 490.5 c 128,-1,16
 572 437 572 437 572 316.5 c 128,-1,17
 572 196 572 196 491 102 c 128,-1,18
 410 8 410 8 288 -15 c 1,19,20
 210 -15 210 -15 113 18 c 1,21,22
 101 3 101 3 92 -22 c 1,23,-1
 72 -17 l 1,24,25
 95 95 95 95 95 258 c 128,-1,26
 95 421 95 421 84 498 c 1,27,28
 69 507 69 507 45 513 c 1,29,-1
 45 537 l 1,13,-1
284 496 m 0,30,31
 266 496 266 496 253 492 c 1,32,33
 247 407 247 407 247 288.5 c 128,-1,34
 247 170 247 170 252 77 c 1,35,36
 283 55 283 55 319 55 c 128,-1,37
 355 55 355 55 378 69 c 1,38,39
 409 144 409 144 409 262 c 0,40,41
 409 496 409 496 284 496 c 0,30,31
EndSplineSet
EndChar

StartChar: ntilde
Encoding: 241 241 179
Width: 647
GlyphClass: 2
Flags: W
LayerCount: 2
Fore
SplineSet
85 31 m 1,0,1
 97 123 97 123 97 266 c 128,-1,2
 97 409 97 409 83 509 c 1,3,4
 61 516 61 516 45 525 c 1,5,-1
 48 549 l 1,6,7
 108 540 108 540 187 540 c 128,-1,8
 266 540 266 540 311 548 c 1,9,-1
 314 531 l 1,10,11
 295 523 295 523 295 503.5 c 128,-1,12
 295 484 295 484 322.5 432.5 c 128,-1,13
 350 381 350 381 466 192 c 1,14,-1
 469 194 l 1,15,-1
 469 273 l 2,16,17
 469 414 469 414 455 465 c 128,-1,18
 441 516 441 516 391 528 c 1,19,-1
 394 547 l 1,20,21
 438 540 438 540 495.5 540 c 128,-1,22
 553 540 553 540 609 548 c 1,23,-1
 611 526 l 1,24,25
 591 517 591 517 563 511 c 1,26,27
 550 435 550 435 550 272 c 128,-1,28
 550 109 550 109 563 29 c 1,29,30
 585 24 585 24 611 16 c 1,31,-1
 609 -7 l 1,32,33
 559 0 559 0 491 0 c 128,-1,34
 423 0 423 0 388 -5 c 1,35,36
 388 24 388 24 363 72 c 0,37,38
 334 127 334 127 182 377 c 1,39,-1
 178 376 l 1,40,-1
 178 311 l 2,41,42
 178 184 178 184 187 120 c 128,-1,43
 196 56 196 56 227 29 c 1,44,45
 249 24 249 24 275 16 c 1,46,-1
 273 -7 l 1,47,48
 223 0 223 0 164 0 c 128,-1,49
 105 0 105 0 52 -8 c 1,50,-1
 48 16 l 1,51,52
 61 23 61 23 85 31 c 1,0,1
461 719 m 0,53,54
 520 719 520 719 547 758 c 1,55,-1
 571 741 l 1,56,57
 496 639 496 639 433 605 c 1,58,59
 406 605 406 605 338 631 c 128,-1,60
 270 657 270 657 241 657 c 0,61,62
 184 657 184 657 159 618 c 1,63,-1
 135 635 l 1,64,65
 207 735 207 735 304 770 c 1,66,67
 383 719 383 719 461 719 c 0,53,54
EndSplineSet
EndChar

StartChar: ograve
Encoding: 242 242 180
Width: 576
GlyphClass: 2
Flags: W
LayerCount: 2
Fore
SplineSet
99.5 50 m 128,-1,1
 28 115 28 115 28 227.5 c 128,-1,2
 28 340 28 340 104 433 c 128,-1,3
 180 526 180 526 299 555 c 1,4,5
 416 555 416 555 482 495 c 128,-1,6
 548 435 548 435 548 317 c 128,-1,7
 548 199 548 199 477 106.5 c 128,-1,8
 406 14 406 14 288 -15 c 1,9,0
 171 -15 171 -15 99.5 50 c 128,-1,1
322.5 470 m 128,-1,11
 301 484 301 484 272 484 c 128,-1,12
 243 484 243 484 223 471 c 1,13,14
 192 396 192 396 192 280 c 0,15,16
 192 197 192 197 208 147.5 c 128,-1,17
 224 98 224 98 247.5 77 c 128,-1,18
 271 56 271 56 301 56 c 128,-1,19
 331 56 331 56 353 70 c 1,20,21
 384 140 384 140 384 257 c 0,22,23
 384 388 384 388 356 436 c 0,24,10
 344 456 344 456 322.5 470 c 128,-1,11
137 785 m 1,25,26
 143 787 143 787 159.5 787 c 128,-1,27
 176 787 176 787 185 784 c 1,28,29
 259 659 259 659 384 591 c 1,30,-1
 374 567 l 1,31,-1
 112 664 l 1,32,33
 113 691 113 691 120.5 730.5 c 128,-1,34
 128 770 128 770 137 785 c 1,25,26
EndSplineSet
EndChar

StartChar: oacute
Encoding: 243 243 181
Width: 576
GlyphClass: 2
Flags: W
LayerCount: 2
Fore
SplineSet
99.5 50 m 128,-1,1
 28 115 28 115 28 227.5 c 128,-1,2
 28 340 28 340 104 433 c 128,-1,3
 180 526 180 526 299 555 c 1,4,5
 416 555 416 555 482 495 c 128,-1,6
 548 435 548 435 548 317 c 128,-1,7
 548 199 548 199 477 106.5 c 128,-1,8
 406 14 406 14 288 -15 c 1,9,0
 171 -15 171 -15 99.5 50 c 128,-1,1
322.5 470 m 128,-1,11
 301 484 301 484 272 484 c 128,-1,12
 243 484 243 484 223 471 c 1,13,14
 192 396 192 396 192 280 c 0,15,16
 192 197 192 197 208 147.5 c 128,-1,17
 224 98 224 98 247.5 77 c 128,-1,18
 271 56 271 56 301 56 c 128,-1,19
 331 56 331 56 353 70 c 1,20,21
 384 140 384 140 384 257 c 0,22,23
 384 388 384 388 356 436 c 0,24,10
 344 456 344 456 322.5 470 c 128,-1,11
407 784 m 1,25,26
 416 787 416 787 432.5 787 c 128,-1,27
 449 787 449 787 455 785 c 1,28,29
 464 770 464 770 471.5 730.5 c 128,-1,30
 479 691 479 691 480 664 c 1,31,-1
 218 567 l 1,32,-1
 208 591 l 1,33,34
 333 659 333 659 407 784 c 1,25,26
EndSplineSet
EndChar

StartChar: ocircumflex
Encoding: 244 244 182
Width: 576
GlyphClass: 2
Flags: W
LayerCount: 2
Fore
SplineSet
99.5 50 m 128,-1,1
 28 115 28 115 28 227.5 c 128,-1,2
 28 340 28 340 104 433 c 128,-1,3
 180 526 180 526 299 555 c 1,4,5
 416 555 416 555 482 495 c 128,-1,6
 548 435 548 435 548 317 c 128,-1,7
 548 199 548 199 477 106.5 c 128,-1,8
 406 14 406 14 288 -15 c 1,9,0
 171 -15 171 -15 99.5 50 c 128,-1,1
322.5 470 m 128,-1,11
 301 484 301 484 272 484 c 128,-1,12
 243 484 243 484 223 471 c 1,13,14
 192 396 192 396 192 280 c 0,15,16
 192 197 192 197 208 147.5 c 128,-1,17
 224 98 224 98 247.5 77 c 128,-1,18
 271 56 271 56 301 56 c 128,-1,19
 331 56 331 56 353 70 c 1,20,21
 384 140 384 140 384 257 c 0,22,23
 384 388 384 388 356 436 c 0,24,10
 344 456 344 456 322.5 470 c 128,-1,11
305 794 m 128,-1,26
 320 794 320 794 326 792 c 1,27,28
 395 674 395 674 521 598 c 1,29,-1
 511 574 l 1,30,-1
 305 653 l 1,31,-1
 99 574 l 1,32,-1
 89 598 l 1,33,34
 215 674 215 674 284 792 c 1,35,25
 290 794 290 794 305 794 c 128,-1,26
EndSplineSet
EndChar

StartChar: otilde
Encoding: 245 245 183
Width: 576
GlyphClass: 2
Flags: W
LayerCount: 2
Fore
SplineSet
99.5 50 m 128,-1,1
 28 115 28 115 28 227.5 c 128,-1,2
 28 340 28 340 104 433 c 128,-1,3
 180 526 180 526 299 555 c 1,4,5
 416 555 416 555 482 495 c 128,-1,6
 548 435 548 435 548 317 c 128,-1,7
 548 199 548 199 477 106.5 c 128,-1,8
 406 14 406 14 288 -15 c 1,9,0
 171 -15 171 -15 99.5 50 c 128,-1,1
322.5 470 m 128,-1,11
 301 484 301 484 272 484 c 128,-1,12
 243 484 243 484 223 471 c 1,13,14
 192 396 192 396 192 280 c 0,15,16
 192 197 192 197 208 147.5 c 128,-1,17
 224 98 224 98 247.5 77 c 128,-1,18
 271 56 271 56 301 56 c 128,-1,19
 331 56 331 56 353 70 c 1,20,21
 384 140 384 140 384 257 c 0,22,23
 384 388 384 388 356 436 c 0,24,10
 344 456 344 456 322.5 470 c 128,-1,11
432 719 m 0,25,26
 491 719 491 719 518 758 c 1,27,-1
 542 741 l 1,28,29
 467 639 467 639 404 605 c 1,30,31
 377 605 377 605 309 631 c 128,-1,32
 241 657 241 657 212 657 c 0,33,34
 155 657 155 657 130 618 c 1,35,-1
 106 635 l 1,36,37
 178 735 178 735 275 770 c 1,38,39
 354 719 354 719 432 719 c 0,25,26
EndSplineSet
EndChar

StartChar: odieresis
Encoding: 246 246 184
Width: 576
GlyphClass: 2
Flags: W
LayerCount: 2
Fore
SplineSet
99.5 50 m 128,-1,1
 28 115 28 115 28 227.5 c 128,-1,2
 28 340 28 340 104 433 c 128,-1,3
 180 526 180 526 299 555 c 1,4,5
 416 555 416 555 482 495 c 128,-1,6
 548 435 548 435 548 317 c 128,-1,7
 548 199 548 199 477 106.5 c 128,-1,8
 406 14 406 14 288 -15 c 1,9,0
 171 -15 171 -15 99.5 50 c 128,-1,1
322.5 470 m 128,-1,11
 301 484 301 484 272 484 c 128,-1,12
 243 484 243 484 223 471 c 1,13,14
 192 396 192 396 192 280 c 0,15,16
 192 197 192 197 208 147.5 c 128,-1,17
 224 98 224 98 247.5 77 c 128,-1,18
 271 56 271 56 301 56 c 128,-1,19
 331 56 331 56 353 70 c 1,20,21
 384 140 384 140 384 257 c 0,22,23
 384 388 384 388 356 436 c 0,24,10
 344 456 344 456 322.5 470 c 128,-1,11
284 688 m 1,25,26
 274 667 274 667 245.5 637.5 c 128,-1,27
 217 608 217 608 195 593 c 1,28,29
 173 608 173 608 144.5 637.5 c 128,-1,30
 116 667 116 667 105 688 c 1,31,32
 117 708 117 708 143.5 730.5 c 128,-1,33
 170 753 170 753 195 764 c 1,34,35
 218 752 218 752 244.5 729.5 c 128,-1,36
 271 707 271 707 284 688 c 1,25,26
506 688 m 1,37,38
 496 667 496 667 467.5 637.5 c 128,-1,39
 439 608 439 608 417 593 c 1,40,41
 395 608 395 608 366.5 637.5 c 128,-1,42
 338 667 338 667 327 688 c 1,43,44
 339 708 339 708 365.5 730.5 c 128,-1,45
 392 753 392 753 417 764 c 1,46,47
 440 752 440 752 466.5 729.5 c 128,-1,48
 493 707 493 707 506 688 c 1,37,38
EndSplineSet
EndChar

StartChar: divide
Encoding: 247 247 185
Width: 576
GlyphClass: 2
Flags: W
LayerCount: 2
Fore
SplineSet
343 390 m 128,-1,1
 343 369 343 369 326 351 c 128,-1,2
 309 333 309 333 288.5 333 c 128,-1,3
 268 333 268 333 250 351.5 c 128,-1,4
 232 370 232 370 232 390.5 c 128,-1,5
 232 411 232 411 250 428.5 c 128,-1,6
 268 446 268 446 288.5 446 c 128,-1,7
 309 446 309 446 326 428.5 c 128,-1,0
 343 411 343 411 343 390 c 128,-1,1
343 107 m 128,-1,9
 343 86 343 86 326 68 c 128,-1,10
 309 50 309 50 288.5 50 c 128,-1,11
 268 50 268 50 250 68.5 c 128,-1,12
 232 87 232 87 232 107.5 c 128,-1,13
 232 128 232 128 250 145.5 c 128,-1,14
 268 163 268 163 288.5 163 c 128,-1,15
 309 163 309 163 326 145.5 c 128,-1,8
 343 128 343 128 343 107 c 128,-1,9
66 290 m 1,16,17
 236 281 236 281 355.5 281 c 128,-1,18
 475 281 475 281 514 284 c 1,19,-1
 520 278 l 1,20,-1
 511 217 l 1,21,-1
 65 217 l 1,22,-1
 57 224 l 1,23,-1
 66 290 l 1,16,17
EndSplineSet
EndChar

StartChar: oslash
Encoding: 248 248 186
Width: 576
GlyphClass: 2
Flags: W
LayerCount: 2
Fore
SplineSet
165 -87 m 1,0,-1
 160 -87 l 1,1,2
 140 -78 140 -78 127 -63 c 1,3,4
 175 44 175 44 213 143 c 2,5,-1
 308 393 l 2,6,7
 350 502 350 502 386 613 c 1,8,9
 411 615 411 615 431 621 c 1,10,-1
 435 618 l 1,11,12
 422 588 422 588 352 406 c 2,13,-1
 165 -87 l 1,0,-1
99.5 50 m 128,-1,15
 28 115 28 115 28 227.5 c 128,-1,16
 28 340 28 340 104 433 c 128,-1,17
 180 526 180 526 299 555 c 1,18,19
 416 555 416 555 482 495 c 128,-1,20
 548 435 548 435 548 317 c 128,-1,21
 548 199 548 199 477 106.5 c 128,-1,22
 406 14 406 14 288 -15 c 1,23,14
 171 -15 171 -15 99.5 50 c 128,-1,15
322.5 470 m 128,-1,25
 301 484 301 484 272 484 c 128,-1,26
 243 484 243 484 223 471 c 1,27,28
 192 396 192 396 192 280 c 0,29,30
 192 197 192 197 208 147.5 c 128,-1,31
 224 98 224 98 247.5 77 c 128,-1,32
 271 56 271 56 301 56 c 128,-1,33
 331 56 331 56 353 70 c 1,34,35
 384 140 384 140 384 257 c 0,36,37
 384 388 384 388 356 436 c 0,38,24
 344 456 344 456 322.5 470 c 128,-1,25
EndSplineSet
EndChar

